<svg xmlns="http://www.w3.org/2000/svg" viewBox="0 0 51.9 51.9"><defs><style>.cls-1{fill:#9c9;}.cls-2{fill:#183319;}</style></defs><title>alligator</title><g id="Layer_2" data-name="Layer 2"><g id="alligator"><circle class="cls-1" cx="25.95" cy="25.95" r="25.95"/><path class="cls-2" d="M31.67,14.09c0-.36.09-.43.53-.47-.08-.52,0-.55.86-.48l-.16-.38a2.55,2.55,0,0,1,.43-.07c.13,0,.27,0,.4,0s0-.07,0-.09,0-.38,0-.4a1,1,0,0,1,.49,0,2.3,2.3,0,0,1,.35.1.2.2,0,0,0,0-.08l-.09-.41a1.66,1.66,0,0,1,.48-.08,3.51,3.51,0,0,1,.63.24c0-.06,0-.1,0-.14l-.06-.45a2,2,0,0,1,.48,0,3.1,3.1,0,0,1,.52.15c0-.5.18-.64.66-.46.17.07.32.17.49.25.15-.38.47-.27.73-.2s.39.15.56-.13.64-.08.87.1l.11.1s.06,0,.06,0c.13-.49.39-.58.8-.24a4.83,4.83,0,0,1,.38.4c.44-.48.44-.48,1.19.28.21-.1.26-.54.59-.35a2.71,2.71,0,0,1,.54.57.85.85,0,0,0,.14-.09c.28-.27.43-.25.62.09a3.72,3.72,0,0,1,.2.5c.24,0,.39-.48.65-.17a2.24,2.24,0,0,1,.22.74l.49-.28.16.76c.5,0,.5,0,.4.59l.31.11-.21.45.25.13a1.38,1.38,0,0,0-.15.25,1.83,1.83,0,0,0,0,.4c0,.09,0,.18.06.28,0,.47,0,.94.09,1.4a3.75,3.75,0,0,1-.6,2.25,4.58,4.58,0,0,1-1.4,1.27c-.5.39-1.09.66-1.62,1-.16.1-.25.32-.41.41a4.25,4.25,0,0,1-1.51.65,2.29,2.29,0,0,0-.82.39,1.42,1.42,0,0,0-.65,1q-.06.29.18.21a.86.86,0,0,1,.87.16.21.21,0,0,0,.16,0c.36,0,.64.06.69.48a.16.16,0,0,0,.08.1c.58.35.59,1,.79,1.55a4.3,4.3,0,0,1-.08,2.46A1.2,1.2,0,0,0,42.64,30a1.38,1.38,0,0,1,.14.3l-.09.07A5.44,5.44,0,0,1,42,30c-.4-.29-.72-.17-.83.31a1.08,1.08,0,0,1-.13.29l-.18.3c-.46-.36-.47-.88-.5-1.47-.1.12-.16.15-.17.2-.07.25-.12.5-.19.75,0,0-.07.1-.1.1a.2.2,0,0,1-.15-.08c-.16-.3-.31-.6-.48-.93-.27.07-.35-.11-.45-.41A2.57,2.57,0,0,1,39,27.38c.07-.23,0-.31-.21-.35a3.66,3.66,0,0,1-1.67-.86c-.21-.15-.33-.12-.48.07a5.3,5.3,0,0,1-1.69,1.39c-.66.35-1.3.73-2,1a10.41,10.41,0,0,1-1.28.32c-.64.18-1.29.34-1.91.58s-1.37.64-2.07.92-1.51.53-2.27.77c-.24.08-.32.19-.26.42a3.63,3.63,0,0,1,.17.78,2.6,2.6,0,0,1-.46,1.63,4.63,4.63,0,0,1-1.07,1,5.13,5.13,0,0,1-1.77.65,3.82,3.82,0,0,1-1.57.17.76.76,0,0,0-.48.24c-.2.18-.36.42-.55.61s-.39.3-.66,0l-.81.72c-.17-.33.06-.53.1-.75a2.51,2.51,0,0,0,0-.27.78.78,0,0,0-.26,0c-.31.08-.61.2-.92.28s-.7.16-1.11.25c.06-.37.41-.47.59-.73L16,36.08,15.8,36c.07-.1.11-.22.2-.27a5.65,5.65,0,0,1,.66-.31l.24-.16-.44-.1a.92.92,0,0,1,.88-.49,4,4,0,0,0,1.92-.71l2.19-1.18c.06,0,.15,0,.22-.05l.3-.14c-.11-.12-.21-.31-.34-.34a2.27,2.27,0,0,0-1.41.09.38.38,0,0,0-.13.09c-.37.6-1,.65-1.61.78a13.4,13.4,0,0,1-3.1,0,1,1,0,0,1-.38-.09,2,2,0,0,0-1.55,0c-.93.22-1.85.46-2.79.61-1.37.23-2.76.41-4.14.54a12.43,12.43,0,0,1-2.2,0c-.35,0-.75-.16-.79-.65,0-.09-.14-.17-.23-.27l.15-.11c.1-.08.27-.16.27-.23a.48.48,0,0,0-.21-.32,1.23,1.23,0,0,1,.05-2.21A2.19,2.19,0,0,1,4.81,30a1.58,1.58,0,0,0,.64-.26c.72-.35,1.46-.67,2.14-1.08a17.37,17.37,0,0,0,2.79-1.49l.28-.26c-.44,0-.44-.21-.25-.5L9.3,26.25l.12-.32L9,25.82c.16-.3.44-.27.68-.33l.88-.16a.73.73,0,0,0,.23-.12l-.29-.5a2,2,0,0,1,.32.05c.12.06.24.14.37.19a.61.61,0,0,0,.8-.26,1.09,1.09,0,0,0,1.37-.16,5.62,5.62,0,0,1,2.05-1,7.37,7.37,0,0,1,2.72-.22,1.16,1.16,0,0,1,.92.58c.11.15.2.21.37.09a7.4,7.4,0,0,1,.69-.45,1.3,1.3,0,0,1,.39-.09c.07,0,.19.06.21,0,.33-.37.87-.1,1.17-.34s.59-.46.85-.7a2.19,2.19,0,0,1,.56-.48,2.8,2.8,0,0,0,.56-.48l0-.1-1,.09,0-.05.5-.31a5.8,5.8,0,0,0,.59-.36c.28-.23.25-.4-.06-.58a.66.66,0,0,1-.25-.19,1.13,1.13,0,0,1,.31-.06,3.92,3.92,0,0,0,1.86-.26,3.41,3.41,0,0,1,1.38-.21.46.46,0,0,0,.49-.23,7.12,7.12,0,0,1,1.47-1.58,1.8,1.8,0,0,0,.57-.94A1.12,1.12,0,0,1,30,16a.74.74,0,0,0,.29-.5c0-.39.29-.29.51-.3s.23.05.31,0a.49.49,0,0,0,.23-.28c0-.06-.09-.16-.15-.24L31,14.41a1.31,1.31,0,0,1,.24-.17C31.39,14.18,31.52,14.15,31.67,14.09Zm7.54,2.63c.16-.23.38-.24.57-.32a5.08,5.08,0,0,1,.85-.38c.17,0,.32-.23.56-.2.06,0,.14-.08.21-.11s.25-.1.37-.17.19-.13.29-.19c-.06-.08-.11-.19-.19-.23a5.11,5.11,0,0,0-2.17-.57c-.4,0-.81,0-1.22,0a10.61,10.61,0,0,0-3.58.61c-1,.33-2,.8-3,1.23a4.94,4.94,0,0,0-.57.36,4.87,4.87,0,0,0,1.1.16,9.08,9.08,0,0,1,1.17.09,5.74,5.74,0,0,1,.81.36c.34.14.69.28,1,.39.09,0,.21-.06.32-.11s.2-.15.29-.14a.7.7,0,0,0,.64-.13c0-.05.13-.05.21-.07l.44-.08a1.35,1.35,0,0,0,.29,0,2.31,2.31,0,0,1,.92-.29,0,0,0,0,0,0,0C38.73,16.58,38.93,16.52,39.21,16.72Z"/></g></g></svg>