<svg xmlns="http://www.w3.org/2000/svg" viewBox="0 0 51.9 51.9"><defs><style>.cls-1{fill:#9c9;}.cls-2{fill:#183319;}</style></defs><title>aoudadsheep</title><g id="Layer_2" data-name="Layer 2"><g id="Aoudad_Sheep" data-name="Aoudad Sheep"><circle class="cls-1" cx="25.95" cy="25.95" r="25.95"/><path class="cls-2" d="M8.41,15.43c.15.1-.29-.64-.29-.95A2.56,2.56,0,0,1,9,12.15c1-.8,2.73-.21,3.1,0s1.8,1.42,1.75,1.86-.88-1-1.5-1-1.27-.28-1.36-.18,1,1.91,1.57,2a1.35,1.35,0,0,1,1,.75,6.27,6.27,0,0,1,.52,1.6,22.19,22.19,0,0,1,.39,4.18,12.51,12.51,0,0,0,.31,2.9s-1.63,4.88-1.71,5A28,28,0,0,0,14.69,26s-.73,2.66-.78,2.87a26.37,26.37,0,0,0,1.47-2.66s-1.08,3.87-1.16,4.13c0,0,1.32-2.68,1.32-2.81s-.13,2.86-.26,3.46c0,0,1.11-3.15,1.11-3.28s-.54,4.49-.62,4.67c0,0,.9-3.69.9-3.79s-.15,3.07-.18,3.51c0,0,.65-2.4.65-2.74a17.15,17.15,0,0,0,1.6,1.78A4.78,4.78,0,0,1,18.3,33a8.49,8.49,0,0,0,.83-1.55s-.34,1.21-.47,1.55A10.85,10.85,0,0,0,20,31.5s-.77,5.16-.84,7c0,0-.2.86-.29,1.12s1.08.42,1.44.19.46-1.08.46-1.67A41.94,41.94,0,0,1,21.7,32c.26-.33.75,1.67.62,2.49a38.88,38.88,0,0,0-.17,4.82c.1.2.1.69.33.82s.44.3,1.12-.26-.54-.56,0-3,.72-3.6.55-4.45-.32-1.25-.09-1.58,3-.42,3.54-.42,2.68-.27,2.91,0,.23.72.53.69.72-1.44,1.41-1.44,1,2.62,2.06,3.28,1.28,3,.92,4-.75,2.66-.82,2.85-.56,1-.26,1.12,1,.62,1.25,0a8.67,8.67,0,0,0,.26-1.48c0-.26,2.42-4.33,2.29-5.21A17,17,0,0,0,36.68,31s4.16,3.87,4.39,4.62a40.89,40.89,0,0,1,1.21,6.53c0,1.64.95.88,1.15.82s.16-1.38,0-2.27-.36-5.27-.36-5.7.2-1.57-.23-2S40.05,30.63,39.59,29s.79-4.23,1.25-5a2.15,2.15,0,0,0,.43-2.2,4.8,4.8,0,0,0-2.4-2.52c-1.14-.5-3.7-1.58-4.09-1.74a26.69,26.69,0,0,0-7.45.69c-1.14.23-5.8-1.64-6.82-1.51s-2.42,1.93-2.42,1.93a4.38,4.38,0,0,1,.43-2.33c.55-.85.75-.85.68-1.27a4.18,4.18,0,0,0,2.13-2.49s-1-.43-2.68,1.18l-.15-.2s1.22-1.95,2.88-1.88,2.12,1.09,2.1,1.48.18,1.09-.2,1.53-.35.73.08.39a3.33,3.33,0,0,0,.95-3,3.2,3.2,0,0,0-3.16-2.42c-1.29,0-3.8.48-4.61,2a1.4,1.4,0,0,0-.67.1,6.23,6.23,0,0,0-5.3-2.08C7.4,10.18,6.32,14.09,8.41,15.43Z"/></g></g></svg>