<svg xmlns="http://www.w3.org/2000/svg" viewBox="0 0 51.9 51.9"><defs><style>.cls-1{fill:#9c9;}.cls-2{fill:#183319;}</style></defs><title>axisdeer</title><g id="Layer_2" data-name="Layer 2"><g id="axis_deer" data-name="axis deer"><circle class="cls-1" cx="25.95" cy="25.95" r="25.95"/><path class="cls-2" d="M18.18,16.19a8.2,8.2,0,0,1,1.94-.49A7.4,7.4,0,0,1,23,16c1.85.43,4.47,1.66,5.53,1.66a8.88,8.88,0,0,1,3.17.39,9.1,9.1,0,0,0,.39-2c0-.74-.39-.58-.39-1.58a17.35,17.35,0,0,0,0-2.14,5,5,0,0,0-.45-.74,3.28,3.28,0,0,0-1.26-.65c-.49-.13-1.49-2-1.49-2.65s-.06-1.07.19-1.23a4.65,4.65,0,0,1,2.46,1.13c.55.55.75,1.62,1.26,1.72s.84-.39,1.62-.36,1.59.39,1.91.26.71-1.07.84-1.26S38.2,7.07,39.1,7.13s.36,2.07-.29,2.85-.74.94-1.39,1.1a1.88,1.88,0,0,0-1.06,1.41,15.06,15.06,0,0,1,.12,2.28c-.09.54-.58.77-.58,1.06s.1,3.88.13,4.27.1,3.17,0,3.69a10.94,10.94,0,0,1,.26,3.46c-.29,1.94-1.55,2.59-1.58,3.14s-1,7.54-1,8.25.49,4.88.62,5.21.32.42.19.77-1.26.13-1.39.13-.23-1.07-.23-1.26a41.13,41.13,0,0,0-.51-4.17A7.33,7.33,0,0,1,32,37.25c0-.33-.65-3.3-.46-4.4,0,0-1.13.19-1.39-.13a14.26,14.26,0,0,0,.49,4.72c.26.94-.26,2-.26,2.65s.06,3.66.42,4.21-1.26.75-1.29.52a15.12,15.12,0,0,1,0-1.91,23.83,23.83,0,0,0-.2-3.24,8.06,8.06,0,0,1-.55-2.23A26,26,0,0,0,28,34.79a14.44,14.44,0,0,0-.49-3,20.38,20.38,0,0,0-4.23-1,32.77,32.77,0,0,0-2.4,2.91A5.85,5.85,0,0,0,21,36.47c.29,1,1.16,3.49,1.26,3.91s-1,.49-1,.49-.75-.42-.78-.65.13-.26.19-.52-2.32-5.27-2.45-6.79c0-1.13,2-2.62,1.77-4.27,0,0-3.72,2.85-5.14,5.21s-1.1,6.44-.94,6.76c0,0-.74.71-1.16.19s-.45-.84-.29-.93.22-.65.22-1-.11-5.79-.31-6.59,2-1.46,2.09-3.21a15.77,15.77,0,0,0,0-3.88s-.13,1-.68,1.05-.55-2-.36-3.57A7.9,7.9,0,0,1,14.49,19,6.49,6.49,0,0,1,18.18,16.19Z"/></g></g></svg>