<svg xmlns="http://www.w3.org/2000/svg" viewBox="0 0 51.9 51.9"><defs><style>.cls-1{fill:#9c9;}.cls-2{fill:#183319;}</style></defs><title>baboon</title><g id="Layer_2" data-name="Layer 2"><g id="baboon"><circle class="cls-1" cx="25.95" cy="25.95" r="25.95"/><path class="cls-2" d="M11.16,10.4c.82-.2,2.92.07,4.48,3.89.84,2.41,5.06.91,6,.85s7.07-.2,8.89-1.23,6.16-1.56,7.07-2.08a8.71,8.71,0,0,1,3.24-1.44A5.31,5.31,0,0,1,45.16,13c.33.87-.74.78-.69.91s.17,2.18,1.15,2.76-.4,2.89-1.11,3.07-2-.53-2.8-.4A1.85,1.85,0,0,0,39.93,21c-.09,1-1.83,7-2.27,8.59s0,12.68.31,13.12,1.78,0,2.31.58-.22.89-1.82.8-3.65.16-4.09,0-.45-1.88-.45-2.46.22-7.38,0-8.32a30.41,30.41,0,0,1-.63-3.64c0-.54,1.21-2.67.89-3.07s-3.63,1.24-7.37,1.24-7.53-3-7.8-2.76,1,2.94,1.56,3.43,1.34,4,1.29,7-.09,5.34.18,5.74.67,1.42,2.71,1.29,2.45-.27,2.72-.14,1,.43,1,1.07-7.54.8-8.87-.18c-.25-.18-.53-.45-1-.79s-2.74,1.33-3.54.44-.31-7.79-.27-8.59,0-3.51-.49-4.58a40.22,40.22,0,0,1-2.31-6.67c-.4-2-1.34-2.63-1.34-3.56a9.24,9.24,0,0,1,2.1-4c.75-.76-.81-3.69-1.47-3.47S8.7,14.55,8,19.14s-1.16,9.43-.89,10.14,1.07,1.42.67,2-1.65-1.42-1.65-1.87.58-11.7,1.25-13.48S8.2,11.14,11.16,10.4Z"/></g></g></svg>