<svg xmlns="http://www.w3.org/2000/svg" viewBox="0 0 51.9 51.9"><defs><style>.cls-1{fill:#9c9;}.cls-2{fill:#183319;}</style></defs><title>bear</title><g id="Layer_2" data-name="Layer 2"><g id="bear"><circle class="cls-1" cx="25.95" cy="25.95" r="25.95"/><path class="cls-2" d="M32.72,12.74c1.13,0,2.63,1.45,3.4,1.68a22.64,22.64,0,0,0,2.66.71c.09-.05.82-.19.95.4s3.48,1.35,3.71,1.52,1.27-.2,1.52-.29.75.7-.12,1.63c-.25.23,1.2,1.8.49,4.05,0,.16-.51.18-.51.52s.82,2.73.79,3.18-.45.68-1.27,1.22-1.83-.31-1.9-.27-1,.89-1.5.71a13,13,0,0,1-2-2.55c-.11-.16-2.43.52-3,.3s-2.7,7.08-1.78,9.85c.57,2.09.94,2,1.12,2a8,8,0,0,1,2.24,0c.39.22.32,1.32-.81,1.61s-4,.3-4.68-.73a6.83,6.83,0,0,0-1.88-2,1.16,1.16,0,0,0-1.09.38,1.36,1.36,0,0,1-1.78-.2c-.18-.36,1.43-1.12,1.55-1.45s-1.46-2.85-1.68-3.12-1.2-3.2-1.8-3.34-3.13,1.1-3.61,1.16-.54,5.07-.41,5.29a1.48,1.48,0,0,0,1.78.53c1.07-.34-.1,1.92-1.46,2.13s-3.29-.29-3.51-.7-2.35-6.11-2.77-6.25a1.47,1.47,0,0,0-1.44.23c-.34.38-3,3.23-2.77,5s1.52.7,1.68.7,1.05.37.16,1.52c-.25.28-4.22.3-4.74-.25s-2-1.47-2-2.4.72-4.38.47-6.2.6-5.74,1-6.79a15.35,15.35,0,0,1,7-7.88,15.47,15.47,0,0,1,9.09-1.41c.81-.08,3.9.48,5.36.23S31.08,12.72,32.72,12.74Z"/></g></g></svg>