<svg xmlns="http://www.w3.org/2000/svg" viewBox="0 0 51.9 51.9"><defs><style>.cls-1{fill:#9c9;}.cls-2{fill:#183319;}</style></defs><title>bison</title><g id="Layer_2" data-name="Layer 2"><g id="bison"><circle class="cls-1" cx="25.95" cy="25.95" r="25.95"/><path class="cls-2" d="M14,28.93Z"/><path class="cls-2" d="M6.09,24.8l0,.11C6,25.05,6.05,25,6.09,24.8Z"/><path class="cls-2" d="M5.69,27.38h0S5.68,27.41,5.69,27.38Z"/><path class="cls-2" d="M46.41,27.27a1.14,1.14,0,0,1-.14-.88c.25-.84-.09-2.48.2-2.9s.62-4.21-.74-5.35a2.81,2.81,0,0,0-3.14-.58c-.3.29-2.46-.16-2.64-.11s-.14.21-.84-1.25a5.63,5.63,0,0,0-4.54-3.29s-3.3-.25-6.08-.16a39.18,39.18,0,0,0-7.82,1.3,3.13,3.13,0,0,1-1.07.77c-.46.17-2.66.52-3.23,1a5.5,5.5,0,0,1-2.16.77,12.39,12.39,0,0,1-1.51.47c-.48.05-2.27.91-2.61,1a11.46,11.46,0,0,0-2.34,1.47c-.54.46-.92,3.91-1.26,4.29a2.81,2.81,0,0,0-.4,1,1.81,1.81,0,0,1,.59-.62l-.85,2s.51-.27.18.11a2.24,2.24,0,0,0-.32,1.13c0-.17.52-.41.52-.3s-1.08,2.34-1,2.34,1.09-1.06,1.09-1.06c0,.15-.31,1.43-.31,1.43.91-.51,1.69-4.24,1.69-4.24A11.85,11.85,0,0,1,8.39,28c0,.76-1.63,2.16-1.69,2.32s0,2.48,0,3.38-.35,3.38-.35,3.55.13.42,1,.54,1.91.06,1.88-.16-1-1-1.05-1.11a26.18,26.18,0,0,1,0-2.68,6.87,6.87,0,0,1,1.36-2.41,15.34,15.34,0,0,0,1.57-1.88,11,11,0,0,1,2-1.68c.08,0,.27.66.27.48s.54-.36.63-.19a1.71,1.71,0,0,1,0,.75c0-.09.38-.11.38-.11.26,1-.31,2.64-.29,3s4.3,4,4.37,4.16-.11.38.06.67.72.06.72.12-.14.52.54.75a3.34,3.34,0,0,0,2-.1c0-.12-.7-.44-.72-.73s-.59-.72-.77-.85-.41-.67-.63-.85a29.1,29.1,0,0,1-2.39-2.64c-.37-.57.32-3.16.49-3.17s1,1.37,1.34,1.39,0-1,.19-.91,5.73-.48,5.84-.37a6.86,6.86,0,0,1,.45.92,2.19,2.19,0,0,0-1.19.11c.12,0,.63.35.46.27a3.29,3.29,0,0,0-1.16.34c.13,0,1.09.19,1.09.3s-2.25.33-1.78.31,1.53.48,1.52.67-.95.05-.82.25,1.16.69,1,.67-.69.23-.58.23,1,.34,1,.44a6.69,6.69,0,0,1-1.09.69c-.21.11-.37-.08-.63,0s-.18.64-.31.64a1.61,1.61,0,0,0-.73.48A6,6,0,0,0,22.45,37c.08.49.65.7.65.58a4.66,4.66,0,0,1,1.09-1.29c.46-.05,1.89-1.67,2-1.76a2.53,2.53,0,0,0,1.22-.3c.71-.42.95-2.12,1.08-2.09a.76.76,0,0,1,.37.67A6.3,6.3,0,0,0,29,34c0-.22.4-.45.32-.23a5.14,5.14,0,0,0,0,1.21c0-.16.49-.65.49-.43a4.87,4.87,0,0,0,.2,1c0-.15.66-.61.65-.41s.17.85.26.74a2,2,0,0,0,.27-.38c.06-.13.32-.43.37-.17a9.36,9.36,0,0,0,.34,2.49c.28.36,3,.25,3-.17s-1-1-1.17-1.07a10.53,10.53,0,0,1-1.09-1.83c-.05-.16.22-.66.29-1.42s-.56-1.38-.34-1.62c1-1,2-.47,3-1.49a5,5,0,0,1,2.79-1.36c.32,0,.63.27.84.29s1.09-.34,1.26-.13-.1.6-.1.89.75,1,.79,1.22-.58,1.14.44,1c1.89-.38,2-2.44,2.31-2.45,1,.05,1.1-.3,1.54-.34a1.49,1.49,0,0,0,1-.57.68.68,0,0,0,.06-.78C46.48,27.86,46.49,27.36,46.41,27.27ZM8.09,21.74a18.16,18.16,0,0,0-.45,1.89,13.2,13.2,0,0,1,.13-2.76c.09-.62,1.08-1.27,1.08-1.27C8.34,19.88,8.22,21.49,8.09,21.74Z"/></g></g></svg>