<svg xmlns="http://www.w3.org/2000/svg" viewBox="0 0 51.9 51.9"><defs><style>.cls-1{fill:#9c9;}.cls-2{fill:#183319;}</style></defs><title>bobcat</title><g id="Layer_2" data-name="Layer 2"><g id="bobcat"><circle class="cls-1" cx="25.95" cy="25.95" r="25.95"/><path class="cls-2" d="M11.75,15.38c.85-.24,8.81.79,9.94.89s8.06,1.64,8.51,1.59,1.63-.5,1.83-.5,4.28.66,4.86.63,3.08.09,3.31,0,.37-1.21,1.5-1.32,1.18,1.5,1.18,1.5a12.39,12.39,0,0,1,2.21-1.27c.4,0-.32,1.29-.49,1.73s1.67,1.58,1.81,2.56-.11,1.21,0,1.58.58,1.47.47,1.7a2.2,2.2,0,0,1-1.3.57.58.58,0,0,0-.46,0c-.06.05.09.48-.66.77s-1.7-1.41-2.45-1.41-2.5-.69-2.82.17-1.18,3.11-.92,4.17,3.6,7.4,4.06,7.57,1.87-.11,2.33.18.75.6.72,1-1.24.55-2,.61a3.07,3.07,0,0,1-2.85-.72c-.92-1-4.12-5.36-4.35-5.53S34,27.52,33.7,27.43s-2.85.12-3.77,1a26.65,26.65,0,0,0-3.83,5.75,6,6,0,0,0-.66,2.42c0,.57,1.29.11,1.47,1.32s-3.46.85-3.5.24A46.75,46.75,0,0,1,25.7,27s.14-1.16-1.5-1.34-6.07-1.06-6.33-1.09-1.55,2.5-4.63,3.37S9.07,29.85,9,30.37s2.85,4.54,1.75,5.2S7.4,31.66,7.4,31.66a9.34,9.34,0,0,0,.34,3.86c.12.37,1-.58,1.73,1s-2.62,1.1-2.79.61a9.62,9.62,0,0,1-1.5-4.86c-.32-3.49,1-3.57,1-3.57A6.25,6.25,0,0,1,5.93,27c.09-.36,1.61-.73,1.73-1.16a6.51,6.51,0,0,0,0-3.11,13.64,13.64,0,0,1,.14-4.26.94.94,0,0,0-1.07.92c-.05,1-.48,4.1-2.18,3.89s.11-1.18.17-1.73.55-3.25,1-3.63a3.94,3.94,0,0,1,2.53-1.64c.89-.11,1.12,0,1.52-.2A11.42,11.42,0,0,1,11.75,15.38Z"/></g></g></svg>