<svg xmlns="http://www.w3.org/2000/svg" viewBox="0 0 51.9 51.9"><defs><style>.cls-1{fill:#9c9;}.cls-2{fill:#183319;}</style></defs><title>camel</title><g id="Layer_2" data-name="Layer 2"><g id="camel"><circle class="cls-1" cx="25.95" cy="25.95" r="25.95"/><path class="cls-2" d="M6,13.22a9.08,9.08,0,0,1,2.46,0c.09,0,.54-.07.69-.13a2.46,2.46,0,0,1,1.52-.28s.49-.24.69-.18a.37.37,0,0,1,.1.29.92.92,0,0,1,.47.22s.24-.05.32,0a2.9,2.9,0,0,1-.09.89c-.05.16.12.1.36,1a6.73,6.73,0,0,0,.75,1.62c.26.47.31,1.64,1.31,2.41a3.19,3.19,0,0,0,2.38.65,8,8,0,0,0,4.15-1.93,7.74,7.74,0,0,1,2.92-2c.58-.23,3.74-.09,4.47-.55s1.68-2.27,3.42-2.23,4,3,4.76,3.12,2.9.16,3.51.62,2,1.7,2.56,2.12a5.34,5.34,0,0,1,1.48,1.43,20.65,20.65,0,0,1,.36,3.39,7.55,7.55,0,0,1,.22,1.69c0,.69.24.44.18,1.5a11.54,11.54,0,0,0-.07,2.69s-.94-.16-1.06-2.72a11.36,11.36,0,0,0,1.36,6c.16.3-1,2.68-1.17,3.58s-.78,2.88-.76,3.23-.33.76-.32.92.23.71-.41.7-2.18.36-2.35-.1.6-.6,1.19-.71.55-.76.61-.94.45-.47.52-.95A16.52,16.52,0,0,0,43,33c-.09-1.52-.66-1.87-.66-1.87s.43,2.17.45,2.4-3.09,5.35-3.55,7.21c0,.52-.12,1-.28,1s-2.22.17-2.35-.16.31-.7,1-.76,2.69-4.91,2.74-5.84a21.69,21.69,0,0,0,.13-2.59c0-1-.3-1-.53-3.55,0-.47-.48,0-.59-.68s-.7-1.27-.7-1.52-1-.9-1.1-1.55a11,11,0,0,1-4.22,2.33c-2,.36-7.92,0-7.94,0s.31,2.31.38,2.72.61,1.9.66,2.36,0,2-.06,2.83.18,3.86.19,4-.2.6-.17.73.37.75.31,1.06-2.71.61-2.9.15,1.38-.67,1.41-1.13a11.68,11.68,0,0,1,.28-1.25c0-.12-.1-3.65-.1-3.7a5.69,5.69,0,0,0-.36-1.08,3.9,3.9,0,0,1-.51-2.11,3.9,3.9,0,0,0-.63-2,26.26,26.26,0,0,0-.06,2.86,3.87,3.87,0,0,1-.49,2,20.14,20.14,0,0,0-.63,4,1.87,1.87,0,0,1-.31.92c-.15.2.38.81.06,1.06a4.89,4.89,0,0,1-2.58,0c-.16-.19.36-.64.93-1s.72-1.31.79-1.46a12.06,12.06,0,0,0,.41-2,7.54,7.54,0,0,0,.09-2.14,4.4,4.4,0,0,1,.11-2,40.11,40.11,0,0,0-.32-5,5.39,5.39,0,0,0-.41-1.2,1.83,1.83,0,0,1-1.18-1.12c-.12-.18-.41,0-.57-.17s-3.08.06-4.12-.41a12.1,12.1,0,0,1-3.74-2.67,27.36,27.36,0,0,1-1.7-3.25c-.15-.27-.54-.85-.68-1.12s-.63-.3-.72-.4a.93.93,0,0,1-.15-.5c0-.18-1.42-.54-1.79-.55s-.35-.39-.45-.34-.82.86-1.22.66.37-.82.37-.82-.86.17-.93-.26.55-.69.55-.82S5,13.71,6,13.22Z"/></g></g></svg>