<svg xmlns="http://www.w3.org/2000/svg" viewBox="0 0 51.9 51.9"><defs><style>.cls-1{fill:#9c9;}.cls-2{fill:#183319;}</style></defs><title>capybara</title><g id="Layer_2" data-name="Layer 2"><g id="capybara"><circle class="cls-1" cx="25.95" cy="25.95" r="25.95"/><path class="cls-2" d="M8.54,16.68c.22-.59,2.34-.89,3-.77s-.45-1.56.74-1.6,1.15.63,1.3.74,1-.44,1.52-.07a1.94,1.94,0,0,1,.59,1.7c-.11.37,3.26,1.23,4.15,1.12s8.68-1.74,11.09-1.56S42,20.06,43.36,22.36s2.52,3.45,2.71,5.15-1,3.95-3.38,6.13-.35,2.47-.35,3.07A15,15,0,0,1,40.91,41c-.41.37-2.22.26-2.22-.19a15.58,15.58,0,0,0,.37-2.22c-.11-.45-1.26,2.49-1.37,2.63s-1.93.41-2-.48A16.22,16.22,0,0,1,36,38.19c0-.18-2.45-2.63-2.82-3.67s-8.67-.22-8.75,0-2,6.76-2.44,6.87-2.31.29-2.35-.34,1.19-1.63.82-4a8.13,8.13,0,0,0-4.08-6.3c-3-1.93-3.86-4.64-4.34-5.19s-3.78.18-4.67.07a3,3,0,0,1-2.6-2.82A3.63,3.63,0,0,1,6,19.32C6.54,18.83,8,18.09,8.54,16.68Z"/></g></g></svg>