<svg xmlns="http://www.w3.org/2000/svg" viewBox="0 0 51.9 51.9"><defs><style>.cls-1{fill:#9c9;}.cls-2{fill:#183319;}</style></defs><title>deer</title><g id="Layer_2" data-name="Layer 2"><g id="deer"><circle class="cls-1" cx="25.95" cy="25.95" r="25.95"/><path class="cls-2" d="M42.21,33.13c-1.65-.73-3.13-2.2-2.86-2.35,1.9-1,1.41-5.58,1-6.68s-4.71-3.25-6.6-3-4.3-.12-5.06.11c-2.26.81-4.43,0-6.32.14S19,21,18.88,19.77a3.26,3.26,0,0,0-.78-1.94c0-.12.46-.72.66-.93s.62.06,1.12-.3a2.26,2.26,0,0,0,.74-2.28c-.15-.16-1.07.07-1.07.07A11.6,11.6,0,0,0,21.48,13,2.11,2.11,0,0,0,22,10.89c0-.18-.49-.55-.49-.55-.15-.86-.6-1.19-.64-1.16a8.2,8.2,0,0,0,.31,1.06L21,10.17c-.38-1.23-1.19-1.43-.92-1.18a2.13,2.13,0,0,1,.57,1.14c-.07,0-.25-.05-.25,0s.27.23.33.26a3.93,3.93,0,0,1,.38,1.47c0,.51-.44,1.55-.6.68a9.55,9.55,0,0,0-.8-2.72c-.36-.62-.55-.43-.41-.25A6.94,6.94,0,0,1,20,13.23c-.07.37-2,1.65-2.26,1.23s-.42-2.81-.54-2.8,0,1.07,0,1.07A9.2,9.2,0,0,1,17.07,15c-.08.19-.87,0-1.23,0s-1,0-1,0,0-.92,0-1.63a6,6,0,0,0-.24-1.9c-.09,0-.15,2.87-.31,2.93a9.3,9.3,0,0,1-2.15-1.18c-.24-.23-.18-1-.27-1.45s.11-2.13-.08-2.1a16.73,16.73,0,0,0-.42,3.09,3.62,3.62,0,0,1-.6-.55,2,2,0,0,1,.08-1.52,1.74,1.74,0,0,0,.45-.73s-.35.2-.35.2.51-1.65.26-1.65-.69,2.07-.72,1.77-.16-.41-.17-.31-.11.69-.11.88a4.59,4.59,0,0,0-.2,1.19c0,.65.78,1.18,2.07,1.83s1.93,1.34,1.78,1.28a4.32,4.32,0,0,0-2.61-1,2.77,2.77,0,0,0,.37,1.89c.48.88,1.64.62,1.81.9s0,1.15,0,1.23,0,2.83,0,4a8,8,0,0,0,.81,3.13c.18.34,1.66,4,2.25,5.07s1.54,1.08,1.84,1.46a33.29,33.29,0,0,1,.86,5.34c0,.28.1,4.58.1,4.58a1,1,0,0,0-.33.77c0,.19,1,0,1,0s0-.39,0-.48.3-.13.3-.13a7.36,7.36,0,0,1-.17-1.07c-.09-.85,1.19-7,1.19-7,.25.65.32,3.28.44,3.34a31.8,31.8,0,0,1,1.07,5,1.51,1.51,0,0,0-.45.88c0,.3,1.13,0,1.05-.17s.08-.4.08-.47.31,0,.27-.12-.77-4.7-.53-5.65S23.94,31.9,24,32a28.2,28.2,0,0,0,3.62.19c1.22,0,3.44-.61,3.67-.54A18.84,18.84,0,0,1,33,36.24c0,1.31-2.67,5-2.8,5.06s-1,.09-.9.4c.2.51,1.56.41,1.56.31a2.1,2.1,0,0,1,.4-.63c.08-.07.32.11.47-.08.49-.67,4.17-5,4-5.33a14.58,14.58,0,0,1-.58-3.39,15.59,15.59,0,0,0,2.5,1.34c.81.18,3.56,2,3.48,2.52s.88,5.82.81,5.92-.59.92-.51,1a4.57,4.57,0,0,0,1.11,0c.14,0,.21-.59.27-.64s.4.24.33-.33S42.87,33.7,42.21,33.13Zm-20.52-22c.09.25-.2.53-.2.53s-.15-.84-.15-.84A.5.5,0,0,1,21.69,11.17Z"/></g></g></svg>