<svg xmlns="http://www.w3.org/2000/svg" viewBox="0 0 51.9 51.9"><defs><style>.cls-1{fill:#9c9;}.cls-2{fill:#183319;}</style></defs><title>donkey</title><g id="Layer_2" data-name="Layer 2"><g id="donkey"><circle class="cls-1" cx="25.95" cy="25.95" r="25.95"/><path class="cls-2" d="M45.16,24.82A19.87,19.87,0,0,0,45,21.65a5.38,5.38,0,0,0-3.58-3.76,6,6,0,0,0-4.75.44c-.89.43-4.46.79-6.34.94a17.6,17.6,0,0,1-4.75-.65,13.81,13.81,0,0,0-3.13-.38c-1.22.06-5.59-2.36-5.59-2.36a12.86,12.86,0,0,0,2.5-2.22c.48-.33,0-.39,0-.39a2.3,2.3,0,0,0-1.32.56,20.63,20.63,0,0,1-2.64.74,7.2,7.2,0,0,0-1.68.62c-.18.14-.52-.36-.9-.36s-.7.33-1,.36-.43-.08-.73-.23A19.28,19.28,0,0,0,8.4,13.72c-.31,0-.88-.7-1.06-.8s-.65-.69-.9-.44a.58.58,0,0,0-.17.74c.08.31.71.4,1.24,1.25a3.29,3.29,0,0,0,1.64,1.2c.24.13.09.31.5.56a.83.83,0,0,1,.47.66c0,.1-.41.3-.41.61s-.51.5-.66.69-.22.66-.12.75a1.56,1.56,0,0,1,.57,1.35A15.38,15.38,0,0,0,9.78,23a4.57,4.57,0,0,1-.47,1.7c-.19.55-.11,1.09.18,1.26s.28.41.54.76.54.29,1.26.22,1.2-1.29,1.19-1.69a1.35,1.35,0,0,1,.42-1c.24-.22.14-.71.37-.75.84-.24.89-.87,1.12-.87s1.4,1.21,2.06,1.51,1,.87,1.55,2.08,1,.63,1.28,1.12c.85,1.26,1.71,1.16,1.9,1.51a30,30,0,0,1,.73,5.43,2.32,2.32,0,0,0,.18,1.28,18,18,0,0,1-.13,2c0,.51-2.29,2.29-2.27,2.48s.67.11.88.1,0,0,0,.38-1,1.08-1,1.3a7.22,7.22,0,0,0,2.74-.14c.26-.15.18-.91.18-1.17s.89-.22,1.12-.63-.33-3.78,0-4.59A1.9,1.9,0,0,0,23.79,34c0-.21.19-3.87.22-4.21a.51.51,0,0,1,.53-.5c.26,0,3.36,2.41,6.94,2.53s5.27-2.66,6-2.91.7,0,1.48.36,1.74,5.11,1.79,6.37-.85,4.19-1.54,4.65-1.48,1.84-1.29,1.91a15.23,15.23,0,0,0,2,.09c.5,0,.82-.69.87-.67S42,41.49,42,41.47s1-.06,1-.32a6.56,6.56,0,0,1,.06-1c0-.29.45-.29.59-.54a2.59,2.59,0,0,0,.13-1.08c0-.29-.18-4.3-.2-4.63s.45-1.33-.09-1.67a6.38,6.38,0,0,1-1.33-2.13c-.18-.39,0-.63.29-1.47s1.83-4.25,1.83-4.25,0,.21,0,1a3.83,3.83,0,0,0,.59,1.95c.13.16.39,0,.8-.22S45.16,25.16,45.16,24.82Zm-2.72,10c.31.23,0,1.34-.2,2.89s-.56,1.94-.56,1.94A27.21,27.21,0,0,1,42.44,34.77Z"/></g></g></svg>