<svg xmlns="http://www.w3.org/2000/svg" viewBox="0 0 51.9 51.9"><defs><style>.cls-1{fill:#9c9;}.cls-2{fill:#183319;}</style></defs><title>eland</title><g id="Layer_2" data-name="Layer 2"><g id="eland"><circle class="cls-1" cx="25.95" cy="25.95" r="25.95"/><path class="cls-2" d="M16.76,19.6a5.71,5.71,0,0,0-4.11.51c-2,1-2.49,1.49-2.8,2.43a20.74,20.74,0,0,0-.56,3.4,7.72,7.72,0,0,1-.38,2.67c-.4.75-2.23.62-2.38.51a2.35,2.35,0,0,0,1.37.13,2.52,2.52,0,0,1-1.37,0,2,2,0,0,0,1.54,0s-.31.35-1.18.19a2.6,2.6,0,0,0,.65.12,1.86,1.86,0,0,1-1.11-.11.62.62,0,0,0,.38.2s-.29.06-.38,0,.38.14.57.19a5.37,5.37,0,0,1-.57,0,2.85,2.85,0,0,0,.73.18,3.36,3.36,0,0,1-.77,0A1.7,1.7,0,0,0,8.06,30a2.19,2.19,0,0,1-1.25.55,2.39,2.39,0,0,0,1.92-.84,7.14,7.14,0,0,0,.86-3c0-.35.19-3.21.91-3.75.22-.21,0,1.25.18,2s1.29,3.59,1.41,3.88a3.85,3.85,0,0,1,.4,1.74,7.34,7.34,0,0,1-1.65,3c-.3.31-.71,7-.74,7.43s0,.53.05.56.42,0,.49.17.34.41.35.62-.1.24.11.3a3.12,3.12,0,0,0,1.11.19c.25-.07.53-.13.55-.27s-.85-1-.93-1.13a1.37,1.37,0,0,1-.25-1c.06-.69.12-3.24.68-4.24a11.75,11.75,0,0,1,1.31-2,4,4,0,0,0-.23.79c0,.11.87,2.13,1.25,2.93S15.92,40.67,16,41s.25.76.43.76.54.35.69.67,1.67.4,1.73.25-.13-.45-.43-.79a13.75,13.75,0,0,1-1.65-2.38,12.64,12.64,0,0,1-.94-2.42A10.37,10.37,0,0,1,16,34.73a7.88,7.88,0,0,0,.63-2.2,6.87,6.87,0,0,1,.7-2.06c.08-.15.26-1.1.34-1.15s.1-.08.29,0a38.54,38.54,0,0,1,3.29,2.14c.14.22.58,0,.66-.23s.61-.16.89-.14.35-.13.47-.15a27.21,27.21,0,0,0,3.44-.46,7.92,7.92,0,0,1,3,.65,16,16,0,0,1-.14,2.24c0,.19,0,2.72,0,2.86a22.91,22.91,0,0,1-.58,3.4c-.27.71-.06.78-.06.78s-.23.34-.21.39.2-.11.24-.07-.05.24,0,.26.29-.08.32-.07.17.29.17.29-.35.25-.31.41a.84.84,0,0,0,.24.45A5.37,5.37,0,0,0,31.23,42c.13-.13-.35-.54-.36-.6a2.07,2.07,0,0,1-.48-1,9.85,9.85,0,0,1,0-2.22,7.56,7.56,0,0,1,.71-2,4.16,4.16,0,0,0,.25-1.13s.14.7.18.95a4.53,4.53,0,0,0,.35.75c0,.09.38,1.81.38,2.11a15.14,15.14,0,0,0,.14,1.76c0,.08,0,.65.06.71s.2-.12.23-.06,0,.25,0,.28.19-.06.21,0,.22.64.45.68,1.73.09,1.82-.11-.58-1-.62-1a5.39,5.39,0,0,1-.77-1,9.17,9.17,0,0,1-.5-1.71,5,5,0,0,1,.08-1.6,10.31,10.31,0,0,0-.18-2.56,9.34,9.34,0,0,1,0-2c.06-.18,1.81,0,2.3-.39a3.09,3.09,0,0,0,1.11-1.65c.19-.66,1.28-.75,1.62-1.05s.71-.62.68-1-.43-2.83-.34-3a5,5,0,0,0,1.23-2,10.42,10.42,0,0,0,.41-2.84,19.55,19.55,0,0,0,0-2.16,3.11,3.11,0,0,0-.32-.86c0-.09.35-.15.43-.72.09-.28.34.09.74-.82s.61-1,.43-1.21-1.11.51-1.15.53-.21-.22-.27-.22.22-.71.24-1.06.8-.81.82-1.22.76-3.51.55-3.53-.69,2.15-1.29,3.15c-.45.68-.83.62-1,.93a2.07,2.07,0,0,0-.23,1c0,.24-.53.69-.57.71s-.06-.08-.18-.07-.22.23-.4.25-.46-.19-.61-.18-.4-.24-.4-.28-.12-.7-.14-.89a2.49,2.49,0,0,0-.83-1,6.33,6.33,0,0,1-.91-2.57c0-.55-.26-.52-.26-.17a14,14,0,0,0,0,2.44c.14.27.37,1,.53,1a1.07,1.07,0,0,1,.35.68c0,.17.16.57.15.71s-.18.22-.09.44.38.14.49.27,0,.5,0,.54-.45-.45-.78-.72-1.25-.75-1.35-.65.47,1.18.56,1.28a3.08,3.08,0,0,1,.37.44c.07.13.41.23.46.28s.22.45.34.5-.55.38-.61,1.13c0,.42-1.58-.06-1.84-.19a4.63,4.63,0,0,0-.73-.32c-.26-.08-.48-.22-.64-.27s-.88,0-1.06-.05a1.09,1.09,0,0,0-.59-.08c-.37,0-.59-.09-1,0a9.21,9.21,0,0,0-1.56.5,18.64,18.64,0,0,1-3,1.52A33.76,33.76,0,0,1,16.76,19.6Z"/></g></g></svg>