<svg xmlns="http://www.w3.org/2000/svg" viewBox="0 0 51.9 51.9"><defs><style>.cls-1{fill:#9c9;}.cls-2{fill:#183319;}</style></defs><title>elk</title><g id="Layer_2" data-name="Layer 2"><g id="elk"><circle class="cls-1" cx="25.95" cy="25.95" r="25.95"/><path class="cls-2" d="M34.44,31a.23.23,0,0,0,0,.1Z"/><path class="cls-2" d="M39.77,27.18h0Z"/><path class="cls-2" d="M39.26,27.47a.19.19,0,0,0,0,.07Z"/><path class="cls-2" d="M43.55,22.11c1-.49,1.19-1,1.13-1.54s-.67-.68-.84-.72-3.23.15-3.28.09a1.22,1.22,0,0,0-.59-.17c-.22,0-.8.17-1,.14s-.69-.24-.65-.54,1.66-1.59,2.08-2.43-.38-3.21-.55-3.45-.51-.46-.39-.27A6,6,0,0,1,40,15.4a3.68,3.68,0,0,0-.84-1.56,6.75,6.75,0,0,0,.38,1.33c-.15-.39-1-1.64-1.1-1.55a17.92,17.92,0,0,1,1,2.56c.1,1-1.07,1.7-1.07,1.7a3.46,3.46,0,0,0-.09-1.94c-.2-.71-.6-1.43-.68-1.35s.54,1.92.47,2.47a4.22,4.22,0,0,1-1.19,2,1.47,1.47,0,0,1-.75-.15c.87-.55.61-2.49.37-3.25s-1.55-1.94-1.95-2.6-.85-1.63-.9-1.59-.05.1,0,.42A8.23,8.23,0,0,0,34.59,14,3.63,3.63,0,0,1,36,16.65c0,1.63-.88,2-.88,2s0-.57-.1-1.31a8.37,8.37,0,0,0-.62-2.13,4.63,4.63,0,0,0-1.18-1.59,11.06,11.06,0,0,0,.8,1.76c.22.48.85,2.64.37,3.2a6.48,6.48,0,0,1-4.91-4.37,10.68,10.68,0,0,0-1-2.8c-.31-.63-1.1-1.57-1.2-1.47a20,20,0,0,0,1,2.2,18.2,18.2,0,0,1,.64,2.61,9.18,9.18,0,0,0,.57,1.47c.18.51-.11.56-.11.56s-.72-1.55-.74-1.71a13.62,13.62,0,0,0-.33-1.35,12.68,12.68,0,0,0-2.16-3.31c-.26.24,1.34,2.72,1.5,3.17A4,4,0,0,1,27.9,15a10.23,10.23,0,0,0,.52,1.92,2.13,2.13,0,0,1-1.53-.58c-.21-.22-1.52-1.38-1.62-1.47a7.07,7.07,0,0,0-1.21-.62c-.3-.08-1.42-1.09-1.47-.94-.12.4,1.54,1.55,2,1.87a13.45,13.45,0,0,1,2.14,2.2c.06.18-.25.72-.35.63-.43-.36-3.22-3.57-3.27-3.52s.79,1.36,1,1.76,1.92,2.13,1.83,2.42c-.13.46-1.25,1-1.48,1a3.47,3.47,0,0,0-.66.05c0,.05.27.07.3.23s-.33.28-.33.28a5.72,5.72,0,0,0-2.34-1.16c0,.05,0,.24.55.48a5.84,5.84,0,0,1,1.33,1.06,5.06,5.06,0,0,0-.66,1c.07,0,.9-.7,1.05-.68s.18.39.19.46-.47.45-2.21.79-7.34-.6-7.65-.6-1.35.19-1.9.23A22.28,22.28,0,0,0,7.5,24.38c-.73.9.12,1.21.12,1.21-.32,1.24,1.06,3.46,1.52,3.91,1,.88.92,2.33.9,3.25s-1,1.8-1.11,2.22a1.64,1.64,0,0,0,.32,1.23c.19.32,1.41,5.3,1.41,5.3h1.51A18.28,18.28,0,0,1,11,37.91a3,3,0,0,1,.64-2.71A1.78,1.78,0,0,0,12,37.32c.31.33,2,4.2,2,4.2l1.55,0a32.9,32.9,0,0,1-1.72-4,11.85,11.85,0,0,1,.66-3c.28-.73.66-3.22,1.37-3a8.62,8.62,0,0,0,2.59.12c.94,0,1,.54,1.7.54a11.82,11.82,0,0,1,4,.64c.26.21.11,2.66.38,4.12a28.63,28.63,0,0,1,0,5h2.26c0-.33.09-6.72.14-7s.3-1.88.3-1.88a2.51,2.51,0,0,0,2-1.37,39,39,0,0,1,4.46-1.9c-.13.23.11.81.11.81-.09-.17.36-.82.36-.82A3.56,3.56,0,0,0,34.44,31a2.37,2.37,0,0,1,0-.76,5,5,0,0,0,.6.55,11.33,11.33,0,0,1-.09-1.42,9,9,0,0,0,.47.89c-.17-.45,1-1.82,1-1.82s.28.34.28.34a1.38,1.38,0,0,1,0-.64c0,.1.28.37.28.37-.09-.17,0-.43.14-.74s.51.21.51.21c-.09-.37.57-1.29.57-1.29s.19.72.19.72a6.48,6.48,0,0,1,.05-.83,7.45,7.45,0,0,0,.22.76,3.06,3.06,0,0,1,.2-1c0,.05.3.89.39,1.13a4.72,4.72,0,0,1,0-1.17,8.07,8.07,0,0,0,.5.88,8.46,8.46,0,0,1-.16-.88A3.73,3.73,0,0,0,40,27a8.68,8.68,0,0,1-.23-.84,7.91,7.91,0,0,0,.66.75,6.29,6.29,0,0,1,0-1.11c0,.16.55.59.55.59-.12-.18,0-.68,0-.68a1.75,1.75,0,0,0,.32.61,2.46,2.46,0,0,1,.25-1.49c.12,0,.16.36.16.36a3.23,3.23,0,0,1,2.07-1.63c.66-.18,1-.87.83-1.11S43.14,22.3,43.55,22.11ZM32.86,19.16c-2.17-.59-2.41-1.11-2.41-1.11A11.17,11.17,0,0,1,32.86,19.16Zm-4-1.18s.26.28-.38.59a4.32,4.32,0,0,1-1.5-.12A2.63,2.63,0,0,1,28.89,18Zm3.56,4.38a20.48,20.48,0,0,1-4.73-.45,8.3,8.3,0,0,0-2.48-.67,6.21,6.21,0,0,1,2.45-1.58,8.8,8.8,0,0,1,2.76-.16c.73.11,3.62.74,3.78.84s.28.35.25.42-.53-.08-.59.14.51.78.6.87S33.94,22.3,32.45,22.36Z"/><path class="cls-2" d="M40,27v0Z"/></g></g></svg>