<svg xmlns="http://www.w3.org/2000/svg" viewBox="0 0 51.9 51.9"><defs><style>.cls-1{fill:#9c9;}.cls-2{fill:#183319;}</style></defs><title>emu</title><g id="Layer_2" data-name="Layer 2"><g id="emu"><circle class="cls-1" cx="25.95" cy="25.95" r="25.95"/><path class="cls-2" d="M29.06,27l-.16.42c-.3-.09-.45.11-.61.33l.1-.54c-.28.09-.32.28-.35.49a8.52,8.52,0,0,0,.08,2.47c.05.4.11.8.14,1.19a1.28,1.28,0,0,1-.32,1,9.39,9.39,0,0,0-1.52,2.42c-.53,1.13-1.11,2.24-1.62,3.38a26,26,0,0,0-1.55,3.5,3.71,3.71,0,0,1-.41,1,.74.74,0,0,1-.47.28,13.21,13.21,0,0,1-2.74-.12,4.14,4.14,0,0,0-.89.15c0-.24-.21-.22-.41-.22s-.56,0-.85,0c0-.23.06-.38.39-.46s.82-.15,1.23-.21,1.07-.16,1.6-.24l.33-.06a.42.42,0,0,0,.23-.08c.22-.28.44-.56.64-.86s.6-.87.86-1.33c.36-.64.71-1.29,1-2s.62-1.36.94-2,.7-1.42,1-2.13A3.12,3.12,0,0,0,25.89,32c0-.16,0-.32,0-.47.05-.33.14-.67.17-1,0-.55.05-1.1,0-1.65a.82.82,0,0,0-.22-.49c-.16-.18-.39-.19-.62.08l.12-.48-.59-.37-.17.21-.22-.25c-.12,0-.24.13-.33.1a2.94,2.94,0,0,1-.49-.3.79.79,0,0,1-1-.67l-.16.2,0-.25-.35.19-.11-.28-.13.1-.06-.27-.17.29-.06,0,0-.27h0l-.08.29c-.08-.19-.1-.41-.37-.31L20.91,26l-.16.29-.23-.21v-.23l-.76-.06-.49-.57s-.06,0-.13.09l0-.32h-.05l-.08.29c-.27-.48-.35,0-.56.09l-.06-.25-.34.09-.49-.59-.06.31-.29-.41L16.9,25l0-.26-.14.05-.09-.5h-.09l-.12.46-.17-.39-.23.41-.28-.66-.14.1-.53-.16-.31.29-.34-.44-.15.18-.2-.09-.08.4-.21-.6-.1.26-.27-.31-.27.23-.39-.54-.24.26-.25-.26-.05.26L11.65,23l-.07.19-.47-.74-.08.21-.32-.57-.38,0a.87.87,0,0,0-.53-.66L9.9,21l-.07,0-.18.13c0-.15,0-.28-.06-.4a2.72,2.72,0,0,0-.16-.35l-.09.07c0-.12,0-.23,0-.34s0-.22,0-.34a2.3,2.3,0,0,1,0-.37c0-.11.12-.24-.09-.27,0,0,0-.09,0-.11a.59.59,0,0,0-.05-.64,6,6,0,0,0-.63-.89.19.19,0,0,0-.18,0A6.77,6.77,0,0,0,7,17.92c-.52.29-1,.67-1.48,1a.42.42,0,0,1-.17,0c0-.06-.06-.14,0-.19.2-.48.42-1,.64-1.43,0,0,0-.07.07-.11.18-.31.18-.36-.06-.58.25-.19.24-.26-.07-.65l.85-.71a.46.46,0,0,0,.11-.16c.15-.25.33-.46.67-.37h0a3.24,3.24,0,0,0,.49-.49c.08-.13.05-.37.31-.17,0,0,.1,0,.15-.09l.12.18,0-.06c.21.08.48,0,.55.38,0,0,.17.11.26.21.25.3.52.58.79.86a.8.8,0,0,0,.18.13c.15.31.28.58.42.84,0,0,.07,0,.06.05a3.08,3.08,0,0,0,.26.91,6.25,6.25,0,0,0,.35,1,1.11,1.11,0,0,0,.43.65.3.3,0,0,1,.12.17c.06.22.23.26.42.3s.11.1.17.14l.8.41a.34.34,0,0,0,.22,0c.18-.09.42.06.56-.17,0,0,.12,0,.2.05l-.12.29.53-.06,0,.2.63-.33.16.37.65-.29v.28c.28-.16.52-.29.74-.43.39-.25.77-.5,1.14-.76a2.94,2.94,0,0,0,.56-.49,6.25,6.25,0,0,1,1.61-1.33c.24-.15.45-.35.69-.51.47-.31,1-.57,1.41-.9A14.6,14.6,0,0,1,26.79,14c.68-.23,1.34-.49,2-.7a16.28,16.28,0,0,1,2.08-.54,6.81,6.81,0,0,1,3.55.23,10.65,10.65,0,0,0,1.11.29,5,5,0,0,1,1.76.88c.25.17.52.3.77.46a6,6,0,0,1,.73.46,4.16,4.16,0,0,0,1.26.76c.05,0,.12,0,.14.09.19.51.74.59,1.09.91a12.88,12.88,0,0,1,1.06,1,2.43,2.43,0,0,0,.28.4c.18.18.39.33.57.52a3.43,3.43,0,0,1,.43.5c.15.2.29.42.43.63s.15.14.16.23a2.41,2.41,0,0,0,.7,1.07c.14.16.33.28.48.44a.84.84,0,0,1,.13.25l-.21.11-.15-.28c0,.06-.06.09,0,.1.27.56.24,1.23.67,1.72.07.08.22.23,0,.33.07.37-.27.8.19,1.11a1,1,0,0,1,.36.4,3.08,3.08,0,0,1,.17.68,2.87,2.87,0,0,1-.06,1c0,.07,0,.16,0,.23l-.36.27.25.29-.31.17.09.27c-.22.07-.58-.51-.67,0a5.18,5.18,0,0,0-1,1.27l-.38-.62-.53.95c-.19-.21-.42-.12-.59.16l-.42-.34-.24.19-.16-.61,0,.28a3.13,3.13,0,0,1-.43,0,1.56,1.56,0,0,1-.33-.14l0,.28c-.1-.35-.47-.46-.35-.85l-.16.1-.07-.22-.21.27-.23-.15-.14.21,0-.26-.34.11,0,.18H39.7l-.12-.39-.64,0a1.62,1.62,0,0,1,.06-.17c.07-.18.27-.34.08-.57,0-.05.06-.21.11-.33l-.14,0,.24-.51-.09,0-.24.27-.1-.19c-.1,0,0,.38-.26.07l-.12.3-.2-.21-.21.2.12-.55,0,0-.21.21c.13-.37.4-.63.23-1l-.12.22,0-.27-.3-.09-.07-.87h-.11l-.32.69-.09-.28h-.05l-.09.55-.38-.74a.71.71,0,0,0-.12.68,1.72,1.72,0,0,1-.06.74L36,26l-.11.79-.13-.19a0,0,0,0,0,0,0,2.5,2.5,0,0,0,.11.49,5.52,5.52,0,0,0,1.38,2.14s.12.08.11.12c0,.31.26.46.33.7a3.13,3.13,0,0,1,.21,1,12.2,12.2,0,0,0,.62,3.84c.36,1.37.7,2.74,1.07,4.11.11.42.3.82.4,1.24a7.39,7.39,0,0,0,.75,1.7c.18.34,0,.63-.2.91-.06.08-.14.15-.19.23a.82.82,0,0,1-1.15.4.75.75,0,0,0-.55,0,6.41,6.41,0,0,1-.88.11,4.52,4.52,0,0,1-.52,0l-.55,0c-.22,0-.49-.18-.52.33l-.19-.4-.25.11a1.47,1.47,0,0,1,0-.29.64.64,0,0,1,.6-.49c.16,0,.32,0,.48,0a2.7,2.7,0,0,0,1.74-.46.43.43,0,0,0,.14-.21,1,1,0,0,0,.09-.29,2.94,2.94,0,0,0,0-.51c0-.33,0-.66,0-1a10.25,10.25,0,0,0-.54-2.56c-.44-1.5-.93-3-1.41-4.48A5.53,5.53,0,0,0,36,32a5.06,5.06,0,0,1-.36-.74.29.29,0,0,1,0-.09c.23-.59-.13-1.06-.36-1.53a10.36,10.36,0,0,0-1.72-2.44.31.31,0,0,0-.49,0c-.08.08-.23.09-.36.13l0-.2-.25.07-.09-.25-.17.1c0-.09,0-.17,0-.21s0-.4-.31-.27c0,0-.13-.1-.22-.17l0,.29-.42-.06,0,.56L30.91,27l-.64.94-.09-.55h0l-.12.51-.23-.38-.3.43v-.51h0l-.08.3-.25,0V27Z"/></g></g></svg>