<svg xmlns="http://www.w3.org/2000/svg" viewBox="0 0 51.9 51.9"><defs><style>.cls-1{fill:#9c9;}.cls-2{fill:#183319;}</style></defs><title>exoticbird</title><g id="Layer_2" data-name="Layer 2"><g id="exotic_bird" data-name="exotic bird"><circle class="cls-1" cx="25.95" cy="25.95" r="25.95"/><path class="cls-2" d="M18.76,25s-1.45-3.32-4.46-2.49-2.43,4-2.43,4a2.36,2.36,0,0,0,1.71,2.75s-.73-.88-.47-1.24.47-.63.47-.63a5.7,5.7,0,0,1-.07,1,1,1,0,0,0,.93.09,11.94,11.94,0,0,1,1.1,2.17c.22.76,1.17,1.17,1.85,2A8.28,8.28,0,0,1,18.34,34a2.54,2.54,0,0,1,0-.71s.49,1,.65,1.36c0,0-.13-.8-.13-.89s3.16,2.58,6.24,2.32c0,0,7.3,9.76,9.06,9.19.5-.17-4.29-4.87-4.88-6.2,0,0,6.4,6.38,7.63,5.59.39-.26-4.57-3.94-5-4.89,0,0,6.74,4.53,7.58,3.81.55-.48-5.22-3.58-6.13-5,0,0,5.87,3.92,6.7,3.25.37-.46-6.09-4.38-6.61-5.09,0,0,5.28,2.4,5.57,1.56.15-.5-7.68-3.32-9-5.14-.3-.37,0-.65-.17-1s-2.21-2-2.08-2.08a1.77,1.77,0,0,0,.49-.76c0-.11.58-.12.53-1,0,0,.85,0,.8-1.63,0,0,.91.17.61-1a1.77,1.77,0,0,0,.08-1.58s.69-.13.36-1.43a1.39,1.39,0,0,0,.63-1.85s1.13-1.6.41-1.85c0,0,.75-1.24.36-1.95,0,0,.58-1.52.2-1.91,0,0,.74-3-.07-2.06A5.49,5.49,0,0,0,32.37,11s-.59,1.21-.77,1.15.64-3.47.5-3.71l-.25.39a14.21,14.21,0,0,0,0-1.43l-.2.3s-.05-1-.27-1.11c0,0,.92,5.4-5.25,13a8.83,8.83,0,0,0,.2-2,28.56,28.56,0,0,1-1.84,4s.21-1.68-.83-1.55c0,0,.64-1.43-.8-1.73,0,0,.18-1.5-1-1.76,0,0,.09-1.48-.93-1.48,0,0-.2-1.44-1.37-1.61a1.78,1.78,0,0,0-1.11-1.79l-.08.39s-.63-1.73-1.28-1.84c0,0,.4,1.25.09,1.33,0,0-1.57-3-2-3.12l.06.4a7.7,7.7,0,0,0-.94-1h.11l.09.43s-.94-.66-1.05-.57,3.12,3.12,3.8,6.7,1,6.42,1,6.42-1-1.62-1.17-1.62A26.1,26.1,0,0,1,18.76,25Z"/></g></g></svg>