<svg xmlns="http://www.w3.org/2000/svg" viewBox="0 0 51.9 51.9"><defs><style>.cls-1{fill:#9c9;}.cls-2{fill:#183319;}</style></defs><title>fallowdeer</title><g id="Layer_2" data-name="Layer 2"><g id="fallow_deer" data-name="fallow deer"><circle class="cls-1" cx="25.95" cy="25.95" r="25.95"/><path class="cls-2" d="M43.64,22.43c0-.57-1.2-1.14-1.58-1.43A4.48,4.48,0,0,1,41,19.72c0-.22-.62-.81-.87-1.06a4.78,4.78,0,0,1-.57-.92s1.68-.51,1.9-1.14.3-.65.16-1.14a1.5,1.5,0,0,1-.84,1.28,4.93,4.93,0,0,1-1.87.48c-.08,0,.76-.92.76-1.19s.57-.51.6-1a4.42,4.42,0,0,1-.65.47s.21-.76-.22-1c0,0,.11,1.14-.19,1.27s-.9.25-1-.24a51.47,51.47,0,0,1,.41-6.86c.08-.44-.44.13-.6.19s-.33-.36-.6,0-.08.67-.21,1a17.7,17.7,0,0,0,0,1.78c-.07.23-.49.34-.78.28s-.1.24.1.41a.49.49,0,0,1,.05.62c-.1.08-.38.23-.93,0s-.46.13-.51.23-.37.3-.25.35.48-.11.87.09a4.33,4.33,0,0,1,1.56,1.48,6.54,6.54,0,0,0,.47.9,1,1,0,0,1,.2.65c0,.32.21.55-.07.65a2,2,0,0,1-1-.13,6.48,6.48,0,0,1-1.33-.21c-.25-.15-.65-.45-.67-.8s.62-1.12.61-1.32-.16-.15-.32.1-.57,1-.93,1a2.68,2.68,0,0,1-1.39-1.56c0-.58,0-1.76-.07-2s0-1.71,0-1.88-.07-.86,0-1a3.43,3.43,0,0,0,.17-.89c0-.21-.26-.37-.44-.26s-.53.52-.75.52-.86-.23-1.2.13a1.83,1.83,0,0,0-.45,1.39c.1.27.82,1.43.92,1.62s.9,1.34.37,1.7-1.16-2-1.53-2.15-.5-.2-.5.1.54,1.38.53,1.61-.45.56-.4.7.36,0,.5,0a12.17,12.17,0,0,1,1.35.9c.15.11.93.56,1.44.93a13.83,13.83,0,0,1,1.94,1.49s-.43-.23-.48.06a2.11,2.11,0,0,0,.15,1.23c.21.37.57,1,.83,1.07s.47,0,.46.19-2,3.78-3.16,3.85a4.55,4.55,0,0,1-2.37-.35A17.19,17.19,0,0,0,27,22.65c-.51,0-3.74.27-4.66.22a11,11,0,0,0-2.83,0c-1.33.19-2.57-.3-3.77-.22s-3.2,0-4.39,1.28a3.09,3.09,0,0,0-1.11,2.6c0,.6.08,2.55-.41,2.88s-1.52-.17-1.52-.17.24.9,1.06.76,1.47-.5,1.47-.7l.62,1.14s-1.25-.17-1.47.13a9.93,9.93,0,0,0,0,2.53s-.84.43-1,.84.68,5,.68,5.18-.87,1.49-.6,2l.82-.68s.21,2.09.21,2.09a7.06,7.06,0,0,0,1.55.49c.49,0,.43-.19.49-.3s-.76-.87-.93-1.36a8.08,8.08,0,0,1-.21-1.52s.87-.81.87-1.16-.55-3.1-.44-3.42,3.66-1.82,3.83-2a3.16,3.16,0,0,0,.27-.41c.11-.16,2.28.17,2.55-.32A4,4,0,0,1,19.08,34c.14.68.44-.32-.08-1.65a16.39,16.39,0,0,0,2.2.54,9.43,9.43,0,0,0,3.42.52c1.79-.19,1.71.11,1.71.11s-.06,3.25,0,3.69a33.68,33.68,0,0,1,.16,3.39A5.23,5.23,0,0,0,25.65,42c0,.22.89-.13.89-.13A4.89,4.89,0,0,0,26.73,43a1.85,1.85,0,0,0,1,.65c.32,0,.27-.52.1-.73a6.11,6.11,0,0,1-.38-1.22s1.09-.11,1.33-.41,1.9-3.49,2.42-3.69.7-1,.59-1.56a14.24,14.24,0,0,0-2-2.65c-.08-.08,1.17-.08,1.52-.67a38.59,38.59,0,0,1,3.18-3.21,19.72,19.72,0,0,0,2.76-3c.79-1.2,1.2-1.22,1.28-1.44a5.15,5.15,0,0,0,0-1.11c0-.25,0-.63.22-.6a10.93,10.93,0,0,0,2.76-.15c.28-.2.93.3,1.33.15s.22-.38.22-.38A.58.58,0,0,0,43.64,22.43ZM30.41,36.24c.08.42-.55,1.95-2.34,3.67-.7.78-.62.8-.78.62a6.07,6.07,0,0,1,.16-2.21,10.93,10.93,0,0,0,.62-3.45C28,34.55,30.33,35.83,30.41,36.24Zm6-18.11c0-.06-.72-.24-.58-.37.44-.45,1.27.37,1.27.37A3.08,3.08,0,0,0,36.44,18.13Z"/></g></g></svg>