<svg xmlns="http://www.w3.org/2000/svg" viewBox="0 0 51.9 51.9"><defs><style>.cls-1{fill:#9c9;}.cls-2{fill:#183319;}</style></defs><title>fawn</title><g id="Layer_2" data-name="Layer 2"><g id="fawn"><circle class="cls-1" cx="25.95" cy="25.95" r="25.95"/><path class="cls-2" d="M42.94,40.26c-.2-.46-.73-3.18-.88-3.48a25.58,25.58,0,0,1-.21-2.94c-.05-.36-.57-.51-.58-.94a4.77,4.77,0,0,0-.52-2.64c-.18-.2-2.55-1.56-2.7-1.69s.18-.25.35-1.31a35,35,0,0,0-.55-7,9.76,9.76,0,0,0-4.38-1.89,64.73,64.73,0,0,0-7.18.56c-3,.25-6.22-.53-7-.43a3.59,3.59,0,0,1-2.12-.76c-.63-.35-.6-2.89-.55-3.19s.3-1.21.38-1.47a2.65,2.65,0,0,1,1.36-1.08c.78-.35,2.59-3,1.69-3.5s-1.92.68-2.42.93-.78,1.69-1.06,1.69-.57-.36-1.31-.36A6.71,6.71,0,0,0,14,11c-.36,0-.08-.34-.69-1.33S10.88,8,10.69,8.22a2.69,2.69,0,0,0,0,2.15,4.34,4.34,0,0,0,2.05,2,4.27,4.27,0,0,1,.8,1.08,6.33,6.33,0,0,1,.17,2.13c-.06,1.19-.45,4.23-.42,4.78s.8,1.55.8,3.07a3.07,3.07,0,0,0,1.58,3,3.21,3.21,0,0,1,1.49,1.91c0,.28-.25,2.88-.25,3.07a27.56,27.56,0,0,0-1.19,3.07c0,.5-.19,2.16-.19,2.57a33,33,0,0,1-1.33,4.29C14,41.55,12.79,43,12.93,43a4.9,4.9,0,0,0,1.44,0,2,2,0,0,0,.58-1c0-.22.66-.39.72-.5s1-4.87,1.33-6.08a10.9,10.9,0,0,1,1.55-2.91,11.65,11.65,0,0,0,.55,3,39,39,0,0,1,.22,5.48,1.14,1.14,0,0,1-.61,1.08c-.47.3-.52.88-.33.91a5.35,5.35,0,0,0,1.44-.14c.27-.11.55-1,.66-1.22s.47-.3.44-.63-.77-4.51-.74-5.84a68.25,68.25,0,0,1,1.24-7.3c.11-.22,2.19-.08,4.73-.11s3.9-1.05,4.48-.75a12.77,12.77,0,0,1,2,2.33c.2.22-.11,1.05.28,2s2,.72,2.19,2.54-2,5.17-1.91,5.64-.36,2.69-.14,2.91,1-.11,1.27-.28,0-1,.17-1.13.36.08.27-.8.63-2.21.66-2.74,2-5.46,2-5.76a1.09,1.09,0,0,0-.36-.63,3.37,3.37,0,0,1,1.39.83,9.45,9.45,0,0,1,2.34,4.61c.18.55.53,3.45.63,4.4s-.68,2.57-.55,2.72,1.16-.07,1.53-.33-.1-1.48.33-1.66S43.14,40.71,42.94,40.26Zm-6.2-13.07c-.77-.88,0-2.41,0-2.41a14,14,0,0,0,.31,2.83Z"/></g></g></svg>