<svg xmlns="http://www.w3.org/2000/svg" viewBox="0 0 51.9 51.9"><defs><style>.cls-1{fill:#9c9;}.cls-2{fill:#183319;}</style></defs><title>fish</title><g id="Layer_2" data-name="Layer 2"><g id="fish"><circle class="cls-1" cx="25.95" cy="25.95" r="25.95"/><path class="cls-2" d="M20.67,38.14a10.75,10.75,0,0,0,5.64,3.38v.19a5.84,5.84,0,0,1-1.36.15A12.13,12.13,0,0,1,17,37.79a3.75,3.75,0,0,0-1.6-.67,12.68,12.68,0,0,1-5.15-2.56,34.93,34.93,0,0,0-3.72-2.69,1.21,1.21,0,0,1-.46-.55A3.17,3.17,0,0,1,7.5,28a1.12,1.12,0,0,0,.35-.49c.82-1.76,1.67-3.51,2.44-5.29,2.31-5.39,6.47-8.67,11.9-10.54a34.62,34.62,0,0,1,13.89-1.52c1.71.13,3.39.54,5.08.83a5.74,5.74,0,0,1,.79.25c-.5.75-1.23.54-1.82.67s-1.25.2-2.1.32c2.76,3.21,2.26,6.71,1.36,10.28a2.18,2.18,0,0,0,2.19-.59,16.61,16.61,0,0,0,1.28-1.6c.57-.72,1.12-1.45,1.7-2.15a2.38,2.38,0,0,1,.51-.37c-.2,1.75-.49,3.44-.56,5.13s0,3.44,1.4,4.94a2.78,2.78,0,0,1-.94.28c-.7-.08-1.38-.29-2.08-.41a17.11,17.11,0,0,0-2-.23c-.15,0-.46.26-.46.41,0,1.68-1,2.77-2.17,3.81-.1.09-.22.16-.39.3a2,2,0,0,1,1.25,1.67,9.21,9.21,0,0,1-.26,2.14,2.56,2.56,0,0,1-.24.57c-.34.9-.22,1.27.71,2-.63-.16-1.16-.29-1.69-.44-1.59-.44-3.12.07-4.69.19s-3.18.06-4.78.09a.45.45,0,0,1-.2,0c-1.35-.76-2.75-.5-4.18-.26C22.78,38.07,21.77,38.06,20.67,38.14Z"/></g></g></svg>