<svg xmlns="http://www.w3.org/2000/svg" viewBox="0 0 51.9 51.9"><defs><style>.cls-1{fill:#9c9;}.cls-2{fill:#183319;}</style></defs><title>gemsbok</title><g id="Layer_2" data-name="Layer 2"><g id="gemsbok"><circle class="cls-1" cx="25.95" cy="25.95" r="25.95"/><path class="cls-2" d="M15.15,16.34c.24,0,1.46-1.12,2.53-3.09S20.81,6.93,21.1,7,18.55,13.33,17,16.34a.66.66,0,0,0,.5,1.07c.14-.06.57-2.2,1.78-1.53s0,1.93-.35,2.09a4,4,0,0,0,1.66.52,19.79,19.79,0,0,1,2.93.24,34.05,34.05,0,0,1,3.83,2.56c.57.41,3.81.43,4.91.19a8.37,8.37,0,0,1,3.4-.24,13.33,13.33,0,0,1,4.78,3.32c.75,1.16.89,4.26,1,5.2a31.54,31.54,0,0,1,0,7c-.17,1.54-.22,1.32-.22,1.32a12.86,12.86,0,0,1-.3-1.27,7.67,7.67,0,0,0-.48,1.28s-.87-5.57-.78-6.16a22.21,22.21,0,0,0,.29-2.21c0-.33-1.08,1.72-1,2.4s.59,3.43.76,4.24a24.52,24.52,0,0,1,.4,5.93,3.9,3.9,0,0,1-.84,2.27,1.68,1.68,0,0,1-1.8.21c-.09-.18,1.18-1.21,1.18-2.1s-.11-4.64-.64-5.75-1.17-2.32-1.19-2.43-.6,5.43-1.89,8a3.39,3.39,0,0,1-.88,1.2,7.25,7.25,0,0,1-2.22.13c-.06-.16,1.83-1.76,2.18-2.35S34,32.76,33.41,32s-3,1.37-5.53,1.18-4.86-.94-5.13-.75-.38,8.2-.38,8.61.3,2.07.22,2.18a17.46,17.46,0,0,1-2.65.14c-.16,0-.21-.62-.1-.87s1.08-1,1.05-1.62-.68-5.36-.68-5.9-.05-2.65-.43-3.08a18.65,18.65,0,0,1-3.72-3.56C14,25.74,14.14,24,14.14,24a1.65,1.65,0,0,1-1.32-1.32c-.27-1.19.38-1.59.43-2s.08-2.27-.38-2.62-2-.61-2.15-.94a2.67,2.67,0,0,1-.27-2.26s.94-.61,2.15,1c.87,1.23,1,.93,1,.93S13,10,13,8.37,13.2,6.9,13.31,7s.1,1.06.35,3.16S14.55,16.27,15.15,16.34Z"/></g></g></svg>