<svg xmlns="http://www.w3.org/2000/svg" viewBox="0 0 51.9 51.9"><defs><style>.cls-1{fill:#9c9;}.cls-2{fill:#183319;}</style></defs><title>giraffe</title><g id="Layer_2" data-name="Layer 2"><g id="giraffe"><circle class="cls-1" cx="25.95" cy="25.95" r="25.95"/><path class="cls-2" d="M13.08,7.18c.1,0,.34,0,.27.47s0,.62.11.62.2-.57.16-.76.1-.28.29-.28.3,0,.27.25a3.94,3.94,0,0,0,0,.79.47.47,0,0,0,.37.28c.13,0,.13-.27.14-.43s.25-.55.37-.53.12.17.12.47.22.38.22.55a6.78,6.78,0,0,0,0,.73s6.2,5.78,6.71,6.12,3.17,2.75,4.48,3.08,2.56,2.58,3.47,3.09A11.44,11.44,0,0,0,34,23.32c2,.42,3.08,3.37,3.3,4.14A10.44,10.44,0,0,1,37.53,31,4.56,4.56,0,0,0,38,33.63s.66,0,.75.64-.24,1.06-.21,1.41A6.7,6.7,0,0,1,38.72,37a12.47,12.47,0,0,0,.14,2.2,17.7,17.7,0,0,1-.49-1.93,10.29,10.29,0,0,0,.13,1.31,10,10,0,0,1-.3-1.2A11.49,11.49,0,0,0,38.86,40c.38.68.64,1.08.64,1.08a3.35,3.35,0,0,1-1-1.35c-.29-.81-.45-1.58-.49-1.7a5.81,5.81,0,0,1-.22-.81c0-.08,0-1.64-.06-2s-.52-1.32-.13-1.71a9.36,9.36,0,0,1-.37-2.43A9.75,9.75,0,0,0,36.81,28a2.2,2.2,0,0,0-.49-.93,3,3,0,0,0-.18.62c0,.16-.13,2.55-.11,2.9s.18,2,.23,2.18,1.18,2,1.18,2a3.78,3.78,0,0,1,.18,1.43,3.75,3.75,0,0,0,.12,1.58,35.23,35.23,0,0,0,.82,3.76c.33.74.63,1.41.7,1.63a2.51,2.51,0,0,1,0,.95,1.72,1.72,0,0,0,0,.7s.33.37.33.55-.67.29-1.07.29-1-.1-1-.21A1.91,1.91,0,0,1,38,44.8c.11-.06.2-.4.2-.52a11.13,11.13,0,0,0-.24-1.7c-.12-.28-.44-1.34-.45-1.42s-.79-3.15-.82-3.28a17.73,17.73,0,0,0-.06,3c.08,1.21.29,3.1.21,3.31s-.32.35-.32.42a2.35,2.35,0,0,0,0,.59,4,4,0,0,1,.29.3s-.24.23-1.06.23-1.29,0-1.29-.1a2.27,2.27,0,0,1,.86-.74c.31-.13.39-2.3.37-2.91s-.16-3.51-.19-3.83a25,25,0,0,0-1.36-4.24,11.64,11.64,0,0,0-1.17-2,7.48,7.48,0,0,1-1.16-2.41,7.87,7.87,0,0,1-2.34.77c-.48-.11-.12-.45-.25-.44s-2.63-.42-2.87-.43-.3,0-.3.21.18,5.73.2,6.1A10.81,10.81,0,0,1,26,37.08c0,.08-.23,2.51-.2,3.62s.11,2.43.11,2.56-.44.58-.44.71a.77.77,0,0,0,.23.87c.45.45-1.77.42-1.82.17s.54-.83.62-1.18.19-1.31.3-1.56.15-5.31.12-5.41a1.74,1.74,0,0,1-.36-.94,4.4,4.4,0,0,1-.2,1.36c-.19.43-.6,3.78-.65,4.24s0,1.53-.05,1.66-.41.37-.38.63a1.49,1.49,0,0,0,.36.66c.12.14-.1.45-.32.46s-1.3.15-1.46-.06.52-1,.52-1.19a9.9,9.9,0,0,1,.26-1.85,49.39,49.39,0,0,0,.77-5,2.13,2.13,0,0,1-.15-1c.07-.31.37-4.09.32-4.3s-.29-2.24-.29-2.34a3,3,0,0,0-.26-1.25A8.41,8.41,0,0,1,22.14,25a4.5,4.5,0,0,1,1-1.73c.33-.3-.4-1-.75-1.71s-3-4.14-4.17-5.76-3.08-4.34-3.58-4.34-1.67,1.13-2.46.83c-.25,0-.1.39-.58.62-.22.12-.26,0-.37,0s-.24.24-.47.21-.14-.89.13-1.36.41-.49.44-.6-.08-.36.75-1.06c.23-.24,0-.35,0-.46s.15-.35.11-.44-.49-.94-.5-1S11.71,8,11.91,8a2.88,2.88,0,0,1,.83.27c.06.05,0-.64,0-.7S12.63,7.2,13.08,7.18Z"/></g></g></svg>