<svg xmlns="http://www.w3.org/2000/svg" viewBox="0 0 51.9 51.9"><defs><style>.cls-1{fill:#9c9;}.cls-2{fill:#183319;}</style></defs><title>girbrahman</title><g id="Layer_2" data-name="Layer 2"><g id="girbrahman"><circle class="cls-1" cx="25.95" cy="25.95" r="25.95"/><path class="cls-2" d="M12,13.57a8.3,8.3,0,0,1,1.6.27,1.56,1.56,0,0,1,1,.33c.35.27,3.49-2,3.82-1.89s-.21.92-.13,1a2,2,0,0,1,1.65.51A18.49,18.49,0,0,1,22.87,17a2.22,2.22,0,0,0,1.11.85c.27,0,2.29-.14,2.85-.14a11.28,11.28,0,0,0,3.23-.4c1.53-.41,2.33-.24,2.78-.41a10,10,0,0,1,3.47-.6c1.87,0,1.93.29,2.72.25a5,5,0,0,1,3,1,9.9,9.9,0,0,1,2.61,4.62,11.79,11.79,0,0,1-.16,5.6c-.58,2.81.16,3.65.53,4.11s-.16.74-.14,1,.6,5.8.66,6.17-1.09.47-1.36,0-.62-2.9-1.18-3.76a4.86,4.86,0,0,1-.86-1.7c0-.29-.72-.54-.76-.92a4.3,4.3,0,0,0-.68-2,3.05,3.05,0,0,0-1.36-.72,10.77,10.77,0,0,0,.35,2.71,2.42,2.42,0,0,1-.35,1.7c-.33.55-1.47,4.39-1.59,4.55a2.43,2.43,0,0,1-1.57.17,1.46,1.46,0,0,1-.16-.91,11.09,11.09,0,0,0,.76-2.06,10.82,10.82,0,0,0-.37-3.3,15.12,15.12,0,0,1-.52-1.91A16.38,16.38,0,0,0,32,34.16c-1.38,1.8-1.49,2.09-1.79,2s-.62-.82-.56-1.75c0-.45-.68.17-1-.08s-1.13-2.27-3.28-2.5-2.57.25-2.57.35a23.82,23.82,0,0,1,.8,3.09,11.14,11.14,0,0,0,1.55,3.28c.08.23,0,.93-.37.95s-1,0-1.18-.25-1.22-3.17-1.44-3.29a9.71,9.71,0,0,1-.87-.69,20.17,20.17,0,0,1-1,2,9.84,9.84,0,0,0-.14,2.47c0,.06-1.13.62-1.4-.23s.2-2.06.12-2.43-.41-1.31-.41-1.58S17.35,36.17,16,35c-.77-.66-.81-.77-.81-1s-.22-.31-.35-.39a.78.78,0,0,1-.37-.89s-.43-.16-.43-.37c0,0-.46.1-.6,0a53.13,53.13,0,0,1-1.05-6.47.87.87,0,0,1-.76-.54,37.14,37.14,0,0,1-1.36-3.69c-.23-1-.31-3.1-.48-3.37s-.75.38-.89.53-2.47.58-2.57,0a3.34,3.34,0,0,1,1.9-2.38c.82-.22.8,0,.9-.12a.86.86,0,0,0,.27-.49.36.36,0,0,0-.31-.35c-.19,0-3-1.12-2.08-3.3.27-.68.62.29.68.39s1.07,1.65,2,1.55a1.87,1.87,0,0,1,1-.29C11.27,13.78,11.49,13.57,12,13.57Z"/></g></g></svg>