<svg xmlns="http://www.w3.org/2000/svg" viewBox="0 0 51.9 51.9"><defs><style>.cls-1{fill:#9c9;}.cls-2{fill:#183319;}</style></defs><title>goat</title><g id="Layer_2" data-name="Layer 2"><g id="goat"><circle class="cls-1" cx="25.95" cy="25.95" r="25.95"/><path class="cls-2" d="M11.2,16.17a5.91,5.91,0,0,1,1.05,0c.27.06,1.47-2.51,3.11-2.66s1.44.57,1.29.63a3.47,3.47,0,0,0-2.49,1.65c-.45.8-.57,1.07-.57,1.07s.66.87.87.93a4.11,4.11,0,0,1,1.16.95A2.13,2.13,0,0,0,17,19.2a32.27,32.27,0,0,1,3.38-1.05c1.08-.14,3.95.46,4.51.37s1.59-.06,1.77-.12,4.28-1.31,5-1.42,3.08-.66,4-.75a4.69,4.69,0,0,1,2,.15c.24.13,2.54,2,3.14,1.93s2.12-1.5,2.75-1.73c1.76-.74,3.56,2.79,3.27,3.15S44.31,18.07,44,18.1s-1.65,1.26-1.65,1.64-.06,2-.1,2.58-.93,2.65-.93,3-.18,3.72.29,4.34a17.17,17.17,0,0,1,1.88,3c0,.36.29,5.92.2,6s-.62.15-.57.8.18,1.74-.15,2a4,4,0,0,1-2.39.47c-.54-.24-.06-.45-.09-.57s-.27.15-.3-.06,1.26-1.52,1.38-2.18.61-6.1-1.66-7.06a2.89,2.89,0,0,1,.2,1.68c-.21.77.89,4.25-.6,5.11-.69.42.38,1.54-.16,2a3.35,3.35,0,0,1-2.24.3c-.12-.15,1-1.67,1-1.91s.76-6.79-1.12-8.23c-.84-.54-.93,2.72-7.16,2.74a8.47,8.47,0,0,1-5.67-1.89c-.33-.09-1.14-.06-1.23.17s0,2.49-.75,3.83-.76,5.25-.88,6.14-.06,2-.84,2.08c-4.77.42-2.87-1.38-2.93-1.56a24.79,24.79,0,0,1,1.68-2.33,8.91,8.91,0,0,0,.33-3.55,6.06,6.06,0,0,1,.19-2.28A6.89,6.89,0,0,0,19.28,32c-.21-.24-1,.09-2.18-1.56a13,13,0,0,1-1.37-2.5c-.33-.46-3-4.27-3.2-4.33a5.28,5.28,0,0,0-1.88,1,2.9,2.9,0,0,1-1.77.68c-.62,0-1-.87-1.1-1.05a2.74,2.74,0,0,1,.42-1.61,2.3,2.3,0,0,0,.42-1.85,2.91,2.91,0,0,1,0-1.44c.06-.18-.47-.63-.32-1a4.7,4.7,0,0,1-2.6-.75c-.84-.75-.66-.69-.51-.75a10.38,10.38,0,0,0,2-.08,5.11,5.11,0,0,1,1.89.06c.24,0,.89-.12,1-.3s1-3.14,1.06-3.5.69-.74.71.19A13.57,13.57,0,0,1,11.2,16.17Z"/></g></g></svg>