<svg xmlns="http://www.w3.org/2000/svg" viewBox="0 0 51.9 51.9"><defs><style>.cls-1{fill:#9c9;}.cls-2{fill:#183319;}</style></defs><title>highlandcattle</title><g id="Layer_2" data-name="Layer 2"><g id="highland_cattle" data-name="highland cattle"><circle class="cls-1" cx="25.95" cy="25.95" r="25.95"/><path class="cls-2" d="M15.82,12.52c1.15,0,2.9.86,3.65.92s5,.47,5.51.45.75.36-.14.43-2.83.39-3,.4a1.2,1.2,0,0,1,.76,1.55c-.1.37,7.25,1.15,8.83,1a61.46,61.46,0,0,1,7.5-.68c1.79.13,3.32,1.81,3.9,2.84s.47,4.06.66,5.06a35.18,35.18,0,0,1-.14,5.76c-.13,1.21-.1,3.73-.88,5.55s.68,4.46-.93,4.46-.84-2.18-.78-2.82A9.77,9.77,0,0,0,40,34s-.39,3.5-.41,4.37-1.14,1.21-1.71,1-.05-2.11-.05-2.45.1-3.24-1.25-4.13-9.49.27-10.06.36S25.36,35,25.17,36.11s-.87,1.57-.88,2,.42,3.24,0,3.78-2,.53-2.21.14a6.56,6.56,0,0,1,.13-2.55,10.89,10.89,0,0,0-.54-3.12c-.21-.67-.75-2.66-1.73-3.44s-2.83-1.48-3.05-3.05-.7-4.12-1.07-4.35a8.88,8.88,0,0,1-1.89-1.2c-.16-.32-.53-.13-.69-.72a12.09,12.09,0,0,1-1.16-3.47c0-.71-.66-2.1-1.2-2.26s-1.94-.93-2-1.8,1.44-1,2.3-1.11c0,0-3.5-.69-4-1.22s-1.16-.89-1-1.22,1.18.71,1.87.68,3,.44,3.46.32A13.07,13.07,0,0,1,15.82,12.52Z"/></g></g></svg>