<svg xmlns="http://www.w3.org/2000/svg" viewBox="0 0 51.9 51.9"><defs><style>.cls-1{fill:#9c9;}.cls-2{fill:#183319;}</style></defs><title>jacobssheep</title><g id="Layer_2" data-name="Layer 2"><g id="jacobs_sheep" data-name="jacobs sheep"><circle class="cls-1" cx="25.95" cy="25.95" r="25.95"/><path class="cls-2" d="M38.94,22c-1-1.81-2.5-1.25-2.74-1.49s1.52-1.45,2.62-5.28a19.23,19.23,0,0,0,.6-7.48c0-.63-.33-2.33-.86-2s0,2.66-.27,5.37-4.2,7.7-4.2,7.7a3.68,3.68,0,0,0-1.64,0c-2.1-2.67-7-5.87-8.35-7.4S22.19,9.32,22,9.57C21.77,10,23.83,12.39,25,14s5.43,6.56,5.43,6.56a10.83,10.83,0,0,0-3.86,2.08,2.13,2.13,0,0,1-1.88.3c-.68-.28-2.76-1.05-3.5-1.28a6.28,6.28,0,0,0-4.06-.16c-2.22.55-3.5,2.35-3.43,3.15s-.46,8.85-.48,9.1-.6.39-.53,1-.59,8-.36,8.27,1.07.31,1.3.31.32-.28-.07-1.11.11-5,.5-6.31a25.77,25.77,0,0,1,1.85-3.8c.19,2.31,1.72,2,1.74,2.32-.09.48.18,6.67.53,6.9s.71.85,1,.82.83.21.37-.7-.53-6.82,0-6.36c1.19.92,5.6.44,6,.47s1.65,3.55,1.58,4.4a4.89,4.89,0,0,0,.26,1.94,10.35,10.35,0,0,1,0,3.34c-.25.94-.07,1.23.05,1.3s0,.94.07,1.33.29.25,1,.3.75-.28.75-.48-1.09-4.14-.7-5.65.06-1.94,0-2.1a18.54,18.54,0,0,1-.5-3.84,5.73,5.73,0,0,1,1.62-.28c-.18,1,.55,3.8.46,4.3a6.14,6.14,0,0,0,.23,2.1,32.52,32.52,0,0,1,0,4.19c0,.22.41.64.59.8s-.25.59,0,.89c.52.45,1.6-.09,1.47-.25a21.78,21.78,0,0,1-1-6,5.67,5.67,0,0,0-.1-2.7,29.36,29.36,0,0,1,.48-4.07c0-.14,1.79-1.94,1.86-3s.5-3.58.52-3.67.58.48,1.16-.26c1-1.43.56-2.49.47-3.43s.32-2.79,1.6-2.33,1.08,4.14.7,4.67-.73,3.55.55,1.09S40,23.75,38.94,22ZM30,23.29c-.18.16-1.19.1-1.19-.11s1.31-.7,1.42-.53S30.2,23.13,30,23.29Z"/></g></g></svg>