<svg xmlns="http://www.w3.org/2000/svg" viewBox="0 0 51.9 51.9"><defs><style>.cls-1{fill:#9c9;}.cls-2{fill:#183319;}</style></defs><title>kangaroo</title><g id="Layer_2" data-name="Layer 2"><g id="kangaroo"><circle class="cls-1" cx="25.95" cy="25.95" r="25.95"/><path class="cls-2" d="M46,18c-.7,2.92-2.83,4.25-5.27,5S31.33,23,29.2,21.11s-4.36-3.55-7.7-3.78-8.91,3.55-9.6,3.26-1.07-2.74-1.07-2.93-.78-.87-.89-1.06-.21-1.15-.64-1.36a.94.94,0,0,0-1.23.61c-.05-.1-1.67-1.11-1.82-1s.29,1.29.52,1.84S7.82,17.85,7.5,18a4.78,4.78,0,0,0-1.08.79c-.25.25-.25.88-.29,1.27s-.88.86-1.07,1.38.11.33.11.67a.57.57,0,0,0,.64.54,3,3,0,0,0,1.13-.19,2.18,2.18,0,0,1,1.65-.08c.56.25,1,1.88,1.73,2.69a5.56,5.56,0,0,0,2.42,1.34c.35.08,1.21,1.48,1.69,2.31s1.15.63,1.19.73a1.54,1.54,0,0,0,.77.44c.23,0,1.38-.35,1.42-.69s-.46-.67-.56-.61-.21.13-.25-.14-.46-.33-.65-.27-.19-.67-.19-.79,1.34.29,1.34.29,1.77,3.71,2.06,4.26a43.68,43.68,0,0,1,1.27,5.36c0,.31-.53.71-1.1,1S16.89,40.7,16,41.51a3.6,3.6,0,0,0-1,2c0-.22.27-.31.46-.43s.25.23.6-.15a3.07,3.07,0,0,1,1.38-.69,5.09,5.09,0,0,0-1.71,2.19l.48-.46c.18-.18.56,0,.73-.12a4.88,4.88,0,0,1,1.48-.94,2.84,2.84,0,0,0,1.71-1.52c.34-.71,3.4-2.15,4-2.69s1-.07.21-3.13.52-6.6,1.08-7,2.07.19,2.57-.16,1.06-1.9,1.75-2.36,4,.34,6.07,0,6.11-.79,8.6-2.56,2.52-6,2.56-6.41S46.66,15,46,18ZM15.47,28.49c-.46,0-1.11-1.29-1.11-1.5s1,0,1.11.19S15.47,28.49,15.47,28.49Zm6.78,4.7a6.77,6.77,0,0,1-.58-2.42C21.82,30.52,22.34,33.07,22.25,33.19Z"/></g></g></svg>