<svg xmlns="http://www.w3.org/2000/svg" viewBox="0 0 51.9 51.9"><defs><style>.cls-1{fill:#9c9;}.cls-2{fill:#183319;}</style></defs><title>lion</title><g id="Layer_2" data-name="Layer 2"><g id="lion"><circle class="cls-1" cx="25.95" cy="25.95" r="25.95"/><path class="cls-2" d="M8.41,16.93A3.64,3.64,0,0,1,9.8,16c.77-.36.83-2,2-2.37,0,0-.32-.78-.09-1s.59.13.73,0,.59-.74,1-.24c.07.13.31-.43.7-.36s.26.23.48.23a1.22,1.22,0,0,1,.91.32c.29.3.63-.4,1-.17s.46.67.78.71.73.53,1,1.19c.08.2,1.11.12,1.3.66,0,.13-.39.43-.92.36a1.28,1.28,0,0,1,1.08,1.06c.31.75,1.2.5,1.32.93s-.1.46,0,.53.92.19,1,.42-.08.41.1.51.36,0,.43.11.4.86.66.88a12.92,12.92,0,0,0,2.81.39,12,12,0,0,0,4.91-.83c1.33-.5,4.55.18,5.71.95a8.26,8.26,0,0,1,3,4c.53,1.65,1,4,3,4a2.6,2.6,0,0,0,2.6-1.91A2.84,2.84,0,0,1,48,24.27c2,.13,0,1-.77,1.66a8.58,8.58,0,0,0-1.61,1.73,3.41,3.41,0,0,1-3.2,1.72,3.2,3.2,0,0,1-3-2c-.21-.42-1.69-3.38-2.08-3.33s.8,4.51,2,4.91c.35.15-.06,1.18.13,1.84a2.55,2.55,0,0,1-.26,1.94c-.32.44.47,2.1-1.32,2.27s-2.12-.56-2-1.28,1.11-.62,1.19-.8a2.63,2.63,0,0,0-1.21-2.64c-.39-.18.21,2,.06,2.56s-1.5,4.3-2.78,4.74-2.51.3-2.86-.29.22-1.7,1.35-1.61c.46.05,1.48-1.83,1.28-2.62a24.63,24.63,0,0,0-2.21-3.92c-.13-.13,0-.86,0-.89s-2.14,1.38-3.88,1.35c-.77,0-2.16.93-4.32.79-.51,0-.06,3.48-.06,3.84s-.53.43-.56.82-.33,1.73-1.26,2-2,.27-2.36-.32a1.26,1.26,0,0,1,.38-1.57c.36-.3,1-.13,1.12-.22s.26-1.89-.07-2.23-3.1,4.25-3.3,4.86.24,1.61-.87,2.05-3.36.17-3.17-1.14c.17-.83,1.21-1,1.22-1.25s1-2.15,1-2.57a4.77,4.77,0,0,1,.61-1.73,6.87,6.87,0,0,0,.76-1.67c0-.15-.48.22-.78-.11a2.67,2.67,0,0,0-.84-.55c-.28-.16-.58-1.35-1.06-1.6a3,3,0,0,1-1-1.83c0-.21-.54.15-.93-.57-.24-.35-.21-.7-.37-.81a2.46,2.46,0,0,1-.46-1.07c-.06-.27-.43,0-.61-.62s.05-.64-.38-.86a1.29,1.29,0,0,1-.78-.7,1.94,1.94,0,0,1-.14-1.18,5,5,0,0,0,.29-1.9A5.12,5.12,0,0,0,8.32,18,1.81,1.81,0,0,1,8.41,16.93Z"/></g></g></svg>