<svg xmlns="http://www.w3.org/2000/svg" viewBox="0 0 51.9 51.9"><defs><style>.cls-1{fill:#9c9;}.cls-2{fill:#183319;}</style></defs><title>llama</title><g id="Layer_2" data-name="Layer 2"><g id="llama"><circle class="cls-1" cx="25.95" cy="25.95" r="25.95"/><path class="cls-2" d="M13,8.47a7.86,7.86,0,0,1,2.68,0S16.21,7,16.76,7.08,17,9.83,17,10.14a37.23,37.23,0,0,1-.35,4.43c-.23.46-.43,7.57.27,8.07s1.75-.89,3.34-.82,3.8.55,4.74.55,4.26-1.36,6.94-1.13S39,23,39.54,24.39,42,29,38.88,31.76c0,0,.62,4.12,2,5.32s0,7.57-1.2,8.07a8.29,8.29,0,0,1-1.95.66c-.27,0-.27-.62.82-1.55s-.16-4.46-1.09-4.85c0,0-1.28,4.54-1.78,4.93s-2.33,1.55-2.87,1.47-1.75.4-1.87,0,.31-.94,1.44-1.17,1.78-4.08,1.78-4.23-1.55-4.35-1.67-5,0-2.45-.11-2.72-1.32-1.2-1.55-1-2.76,2.45-5.24,2.76a7.39,7.39,0,0,1-3.3,0s-.62,2.25-.16,3S25,41.11,25,42,24.44,44,24.21,44s-.35-.25-.39-1.1-3-2.67-3-2.67-.66,5.28-1,6-1.74,1.47-1.94,1,.85-1.63.82-2-.59-4.93-.62-5.2-1.56-4.27-.78-5.4a8,8,0,0,1-4.7-5.31c-.85-3.89-1.28-4.74-1-6.45s1.32-6.25,1-7.88-.7-2.21-.58-3-.51-.94-.51-1.52A2.29,2.29,0,0,1,12,9.33s-.86-2-.47-2.25S13,8.47,13,8.47Z"/></g></g></svg>