<svg xmlns="http://www.w3.org/2000/svg" viewBox="0 0 51.9 51.9"><defs><style>.cls-1{fill:#9c9;}.cls-2{fill:#183319;}</style></defs><title>longhorn</title><g id="Layer_2" data-name="Layer 2"><g id="longhorn"><circle class="cls-1" cx="25.95" cy="25.95" r="25.95"/><path class="cls-2" d="M18.68,19.38a6.14,6.14,0,0,1,2.6.79c.4.33,4-.47,4.16-.79a6.38,6.38,0,0,1,3.18-2.81,18.76,18.76,0,0,1,4.68-.39s-3.71.54-4.49,1.16-2.62,2.52-3,2.91a4.62,4.62,0,0,1-2.47.84c-.72,0-1.77-.1-2,.11s-.27.41-.08.43,1.56-.9,2.41-.29c.48.41.35.67.35.67a24.54,24.54,0,0,0,7.06.5c2.31-.28,4.62-.16,5.54-.32A9.67,9.67,0,0,1,39.26,22a5,5,0,0,0,1.26.41c.41,0,1.59,0,2,.09a2.79,2.79,0,0,1,2.1,1.8A6,6,0,0,1,44.9,27a24.34,24.34,0,0,0,.39,5.72,20.52,20.52,0,0,0,.82,3c.14.26,0,.67.09.91a8.1,8.1,0,0,1,.33,1.4c0,.22-.24,1.09-.22,1.29l-.2-.26s.14.84.14.9a1.26,1.26,0,0,1-.57-.51,10.66,10.66,0,0,0-.45-1.11,3.23,3.23,0,0,1-.48-1.08c0-.26-.09-2.51,0-3.3a18.23,18.23,0,0,0-.2-2.54c0-.32-.22-4-.21-4.34a5.07,5.07,0,0,0-.42-2.21c-.35-.58-.45-.65-.73-.63a2.56,2.56,0,0,1,.73,1.49,9.5,9.5,0,0,1-.3,1.73c0,.47-.72,3.22-.78,3.48a3.21,3.21,0,0,0-.09,1.59,19.6,19.6,0,0,0,1.37,2.62c.28.5-.29,1.21-.44,3.73a21.32,21.32,0,0,0-.1,2.65c0,.17-.59.39-.87.43a.5.5,0,0,1-.54-.35c0-.15-.52.18-.52,0s.23-2.06.23-2.13a7.15,7.15,0,0,0-.24-2.3c-.3-.48-1-2.4-1.19-2.73s-.66-1.61-1.08-1.74.08.7-.26.76-.15-.65-.43-.65,0,.78-.33.8-.11-.73-.3-.71-3.22,1.17-3.8,1.42-1.17.19-1.34.43a1.17,1.17,0,0,1-1.31.15c-.52-.26-.58.07-1-.26s-3.56-.72-4-.87-.47.12-.49.34,0,2.46,0,2.69-.18.68-.22,1a15.29,15.29,0,0,0,.22,3c.17.24-1.12.8-1.4.24s.42-1.75.05-2.9a14,14,0,0,1-.57-2.92,3,3,0,0,0-.47-1.44,3.07,3.07,0,0,0-1.5.86c-.14.31-.61,1.78-.69,2a21.14,21.14,0,0,0-.81,4.25c.15.7-1.51.13-1.43-.24s.63-2,.65-2.21.09-1.32.07-1.62a19.31,19.31,0,0,0,.13-3.24,9.63,9.63,0,0,0-.91-1.62,9.81,9.81,0,0,0-.57-1.22,2.39,2.39,0,0,1-.36-1.78c.08-.36-.9-1.82-.94-2.32,0,0-.34.07-.41-.15A.62.62,0,0,1,17,26c0-.11,0-.56.17-.69a3.47,3.47,0,0,1-.21-1.11,3.93,3.93,0,0,0-.23-1.43,3.74,3.74,0,0,1-1.86,0c-.76-.31-1-.82-.89-1.19s1-.28,1-.28l.27.15-.18-.31s.43-.08.57,0l.86.46a.41.41,0,0,0,.13-.32.65.65,0,0,0-.47-.37c-.14,0-2.56.13-3.06.06a5.43,5.43,0,0,1-3-1.3c-.76-.75-1.77-1.91-2.59-2.62a3.13,3.13,0,0,0-.81-.55,28.16,28.16,0,0,0-3.49-1c-.48-.09,1-.17,2.23,0a6.86,6.86,0,0,1,2.44.91,6.05,6.05,0,0,1,1.09.81c.79.8,2.2,2.18,2.95,2.31s3.6.7,4.43.48S17.34,19.34,18.68,19.38Z"/></g></g></svg>