<svg xmlns="http://www.w3.org/2000/svg" viewBox="0 0 51.9 51.9"><defs><style>.cls-1{fill:#9c9;}.cls-2{fill:#183319;}</style></defs><title>minihorse</title><g id="Layer_2" data-name="Layer 2"><g id="minihorse"><circle class="cls-1" cx="25.95" cy="25.95" r="25.95"/><path class="cls-2" d="M13.17,12.36A4.26,4.26,0,0,1,14.91,9.7c.6-.53-1.23-1.27-.87-2.24s.68.82,2.67.82A2.28,2.28,0,0,1,17,7.17c.26-.29,1.17.49,1.49,1.11s5,2.59,8.13,8.66c.54.89,4.05-1,5.76-1a7.86,7.86,0,0,1,4,1.26c1.07.62,2.82,1.25,3.3,2.88s-.05,5.08.26,6,1,.71,1.61,1.73S43,30.65,43,30.65l-1.22-1.39.15,1A10.47,10.47,0,0,0,40.79,29c-.12.45.38,1.06.38,1.06l-2-1.26A5.85,5.85,0,0,0,40.63,31c.85.63.48,3.4.63,3.67s.87,2.76,1.3,3.4-.46,1.21-.38,1.31.38.74.23,1-1.64.72-1.84.51.17-2.3-.11-3.22A14.06,14.06,0,0,0,39,34.39a5.45,5.45,0,0,1-1.25-2.16,12.86,12.86,0,0,0-2.15-3.87l-1.33-1.1A4.85,4.85,0,0,0,36,31c.44.37-.23,2.42-.23,3.17s-.61,2-.48,3.28.38,1.74-.26,2.3-1.66.33-1.74.82-1.81.33-1.81,0A5.63,5.63,0,0,1,32.3,39a7.18,7.18,0,0,0,.92-1.77c0-.3.23-2.43.18-2.71a4,4,0,0,1-.26-2c.23-.79-2.17-4.09-2.17-4.09A10.7,10.7,0,0,1,26,29c-.92-.26-1.38,4.15-1.18,5.41a9.83,9.83,0,0,1-.12,2.7,8.65,8.65,0,0,0,.64,2.48c.38.64-.77.77-.77,1a1.35,1.35,0,0,1-.39.79c-.18.16-2.25.41-2.22,0s.77-1.33.77-1.48A3.73,3.73,0,0,1,23,38.55a13,13,0,0,0-.41-4.16,18.48,18.48,0,0,0,0,3.49c.18,2-.62,1.72-.62,1.82s.16,1,0,1-1.44.77-2.19.05c-.27-.25.75-1.21.73-3s-.44-3.61-.44-4.18A21.86,21.86,0,0,0,20,31c-.1-.36-.59-2.45-.74-2.81s-.16-1.22-.29-1.61a19.41,19.41,0,0,1-1.15-2.59c0-.46.62-2.32.62-2.93s-.41-2.86-.75-2.91-4.19,2.43-4.54,2.45S11.63,20,11.48,19.5a4.52,4.52,0,0,1-.38-2.09c.15-.72,1-1.52,1.56-2.59A5.49,5.49,0,0,0,13.17,12.36Z"/></g></g></svg>