<svg xmlns="http://www.w3.org/2000/svg" viewBox="0 0 51.9 51.9"><defs><style>.cls-1{fill:#9c9;}.cls-2{fill:#183319;}</style></defs><title>monkey1</title><g id="Layer_2" data-name="Layer 2"><g id="monkeys"><circle class="cls-1" cx="25.95" cy="25.95" r="25.95"/><path class="cls-2" d="M30.57,3.65c.59-.21,1.57.69,1.7,1.13s-.7,1.45-.85,1.58a3.08,3.08,0,0,0-.85,1.22c-.13.48-.57,1.79-.76,2.68s1.07,4,.82,7.09-2,4.95-2,6.14,2,2.71,2.59,4-.43,3.84-.75,4.47,3.2.19,4.27-.69,2.77,3,1.58,4.79a1.43,1.43,0,0,1,.9,1.51c0,.53-.58-.16-.61,0s.25,1-.26,1.11-.18-1.42-.66-1.42-2,1.24-2.44.4.84-2.23.65-2.45-1.71,1.28-2.81,1.64-3.18-.29-3.47,0a8.38,8.38,0,0,1-3,3.51c-.48.47,1.75.44,3,1.72s1.28,1.38,1.1,2.59c0,0,1.35,1,1.09,1.24s-.91-.62-1.09-.58S27.86,46,28,46.4s1.24.62,1.17,1.24-2.2-.73-2.4-1.28.43-1.64.1-2.19-2.23-.37-3.11-.59a5.85,5.85,0,0,1-3-2.59c-.29-.91.8-5.2,2.89-6.71.36-.26-1.5-3.34-1.87-3.34s-.95.29-.91.73.42.77.52,1.35-4.21,5.12-4.5,6-.08,1.32-.35,2-.67,1.53.2,2c.4.44-.52.47-.53.62s.19.33,0,.51-.34-.07-.38.62-1.33-.36-1.23-2.45,1-2.77,1-3.17.44-4.24,2.48-6.18c.59-.69-.69-6.65,1.25-7.89s-.11-1.65-.33-2.34-.51-1.93.95-2.37.87-1.1,2.08-1.35a5.67,5.67,0,0,1,2.45.32c.29,0,.64-.58,1.38-.36s0,1.31.37,1.35,1.09-.88,1.07-2.67-.23-4.71.36-6.72S29.13,7.12,29.13,6A2.82,2.82,0,0,1,30.57,3.65Z"/></g></g></svg>