<svg xmlns="http://www.w3.org/2000/svg" viewBox="0 0 51.9 51.9"><defs><style>.cls-1{fill:#9c9;}.cls-2{fill:#183319;}</style></defs><title>ostrich</title><g id="Layer_2" data-name="Layer 2"><g id="ostrich"><circle class="cls-1" cx="25.95" cy="25.95" r="25.95"/><path class="cls-2" d="M26.05,34.32c-.88.3-1.69.57-2.51.83-.43.13-.88.21-1.3.38a1.86,1.86,0,0,0-.83.59,3.65,3.65,0,0,1-1.89,1.42,4.77,4.77,0,0,0-2,1.32,18,18,0,0,0-3.13,4.08,1.87,1.87,0,0,1-.34.52,1.23,1.23,0,0,1-.64.36,11.44,11.44,0,0,0-2.54.43,1.19,1.19,0,0,1-1.37-.47c-.3-.42-.69-.77-1-1.17-.09-.1-.19-.28-.15-.38a.48.48,0,0,1,.36-.2,2.36,2.36,0,0,1,1.41.4c.3.2.55.35.92,0,.19-.16.6-.11.9-.07.6.1.75,0,1-.5a6.24,6.24,0,0,1,1.67-2.38c.76-.69,1.54-1.35,2.3-2a8.23,8.23,0,0,0,1.67-2A2.59,2.59,0,0,1,20.66,34,2.27,2.27,0,0,0,22,33.42l1.69-1.54c-.22-.2-.43-.39-.66-.58a.36.36,0,0,0-.25-.1c-.78.09-1.56.17-2.34.31a3.85,3.85,0,0,0-.8.39l.09-1.16-.38.21c.12-.28.22-.48.29-.7a.37.37,0,0,0,0-.31c-.18-.24-.39-.46-.64-.75l-.52.84-.08-.14a8.6,8.6,0,0,1-1.77.67,5,5,0,0,0-2,.7,2.52,2.52,0,0,1-1.82.34,3,3,0,0,0,.67-2.26l-.44-.09.1-.28-.42,0c.87-.83.73-2,1.31-3l-.22-.1a6.79,6.79,0,0,1,3-3.12l-.28-.3a4.66,4.66,0,0,1,2-.14c.09,0,.26.15.27-.1a.44.44,0,0,1,.18,0,2.12,2.12,0,0,0,1.57-.31,3.66,3.66,0,0,1,.68-.25c.08,0,.2,0,.25-.1a1,1,0,0,1,.81-.32c.07,0,.13-.09.18-.19a9.55,9.55,0,0,0,2.81-.2c.57-.12,1.13-.35,1.71-.45a5.14,5.14,0,0,1,1.24,0c.55.05,1.1.13,1.64.21a1.16,1.16,0,0,1,.51.1,1.5,1.5,0,0,0,1,.22,2.88,2.88,0,0,1,2.2.74l.06-.26a.54.54,0,0,1,.15.09l1.68,1.62a13,13,0,0,0,1,.94,1.59,1.59,0,0,0,2.23-.3c.06-.08,0-.22.07-.38a1.26,1.26,0,0,0,.89-1,5.54,5.54,0,0,0-.12-2.83c-.4-1.54-.89-3.05-1.3-4.59a7.52,7.52,0,0,1-.25-3.65,12,12,0,0,1,.45-1.27c.06-.19.09-.38.14-.6l1.27-.66a1.26,1.26,0,0,1,1.13.14c.34.16.52.48.78.7a2.94,2.94,0,0,0,1.11.33,4.23,4.23,0,0,0,.62.11l0,.13a4.2,4.2,0,0,1-.51.35c-.37.16-.77.28-1.13.46a3.48,3.48,0,0,0-.66.5,4.23,4.23,0,0,0-.72.68,2.43,2.43,0,0,0-.41.93,6.26,6.26,0,0,0,.65,3.68,12.15,12.15,0,0,1,1,4.59,9.11,9.11,0,0,1-.79,4.27c-.24.51-.37,1.06-.58,1.57a4.28,4.28,0,0,1-.41.76c0,.05-.14.05-.3.11l-.5.81-.2-.27a.49.49,0,0,0-.09.15c-.16.56-.3,1.12-.46,1.68a4.88,4.88,0,0,1-1.14,2.07l-.06-.36a4.4,4.4,0,0,0-.31.33c-.28.38-.54.76-.83,1.12a1,1,0,0,1-.86.47c-.11,0-.22.1-.34.16a8.69,8.69,0,0,1-.86.44c-.19.09-.4.19-.61,0,0,0-.18,0-.27,0H31a1.24,1.24,0,0,1-.25,0,1.84,1.84,0,0,0-.26-.38c-.29-.21-.6-.4-.9-.6l-.38-.24c0,.26,0,.45,0,.64a3.61,3.61,0,0,1-.61,1.76,11.65,11.65,0,0,0-.74,1.22,1.18,1.18,0,0,0,.75,1.84,10.15,10.15,0,0,0,2.11.44c1.38.14,2.78.21,4.17.29a1.53,1.53,0,0,1,1.23.61,9,9,0,0,1,.66,1.07,3,3,0,0,0,1.64,1.53c.28.1.59.23.5.6s-.42.33-.7.32a7.76,7.76,0,0,1-1.37-.15,1.18,1.18,0,0,1-.54-.48c-.14-.19-.19-.43-.31-.62s-.19-.08-.29-.12a2.71,2.71,0,0,0,0,.29c0,.06.07.12.08.19s0,.32,0,.49a2.48,2.48,0,0,1-.47,0,.65.65,0,0,1-.57-.54c0-.11-.07-.22-.09-.33a1.62,1.62,0,0,0-1.32-1.31,18.69,18.69,0,0,0-4.64-.71c-.71,0-1.43.06-2.14.12s-1.42-.38-1.27-1.11a1.73,1.73,0,0,1,.23-.5A6.91,6.91,0,0,0,26.05,34.32Z"/></g></g></svg>