<svg xmlns="http://www.w3.org/2000/svg" viewBox="0 0 51.9 51.9"><defs><style>.cls-1{fill:#9c9;}.cls-2{fill:#183319;}</style></defs><title>peacock</title><g id="Layer_2" data-name="Layer 2"><g id="peacock"><circle class="cls-1" cx="25.95" cy="25.95" r="25.95"/><path class="cls-2" d="M50,26.71c0-.24-.8-.33-1-.34.14,0,.4,0,.4-.21s-1.8-.5-1.8-.5.4-.05.4-.3-1.62-.27-1.77-.65-1.2-1-1.2-1h1.67l-1.12-.44s.83-.11,1.06-.11-.43-.42-.43-.42c.87,0,.17-.4.17-.4a3.33,3.33,0,0,1-1.22-.4c-.13-.07-2,.48-2.3.18s-.95-.1-1.2,0A13.24,13.24,0,0,1,39.58,22c.65-.25-3.07,0-3.07,0,0-.45-2.65-.6-2.65-.6.23-.48-1.55-.48-1.55-.48.6-.65-2.47-.4-2.47-.4s.3-.25-.12-.52-7.19.32-8,.32-8,2.89-8.17,2.88a8.2,8.2,0,0,1-1.65-1.87c-.34-.62,0-2.14-.22-3a11.91,11.91,0,0,0-1.1-2.34c0-.12.55-.31.67-.27s.28-.09.06-.15-.77.28-.77.28-.28-.31-.28-.31a7.49,7.49,0,0,1,.84-1.07s.15,0,.22,0,.1-.3-.19-.19-1,1.14-1,1.14.24-.56.29-.7a.26.26,0,0,1,.22-.16c.08,0,.08-.17-.1-.15s-.52.94-.52.94a1,1,0,0,0-.41-.11,14.55,14.55,0,0,1,.2-1.7c.05-.19,0-.4-.18-.31s0,.26,0,.5-.13,1.46-.13,1.46a11.72,11.72,0,0,0-.08-1.43c-.05-.35-.11-.53-.29-.42s.06.37.15.44a2.25,2.25,0,0,1,0,1s-.15-.4-.29-.38,0,.23.18.48.12.48-.15.48c-1.34.16-1.37,1.72-1.4,2A10,10,0,0,1,7,18.83a5.23,5.23,0,0,1,2.64-.27c.28.05.36.91.39,1.16a30.09,30.09,0,0,0-.84,4.19A4.89,4.89,0,0,0,12.34,28c2,.61,3.24,2.47,5.49,3.21a17.18,17.18,0,0,1,4.68,2.66A6,6,0,0,1,23,36.82a29.83,29.83,0,0,1-1.33,5.46,12.09,12.09,0,0,1-2.8.48l.86.19a15.54,15.54,0,0,0-2.25,1c.31-.33,3.52-.66,3.44-.63a9.15,9.15,0,0,0-.83.75c.66.22,3.1-1.64,3.27-1.45a1.7,1.7,0,0,0,1.08.23c0-.09-.61-.59-.61-.59L26,41.59s-.55.86-.25.86,1.36-1.25,1.58-1.39a4.49,4.49,0,0,1,1.33,0c-.05-.36-1.24-.8-1.46-.86s-.14-5.35-.2-6.07-1-1.6-.94-1.91,1.47,0,2.45,0,1.18-1.36,1.18-1.36S35.34,32.39,37,33s.44-.56.44-.56c1.28.11,0-1.34,0-1.34.67,0,.27-.52.27-.52s2.6.85,2.7,0c.12-1.35-2-2.65-2-2.65A3.44,3.44,0,0,0,40,26.56a16.4,16.4,0,0,0,2.52.4c.8,0,.35-.38.53-.28a45.22,45.22,0,0,0,4.89.67c.17-.08-.35-.62-.35-.62a9.78,9.78,0,0,0,2.24.6c.15-.15-.69-.62-.69-.62S50,27,50,26.71Zm-23.9,8.92s.25,5,0,5.16A20.21,20.21,0,0,1,24,41c-.11.06-.22.44-.22.44h.78s-1.28.81-1.45.45a11.22,11.22,0,0,1,1.17-3.94,4.92,4.92,0,0,0,.4-2.92,17,17,0,0,1-.29-1.82c.17-.11,1.19.94,1.14,2C25.48,35.8,26.11,35.63,26.11,35.63Z"/></g></g></svg>