<svg xmlns="http://www.w3.org/2000/svg" viewBox="0 0 51.9 51.9"><defs><style>.cls-1{fill:#9c9;}.cls-2{fill:#183319;}</style></defs><title>peccary</title><g id="Layer_2" data-name="Layer 2"><g id="peccary"><circle class="cls-1" cx="25.95" cy="25.95" r="25.95"/><path class="cls-2" d="M8.11,16.52c.44-1.16,3.69-4,6.41-4.11s8.28-.8,13.68-1.13,10.56.63,12,1.54,4.56,2.44,4.56,3-2,1.61-2,1.61.49,2.18.21,2.49-.9,0-1,0a27.78,27.78,0,0,1,1,4.29c0,1.25.63,2.64.7,3.73,0,0,1,1.37-.29,2.1a3.48,3.48,0,0,1-2.85,0,23,23,0,0,1-8,2.27s-.83,4.54-.83,4.82,1.11,4.56,2,4.89a2.63,2.63,0,0,1-2.23.33c-1-.47-1.47-6.13-2.87-6.34,0,0-1.12,3.3-.28,4.62,0,0-.52.9-1,.45s-.87-4-.27-5.42a2.1,2.1,0,0,0-.67-2.42s-2.51-.15-4.18-.43S18.08,31,17.59,31.12s-2.82,4-2.74,4.47,1.63,5.17,2.88,5.49a1.93,1.93,0,0,1-1.6.8c-.91-.14-3-4.54-3-4.54s-.28,2.64.14,3.19,1.09,1.76,1.59,2a3.09,3.09,0,0,1-1.87.64c-1-.07-1.81-2.11-1.88-2.51A13.09,13.09,0,0,0,10.54,37c-.54-1.26,0-4.47-.54-5s-3-3.77-2.88-6.29S7,19.45,8.11,16.52Z"/></g></g></svg>