<svg xmlns="http://www.w3.org/2000/svg" viewBox="0 0 51.9 51.9"><defs><style>.cls-1{fill:#9c9;}.cls-2{fill:#183319;}</style></defs><title>porcupine</title><g id="Layer_2" data-name="Layer 2"><g id="porcupine"><circle class="cls-1" cx="25.95" cy="25.95" r="25.95"/><path class="cls-2" d="M11.39,27.81S9.94,33,7.21,33.14s-2.6-4.52-2.56-5.71A14.92,14.92,0,0,1,6,20.6c1.49-3.28,8.09-4.91,11.19-5.2s8-1.05,11.21-.83,11.71,2.56,18.08,11.65c0,0-3.11-3.53-5.76-4.51,0,0,5.55,4.86,6.57,6.57,0,0-3.92-3.85-5.33-4.44,0,0,3.88,4.05,4,4.78a45.9,45.9,0,0,0-4.14-2.73,20,20,0,0,1,2.3,2.35,16.63,16.63,0,0,0-2.81-1.8s3.62,3.36,4.31,4.73c0,0-2.31-2.08-2.86-2.12a16,16,0,0,1,2.22,2.68,17.82,17.82,0,0,0-2.18-1.32,11.45,11.45,0,0,1,1,2.52,10.9,10.9,0,0,0-2.26-1.41,7.63,7.63,0,0,1,.43,1.11,3.29,3.29,0,0,0-1.28-.34s.51,1.15.64,1.49a8.39,8.39,0,0,0-1.75-.68s-.51,1-.13,1.24a30,30,0,0,1,3.07,3S38.26,35,37.37,34.6a16.08,16.08,0,0,0-3.12-1.2h-.38a15.3,15.3,0,0,1,2.43,1.92s-4.1-1.88-4.39-1.92a10.78,10.78,0,0,1,1.36,1.66,13.44,13.44,0,0,0-2.64-1.15l.78,1.62A24.58,24.58,0,0,0,28.82,34c-.45-.13-6.85,1.2-10.18-.21a13,13,0,0,0-3.07-.85c-.77,0-.43-.86-.21-1,0,0-2.87.21-3.06-.17S13.31,27.47,11.39,27.81Z"/></g></g></svg>