<svg xmlns="http://www.w3.org/2000/svg" viewBox="0 0 51.9 51.9"><defs><style>.cls-1{fill:#9c9;}.cls-2{fill:#183319;}</style></defs><title>prairiedog</title><g id="Layer_2" data-name="Layer 2"><g id="prairiedog"><circle class="cls-1" cx="25.95" cy="25.95" r="25.95"/><path class="cls-2" d="M18.19,4.21A5.53,5.53,0,0,1,20.33,3a11.88,11.88,0,0,1,4.31.13,6.07,6.07,0,0,1,2.84,1.58A22.76,22.76,0,0,1,29,9.08a25.26,25.26,0,0,0,2.14,5.34c.37.64,2.85,8.87,3,9.54a18.6,18.6,0,0,1,1,9.82c-.88,5.54-1.27,5.74-1.27,5.74s6.94-4.18,10.12-3.6c1,.17-1.17,1.31-2.31,1.82s-3.33,3.57-8.49,4c-3.38,1.75-2.14,1.51-9.41,3.5-2.43.83-4.21,1.34-4.5,1.46s-.78,1-1.34,1a4.23,4.23,0,0,0-1.48.48,4.51,4.51,0,0,1,1.9-2.21c1.19-.63,1.33-1.22,2.16-1.29s1.85-.44,1.87-.63-1.82-2.9-2.16-4.18-.46-6.79-.1-7.79.93-4,1.15-4.52-2.61-.2-3.09.54-.41.89-.87,1a1.74,1.74,0,0,0-.36.66,2.75,2.75,0,0,1,.19-1.1,1.22,1.22,0,0,1-.06-.39s-.46,1.26-1,1.36c-.26.07-.31-.11-.31-.11a1.71,1.71,0,0,0-.59,1.05,1.59,1.59,0,0,1,0-1s-.4.07-.39-.17c0,0-.81.81-.83,1.21,0,0-.17-.86.14-1.2a2.4,2.4,0,0,1,.2-1.1c.24-.44.74-1.15.86-1.46a3.6,3.6,0,0,1,1.24-1.69c.65-.33,1.45-1.75,1.55-1.86s2.28-2,2.39-2.46,1-8.12,0-9-3.38-2.4-3.57-2.79S16,8,15.93,7.74a10,10,0,0,1,0-1,1,1,0,0,1,0-1.48C16.76,4.47,17.92,4.5,18.19,4.21Z"/></g></g></svg>