<svg xmlns="http://www.w3.org/2000/svg" viewBox="0 0 51.9 51.9"><defs><style>.cls-1{fill:#9c9;}.cls-2{fill:#183319;}</style></defs><title>rhea</title><g id="Layer_2" data-name="Layer 2"><g id="rhea"><circle class="cls-1" cx="25.95" cy="25.95" r="25.95"/><path class="cls-2" d="M30.54,4.91a2.85,2.85,0,0,1,2.94,2s2.36.53,2.4.87-.77.19-2,0-3.42,1.93-3.37,2.17,2.94,7.17,3,8.18,1.3,8.28-1.15,8.61c0,0,.53,3.52-1.83,4.77s-7,1.3-7.46,2.07-1.64,2.5-1.49,3.08c0,0,3.17,3.37,4.67,4s3.9,4.58,3.75,4.86-1.73-1.29-1.88-1S27,44,26.35,42.69A18.77,18.77,0,0,0,21.25,38s-.37,6.31,0,6.71,1.75.54,1.83.83-.31.14-.31.14,1.09.52,1.09.92-2.58-.4-2.58-.4.45.52.17.72-1.29-.32-1.64-1.21.81-6.39.55-8.31l-1.46-.8s.89.86.79,1.33-1.15.1-1.15.1-.1.57-.26.52-.26-.78-.52-.78-.16.89-.36.89-1.1-.89-1.2-.63-.83,1.67-1.1,1.67-.78.05-.78-.16.42-1.77.42-1.77-.21-.62-.42-.62-.15,1.25-.36,1.35,0-1.72-.52-2.19-1.15-1.92-1.41-2-.83,1.62-1.2,1.36,0-1.62,0-1.62-.46,1-.57.32.21-8.6,1.51-11.78,4.9-7.13,8.65-6.71,6.87,2.34,8.07,4.48,1.93,1.56,2,.72.62-4.53-.57-7.6S27.71,9,28.28,7.07A3.08,3.08,0,0,1,30.54,4.91Z"/></g></g></svg>