<svg xmlns="http://www.w3.org/2000/svg" viewBox="0 0 51.9 51.9"><defs><style>.cls-1{fill:#9c9;}.cls-2{fill:#183319;}</style></defs><title>serval</title><g id="Layer_2" data-name="Layer 2"><g id="serval"><circle class="cls-1" cx="25.95" cy="25.95" r="25.95"/><path class="cls-2" d="M6.49,19.81a1.29,1.29,0,0,1,0-.91,14.14,14.14,0,0,1,.92-1.54C7.7,17,7,12.51,8.1,12.19s3.23,2.66,3.23,2.66.84-1.23,1.61-.93.4,1.93.44,2,4.44-.27,5.81-1,3.64-.22,4.22-.38,10.42-2.77,11-3a31.08,31.08,0,0,1,4.51-.69,18.94,18.94,0,0,1,4.21,1.8c1.12.59,1.43,3.48,1.53,4.93a26.36,26.36,0,0,0,.56,3.3,14.44,14.44,0,0,0,.7,2.21c0,.34.65,2.95,1.52,3.38.25.12.25,2.38.38,3.22s1,4.36-.38,4.88-2.31,0-2.34-.36.43-.83,1.06-1.08-.3-4.5-1.06-5S40.17,24.15,40,24s-.74-.78-1.32-.69-1.16,5.12-1,5.41a7.62,7.62,0,0,1,.55,2.07,34.73,34.73,0,0,1-3,6.7c-.36.24-2.5.84-2.73.15s.52-1.18,1.18-1.3,2.68-5,1.78-6.67A34.87,34.87,0,0,1,33.49,24c-.17-.53-6.35-.06-7.6,1.46-.56.61-.17,5.12-.16,5.33s.33,4.78.52,5.28-.49,3.49-1.67,3.79-2.41.75-2.53.4.05-1.07,1.36-1.72c.19-.28.71-2.06.07-4.81s-.78-6.5-2.19-6.8c-.46-.11-1.25,2-2.92,3.31s-5.19,4.2-5.53,4.54a22.62,22.62,0,0,0-1.92,2.84c-.3.59-.86,2-2.24,2s.78-2.83.89-3a65.33,65.33,0,0,1,4-6c1.08-1.14,2.05-1.85,2.07-2.72a9,9,0,0,0-.46-3.31c-.41-.77-.67-2.58-2.15-2.79s-2.74,0-3.2.44a2,2,0,0,1-1.39.8c-.55,0-.54-.37-.68-.59s-.78,0-1.11-.22-.54-.28-.55-.61a1.31,1.31,0,0,1,.13-.66A2.44,2.44,0,0,0,6.49,19.81Z"/></g></g></svg>