<svg xmlns="http://www.w3.org/2000/svg" viewBox="0 0 51.9 51.9"><defs><style>.cls-1{fill:#9c9;}.cls-2{fill:#183319;}</style></defs><title>sloth</title><g id="Layer_2" data-name="Layer 2"><g id="sloth"><circle class="cls-1" cx="25.95" cy="25.95" r="25.95"/><path class="cls-2" d="M40.55,7.62a52.54,52.54,0,0,0,5.73,2.2A24.25,24.25,0,0,0,38.8,3.4c-.27,0-2.1.44-2.1.44s-.21-.7-.61-.79a1.49,1.49,0,0,0-1.82.49,2.46,2.46,0,0,0-.14,1s-4.1,1-4.24,1-1.22-1.26-2.66-.91A2.33,2.33,0,0,0,26,5.88S18.8,4.76,18.08,4.66s-1.56-1.07-2.58-.58-.35,1-.62,1-3.38-.48-3.58-.51a19.75,19.75,0,0,0-2.45,1.9s5.68.48,6,.48,4.39,0,5.59.21a30.63,30.63,0,0,1,4.51,1c.11.21.23,1.06-1.23,1.82S21,11.27,21,11.27a1.61,1.61,0,0,0-1.45-1c-1,.08-1.17,1.17-1.05,2a10.16,10.16,0,0,0-3.33,1.85s-.18-.68-.27-.71.45-.81,1.13-.81a1.18,1.18,0,0,0-1.45-.47c-1,.32-1.57,2.34-1.31,3.62l-4.14,3a3.58,3.58,0,0,0,.72,1.72,1.37,1.37,0,0,0,1.54.57A17.78,17.78,0,0,0,14,19.39,12.57,12.57,0,0,0,14.64,22c.39.89.48,3,.82,3.91a21.55,21.55,0,0,1,.44,3.63c0,.21.09,3.72.44,4.07,0,0-2.76.6-2.72,1.21a1.88,1.88,0,0,0-1.15,1.7s0,.51.37.63-.62.53-.34,2.09A10.73,10.73,0,0,0,15,43.78c.57.36,3.38,2.75,4.75,3.21s4.95-.66,5.61-1.17,6.47-4.25,6.93-4.89,4.89-5,5.65-7.07,4.59-4.15,5.24-6.45a12.19,12.19,0,0,0,.32-4.76c-.05-.25-.3-3.49-1.75-4.73a7.53,7.53,0,0,0-3.6-1.62c-.55-.11.11-3.81-.3-6.13s-1.29-2.55-1.29-2.55A4.38,4.38,0,0,1,40.55,7.62ZM23.85,27.41c-.09,1.08-2,2.33-2,2.33-.08-.76-1-2.1-2.77-6a31.75,31.75,0,0,0-3.36-5.86c0-.45,2.93-2.35,2.93-2.35s.81,3.92,1.95,4.79S23.94,26.32,23.85,27.41Zm4.56-3.72c-.41.24-2.48-4-5.38-5.46a20.42,20.42,0,0,1-1.49-3.89s3.88-2.13,4.28-2.48l1.89-1.67a38.81,38.81,0,0,0,1.4,6.37c.73,1.7-1,1.54,1,5.12C29.43,23.49,28.82,23.46,28.41,23.69Z"/></g></g></svg>