<svg xmlns="http://www.w3.org/2000/svg" viewBox="0 0 51.9 51.9"><defs><style>.cls-1{fill:#9c9;}.cls-2{fill:#183319;}</style></defs><title>spottedsheep</title><g id="Layer_2" data-name="Layer 2"><g id="spotted_sheep" data-name="spotted sheep"><circle class="cls-1" cx="25.95" cy="25.95" r="25.95"/><path class="cls-2" d="M17.29,15.47a7.86,7.86,0,0,1,4.57-1c2,0,5.89,1.25,6.41,1s.66-1.55.44-1.84a2.06,2.06,0,0,1-.29-1.47c.14-.37-5.09-.37-5.68-3-.22-1.26,3.61-1.11,3.91-1s1.91,1.18,2.65,1a6.39,6.39,0,0,1,2.95-.66c2.06,0,2.28.59,3,.59s2.13-1,2.87-1.06a3.25,3.25,0,0,1,2.58.69c.74.73-1.77,3.08-4,3-1.1,0-.88,5.39-.51,6.12s2.28,4,2.06,6-.89,1.92-.81,2.44a21.57,21.57,0,0,1-.37,4c-.29,1.92.37,2.43.37,3.76s.15,3.91.66,4.86,1.77,3.61,2.06,4-2,1.25-3.53,0-.81-2.87-.89-3.76-1.47-4.2-1.47-4.78a8.57,8.57,0,0,0-.74-2.8,6.33,6.33,0,0,1-.29-2.07s-2.87.37-3.24.08a1.39,1.39,0,0,0-.67,1.4c.15.95-.14,2.06.67,3.53s-.67,3-.67,4-.07,5.16.45,6.41-3.32,1.25-3.61,0,.66-4.27.73-4.86a22,22,0,0,0-.59-3.61c-.14-.74.37-1.55.08-2.06s-1.33-3.91-1.11-5.16a7.19,7.19,0,0,1-1.54.11,14.26,14.26,0,0,1-1.73,1.87c-.87.73-2.83,8.35-2.42,9.49s-2.88.82-2.92-.55.87-3.42,1-6.34a15.54,15.54,0,0,1,1.19-5.2l-.82-1.07s-3.29,3.31-3.42,3.53-.78,2.65-1.87,3.65c-.6.64-.73,7.16-1,7.35s-2,.59-2.69-.23,1.58-8.26,1.54-11.54c.13-1,1.38-2,1.38-2.46a87.24,87.24,0,0,1,2-8.51A9,9,0,0,1,17.29,15.47Z"/></g></g></svg>