<svg xmlns="http://www.w3.org/2000/svg" viewBox="0 0 51.9 51.9"><defs><style>.cls-1{fill:#9c9;}.cls-2{fill:#183319;}</style></defs><title>tiger</title><g id="Layer_2" data-name="Layer 2"><g id="tiger"><circle class="cls-1" cx="25.95" cy="25.95" r="25.95"/><path class="cls-2" d="M4.1,25.13c.11-.28.65,0,.78.23s.08.58.27.67,2.61.74,3.89,0a8.82,8.82,0,0,0,3.2-3.2c.49-1.06,2.41-5.33,5.83-5.65a18.54,18.54,0,0,1,7.71.75c1.93.62,7.1,1.27,7.78.91a3.94,3.94,0,0,1,3-.33,14.56,14.56,0,0,1,2.24.21,19.11,19.11,0,0,0,3.6.64c.28-.06.65-.85,1.52-.54.5.19.32,1.14.5,1.16a2.94,2.94,0,0,1,2.2,1.21,9.63,9.63,0,0,0,.71,1.57c.49.77.7,1.12.39,1.39s-.73.83-1,.9-.53-.09-.53,0a.5.5,0,0,1-.4.68c-.58.12-1-.46-1.31-.77s-1.55-.37-1.84-.47-1.72-.56-2.06-.25-.37,2.76-.29,3a9.76,9.76,0,0,0,1.79,1.89c.52.33,1.43,1.66,1.66,1.7s1.12.13,1.2.64c0,.21,1.81.05,1.81.9a.39.39,0,0,1,0,.58c-.29.33-.45,0-.45,0s.29.37-.46.68a4.11,4.11,0,0,1-2.47-.12,1.25,1.25,0,0,1-.58-.75s-6.39-3.32-6.51-3.5-.48-1.5-.75-1.5a5.49,5.49,0,0,1-1.86.6s-2.89,5.5-3.16,5.87a2,2,0,0,1-1.72.58,1.31,1.31,0,0,1-1-1.05c0-.46.06-1.17,1.24-1.39.69-.15.73-4.4.52-4.48s-3.11.43-4.29-.13S23,26.35,22.88,26.35s-1,1.39-1.89,2.2-1.24,1-1.18,1.54A3.09,3.09,0,0,0,21,31.56c.31.19,1.7.95,1.37,1.66s-1.76.5-2.16,0S17.05,30,17,29.44s1.22-1.51,1.41-2a3.64,3.64,0,0,0,0-1.48s-2.28,1.73-3.11,2.46-2.1,1.28-2.54,1.95A2.92,2.92,0,0,0,12.26,32a1.84,1.84,0,0,1-.17,1.57c-.43.58-2.09.27-2-.43a3.26,3.26,0,0,1,.48-1.27c.12-.23,0-1.39.08-1.64A6.9,6.9,0,0,0,11,28.39c0-.32,1.41-.67,1.82-1.62A18.09,18.09,0,0,0,14,23.17c0-.51-1.37,2.75-4.6,3.89a5.82,5.82,0,0,1-4.71-.42C4.42,26.39,3.86,25.76,4.1,25.13Z"/></g></g></svg>