<svg xmlns="http://www.w3.org/2000/svg" viewBox="0 0 51.9 51.9"><defs><style>.cls-1{fill:#9c9;}.cls-2{fill:#183319;}</style></defs><title>tortoise</title><g id="Layer_2" data-name="Layer 2"><g id="tortoise"><circle class="cls-1" cx="25.95" cy="25.95" r="25.95"/><path class="cls-2" d="M18.56,15.28a21.44,21.44,0,0,1,3-1.7c.82-.22,3.07.66,4.06.5s1-1,2.08-1,5.16,1.53,6.09,2.58,2.3,1.81,3.4,4.93c.33,1,2.08.72,2.58,1.43s.44,1.21.71,1.21,1.81-1.1,2.58-1.1,3.84-.44,4.83.55a1.53,1.53,0,0,1,0,2.47,9.48,9.48,0,0,1-4,.82c-1-.11-1.32,1-1.32,1A5.9,5.9,0,0,1,45.32,31c.28.94,1.15.83.88,2.91,0,0-1.65,2.41-3.84,1.54s-1.21-1.26-1.7-2.2-2.19-2-2.74-3.12c0,0-1.87,1.92-4,.82,0,0-1.37.88-2,.66,0,0-1.1,3-2.74,4,0,0,.76,2.66.11,2.77s-2.53,1.21-4.06-.93.2-5,.76-5.43L24.32,32S26,33.6,22.18,33.88s-3.08-1.54-3.08-1.54-3.78-.16-4.05-.55-.17-.55-.55-.55S12,31,12,31a14.88,14.88,0,0,1-1.65,1.05c-.33.11-.82,1.86-2,2.57a4.21,4.21,0,0,1-2.8.33S4,35.3,3.86,35a2,2,0,0,1,0-2.46c.87-1.1,2.08-1.38,2.52-1.87A17,17,0,0,0,7.7,28.45L6.43,26.54s2-1.17,2.14-1.88a36.46,36.46,0,0,1,2.64-5.48c.27-.17,4.66-3.84,5.26-3.84S17.93,15.6,18.56,15.28Z"/></g></g></svg>