<svg xmlns="http://www.w3.org/2000/svg" viewBox="0 0 51.9 51.9"><defs><style>.cls-1{fill:#9c9;}.cls-2{fill:#183319;}</style></defs><title>toucan</title><g id="Layer_2" data-name="Layer 2"><g id="toucan"><circle class="cls-1" cx="25.95" cy="25.95" r="25.95"/><path class="cls-2" d="M23.8,7.66A1,1,0,0,1,25,9s11.65-2.5,12.75,5c0,0-7.93-.48-9.09,0a14.54,14.54,0,0,1-3.23.8h.18A2,2,0,0,1,25.8,16s4.08.3,4.08,7.13-2.44,10.49-2.44,10.49l-2.13-2.56s4.45,12.81-.12,13.42c-2.5.36-2.75-1.35-2.75-1.35a2.77,2.77,0,0,1-2.56,1.4c-1.71-.18-4-.78-.2-13.59L17.14,33.7s-3-6.28-3-10.91,2.92-6.47,2.92-6.47.49-4.45,2.2-5.55c0,0-1,0-1.34.55C17.93,11.32,19.3,8.58,23.8,7.66Z"/></g></g></svg>