<svg xmlns="http://www.w3.org/2000/svg" viewBox="0 0 51.9 51.9"><defs><style>.cls-1{fill:#9c9;}.cls-2{fill:#183319;}</style></defs><title>wallaby</title><g id="Layer_2" data-name="Layer 2"><g id="wallaby"><circle class="cls-1" cx="25.95" cy="25.95" r="25.95"/><path class="cls-2" d="M49.28,37.31s-6.43,1-7.54,1.43c-2.76.95-5.31.37-6-.58s.25-5.72.25-8a17.09,17.09,0,0,0-3.12-9.44c-2.58-4-11.22-6.84-11.59-7s-1.77-4-1.36-4.29A2.46,2.46,0,0,0,20.29,7c-.15-.2.07-.62,0-1.07,0-.23-.13-.25-.22-.21.16-.15.36-.42.09-.69-.62-.65-1.73.65-1.73.65H18c-.41,0-.61,2.44-.61,2.44C15.87,6.7,13,5.5,12.74,5.7s0,0,.39.83a2.37,2.37,0,0,0,1,1.19,10,10,0,0,1,1.15,2,10.21,10.21,0,0,0-1.09,1.13A2.1,2.1,0,0,0,14,12c0,.33-1.16,1.81-1.23,2.21a.86.86,0,0,0,.23.69c0,.63.56,1.42,1,1.47s2.58-1.19,2.81-1,0,4.13-.07,4.48.58,2.69.65,3.27-.76,6-.93,7.48S17.48,32,18,32s2.67-2.9,2.86-2.9a29.06,29.06,0,0,1,.46,4.32,6.39,6.39,0,0,0,1.72,3.29c.86.89,1,4.69,1,4.69a32.55,32.55,0,0,0-7,1.67c-1,.56-.58,1.3.32,1.3a13.47,13.47,0,0,0,3.76-1.14c.23-.18,5.06-.25,5.57-.53s-.63-3.4-.63-3.4h.58c.28.25.45,3.21.4,4.12S22.54,45,22.54,45c-4.92,2-1.39,3.15,0,2,1.58-1.88,7.57-1.3,7.29-2.18a32.81,32.81,0,0,1-.23-4.88l1.82-.09c1.35,3.22,5.69,2.69,6.74,2.69.46,0,9.21-2,9.36-2.16A28.48,28.48,0,0,0,49.28,37.31ZM18,29.15l2-4.52c.05.37.25,1.79.25,1.79Z"/></g></g></svg>