<svg xmlns="http://www.w3.org/2000/svg" viewBox="0 0 51.9 51.9"><defs><style>.cls-1{fill:#9c9;}.cls-2{fill:#183319;}</style></defs><title>waterbuffalo</title><g id="Layer_2" data-name="Layer 2"><g id="water_buffalo" data-name="water buffalo"><circle class="cls-1" cx="25.95" cy="25.95" r="25.95"/><path class="cls-2" d="M11.64,17.9c.38-.22.74-.24.82-.35a6,6,0,0,1,3-1.19c.55-.05.52-.56,1.15-.63a21,21,0,0,1,2.65.58c.89.1,4.08.77,4.77.55a14.76,14.76,0,0,1,2.8-.84c.74,0,2.33-.25,2.75-.25,0,0-.23-1.68.75-2.42a5.82,5.82,0,0,1,2.25-1.25c.24.08-1.77,1.12-1.86,1.8A4.62,4.62,0,0,0,31,15.81a4.59,4.59,0,0,0,1.67.5c.65.12,2.85.36,4.09,1.78.25.34,1.27,0,1.44.05a11.79,11.79,0,0,1,2.26.17c.86.2,4.2-.31,4.33-2s-.35-2.57-1.33-3.08-1.39-.7-1.37-.82,1,.14,1.37.29a5.27,5.27,0,0,1,2.11,1.53,3.3,3.3,0,0,1,0,3.91c-1.05,1.48-3.43,2-4.26,2.08,0,0,.27.58.37.6a7.66,7.66,0,0,1,2.65.69c.63.5.67.93.53,1.13a6.7,6.7,0,0,1-3.05.59c-.44,0-.64-1-.64-1a5.11,5.11,0,0,0-.27,1.24A4.07,4.07,0,0,1,41.16,25c0,.63-.42.45-.42.45s-1.41.21-1.67.23a.77.77,0,0,1-.58-.23,9.46,9.46,0,0,1-1.83,1.28,14.05,14.05,0,0,1-2,.61,2.38,2.38,0,0,0-.9,1.14c0,.43-1.26,1.53-1.3,1.69s-1,2-1.31,2.46-.37,1.29-.5,1.49a13.24,13.24,0,0,0-.34,2.52,3.21,3.21,0,0,0,.26,1.15,10.77,10.77,0,0,1,1.21,1.38c0,.15-1.19-.08-1.22,0s.35.47.15.52a11.65,11.65,0,0,1-2.64,0c-.16-.13,0-.93,0-.93s-.49.2-.54.11.75-2,.72-2.46a5.61,5.61,0,0,0-.17-1.78,13.2,13.2,0,0,1-.42-2c0-.14-.63-2.33-.61-2.7,0-.2-5.64.05-6.22-.2s-.63-.29-.79-.16a.79.79,0,0,1-.58.19c-.09-.06-.19-.72-.45-.83a4.08,4.08,0,0,1-1-.57,18,18,0,0,1-.93,2.95,1.78,1.78,0,0,0-.44,1,6.11,6.11,0,0,0,.15,2,10,10,0,0,0,2.24,4.19,9.22,9.22,0,0,1-2.25,0c-.18-.18-.13-.78-.26-.83s-.36.32-.46.23,0-.91-.2-1.25-2.15-5.41-2.15-5.65.59-1.9.59-2a15.84,15.84,0,0,0-.07-1.68,3.14,3.14,0,0,0-1.35,1.64,6.42,6.42,0,0,1-1.27,2.5c-.38.18-1.57,3.7-1.34,5A10.85,10.85,0,0,0,11,38.65a5.4,5.4,0,0,1-2.22.22,1,1,0,0,1-.28-.8c0-.25.13-.8.12-.85s-.44.21-.5.1.84-1.41,1-1.89a20.7,20.7,0,0,0,.31-4.74c-.2-1.11.67-1.68.67-2.26a14.63,14.63,0,0,1,.36-3.27C10.62,24.66,10.49,18.57,11.64,17.9Z"/></g></g></svg>