<svg xmlns="http://www.w3.org/2000/svg" viewBox="0 0 51.9 51.9"><defs><style>.cls-1{fill:#9c9;}.cls-2{fill:#183319;}</style></defs><title>watusi</title><g id="Layer_2" data-name="Layer 2"><g id="watusi"><circle class="cls-1" cx="25.95" cy="25.95" r="25.95"/><path class="cls-2" d="M20.47,9c-.29,0-1.56,6.63-.66,9.1s1.79,2.83,3.67,3.71,3.14,1.24,3.14,1.37-1,.18-1.57.08a3,3,0,0,0-2-.18c-1,.32-1.75-.46-4-.09-1.53.33-1.78-.59-3.09-.22-.92.28-.53.63-1.61,1.61a10.24,10.24,0,0,0-1.68,2.43c-.27.25-.59,1.07-.31,3s.1,2.75-.3,3.27a16.67,16.67,0,0,0-1.68,2.78c-.29.73-.42,2-.58,2.5a2.24,2.24,0,0,0,0,1,1.94,1.94,0,0,0-.07,1.55,22.22,22.22,0,0,1,.42,2.25c.13.13.21-1.75.27-1.91a7.27,7.27,0,0,0,.21-2.16c-.1-.67.25-1.4,0-2.33s2.27-3.52,2.33-4.37a20.12,20.12,0,0,0,.64,2.95c.25.44-.23,2.12-.2,2.62s.18.36.24.46a31.57,31.57,0,0,1,.52,3.29,10.55,10.55,0,0,1,0,1.74c-.06.15,1.33.15,1.31,0A5.91,5.91,0,0,1,15,41.82a9.86,9.86,0,0,1,.12-1.67,7.09,7.09,0,0,0,.21-1.87c-.06-.47.25-1,.29-1.68s.27-2,.27-2.43a1.65,1.65,0,0,0,.71.37s-1,2.56-1,2.89a2.36,2.36,0,0,0,.13.67A9.81,9.81,0,0,0,16,39.76a22.31,22.31,0,0,1,.45,3.37,2.24,2.24,0,0,0,1.48.1,25.22,25.22,0,0,1-.54-2.91,11,11,0,0,1,.19-2.47,17.72,17.72,0,0,0,1.54-3.41s1.1.87,1.22,1,.52,1,1.13,1,1.26-.93,1.41-1a6,6,0,0,1,1.48-.17c.12,0,.25,3.12.31,3.39a9.09,9.09,0,0,0,.21,2.14,12.33,12.33,0,0,1-.42,2.5s1.27.18,1.43,0-.52-1.59,0-2.54a4.31,4.31,0,0,0,.44-2.54,12.93,12.93,0,0,1,.15-2.39c.1-.23.58.92,1.29,1a15.74,15.74,0,0,0,0,3,12.68,12.68,0,0,1-.3,3.15l1.59.12A9.46,9.46,0,0,1,28.73,41a8.88,8.88,0,0,1,.36-1.65,15.47,15.47,0,0,1,.66-2.57c.37-.54.69-.71.62-1.5a1.08,1.08,0,0,0,.5-.48.5.5,0,0,0,.23-.66c-.1-.27.87-.46,1-1a16.93,16.93,0,0,0-.13-1.73,1.38,1.38,0,0,1,.57-.68c.1,0,1.08,0,1.18-.33s-.19-1.23-.15-1.44a9.9,9.9,0,0,0,.15-2.16c0-.29.35-.38.25-1.36.07-.22,0-.12,0-.33s.58-.09.78,0a1.79,1.79,0,0,0,1.76-.68c.13-.23.48,0,.48-.6s-1.4-.45-1.48-.43-1.29.65-1.36.51A18.54,18.54,0,0,1,37,22c.32-.13,4.31-2.37,5.1-4.69s-.54-4.78-1.15-5.8S39.09,8.54,38.4,8.32s2.35,2,2.27,6.22-3.32,4.31-7.4,7c-.39.26-.4-.1-1,.39s-1.9-.08-2.09-.09a.75.75,0,0,0-.41,0c-.23.05-6.47-2.31-7.23-3s-2.07-3.59-2-7.32C20.62,8.84,20.66,9,20.47,9Z"/></g></g></svg>