<svg xmlns="http://www.w3.org/2000/svg" viewBox="0 0 51.9 51.9"><defs><style>.cls-1{fill:#9c9;}.cls-2{fill:#183319;}</style></defs><title>yak</title><g id="Layer_2" data-name="Layer 2"><g id="yak"><circle class="cls-1" cx="25.95" cy="25.95" r="25.95"/><path class="cls-2" d="M39.48,16.59c.4,0,1.76.56,2.07.56a3.91,3.91,0,0,1,1.08,0,1.82,1.82,0,0,1,.8,1.29,3,3,0,0,0,2-.79,3.16,3.16,0,0,0,.72-2.54c-.07-1.29,0-1.38.15-1.43s.91.73.91,1.85a4.34,4.34,0,0,1-.73,3.15c-.87,1.21-2.93,1.1-2.93,1.1s1,.1,1.06.61-1.16.92-1.41,1-.73,0-.8.23a3.42,3.42,0,0,0,0,1.62c.19.35-.58,1.67-.33,2.37s.54.92.54,1.17-.18,1.28-.16,1.28,0,.2-.64.37a3.83,3.83,0,0,1-1.83.35,1.9,1.9,0,0,1-1.38-.94c-.19-.19-.42-.73-.61-.66a40.28,40.28,0,0,0-4.29,4.28c-.08.37.23,5.09,0,5.23s-.8,1.2-1.25,1.15a1.61,1.61,0,0,0-1.2.54L31.13,38a21.23,21.23,0,0,0-.27,3.66c.17.42.88,1.13.83,1.65s-.21.53-.21.53H29.53a7.43,7.43,0,0,1-.33-1c0-.16-.47.05-.47-.23A11.78,11.78,0,0,0,29,39.85a5.65,5.65,0,0,0-1.38-2c-.17,0-.75,1.69-.88,1.71a11.87,11.87,0,0,0-.11,2.33A3.53,3.53,0,0,1,27,43.49l-2.84.19a13.46,13.46,0,0,0,0-1.43c0-.22-.44-.06-.42-.29s.8-.93.78-1.08a10.12,10.12,0,0,0,0-1.13,6.14,6.14,0,0,0-1.55-1.47c-.42-.24-5.37-.45-6.66-2-.87-.84-3.78,0-4.06.35s-.07,1.5.14,2a6.72,6.72,0,0,0,.8,1.38c.15.14,0,.71.15.82s.81.33.81.5-1,.33-1.18.3l0,.94s-1.67.11-2-.37a2.86,2.86,0,0,1-.47-1.62c.07-.38.23-.52.16-.61s-.7-.4-.54-.64.49-.12.49-.35a7.27,7.27,0,0,0-.63-2.39c-.26-.12-3.64-.12-4.48-2.28a12.11,12.11,0,0,1-.87-6.11A12.76,12.76,0,0,1,6.46,24.5c.3-.45.52-3.7,1.57-4.61a27.42,27.42,0,0,1,4.63-2.36c.51-.27,7.93.73,9.67.14s3.16-1.64,5.39-1.76a23.78,23.78,0,0,1,3.5,0s0-2.25-.36-2.41,0-.38.64,0,.83,2.41.83,2.41,2.79.17,3.68,1.46A14.59,14.59,0,0,1,39.48,16.59Z"/></g></g></svg>