<svg xmlns="http://www.w3.org/2000/svg" viewBox="0 0 51.9 51.9"><defs><style>.cls-1{fill:#9c9;}.cls-2{fill:#183319;}</style></defs><title>zebra</title><g id="Layer_2" data-name="Layer 2"><g id="zebra"><circle class="cls-1" cx="25.95" cy="25.95" r="25.95"/><path class="cls-2" d="M9.45,12.05s.88-1,1.27-1c0,0,.32-.48.64-.48s.51,1.37.8,1.71,5.33,1.34,5.77,4.54c.05.35-.24.44-.24.52s.8.81,1,1,1.75.23,3,.63,6.38-.48,8.3-1.27,5.38-1.15,7.18-.32,2.71.94,4,3.18,2.79,6.14,3.14,6.77a19,19,0,0,0,1.8,2.87c.32.2-.56,0-.56,0l.63.56s-1.15-.32-1.19-.52-.36.32-.08.52-1.07-.6-1.11-1.08-.32.82-.08,1.11a11.49,11.49,0,0,1-.84-1.94,40,40,0,0,0-1.11-5c-.4-.8-.44-1.91-1.2-2.35a5.11,5.11,0,0,1,.24,2.31c-.24.88-1.63,4.5-1.39,5.73s2.18,3,2.18,3.39-.24,7.63-.45,7.68-1,.37-1,.78.56,1,.14,1.32-4.55.17-4.67,0,.67-1,.65-1.15a.72.72,0,0,1,.33-.68,2.24,2.24,0,0,0,.74-1c0-.2,1.09-2.9.74-4.43A17.58,17.58,0,0,0,36.39,32c-.09-.3-1.25-2.85-1.6-2.9s-1.3-.51-2-.28-1.07,1.77-3.63,2.51-7.32-.16-9.15-1.14c0,0,.28,4.52.3,4.83a2.8,2.8,0,0,1,0,1.26A17,17,0,0,0,20.86,40c0,.21.14.83-.05,1s-.77.07-.88.46.35.7.32,1-.69.6-1,.6h-2s1.29-2.34,1.81-2.43a15.77,15.77,0,0,0-.19-3.7,11.14,11.14,0,0,0-.55-1.42,5.49,5.49,0,0,0-.26,1,40.68,40.68,0,0,1,.26,4.12c-.14.25-1.23.76-1.21.9s.6,1.42-.09,1.37-2.28,0-2.28,0l.74-1.16a.48.48,0,0,1,.17-.49c.25-.26.83-.62.83-1a13.85,13.85,0,0,0,.19-3.34c-.23-1.12-.33-2.19-.33-2.19s-1-4.55-1-4.94-1.54-.84-1.91-1.68a3,3,0,0,1-.32-1.26,19.63,19.63,0,0,1-.68-2.34c-.18-1-1.32-1.6-1.88-4.48a7.26,7.26,0,0,1-1.9.74c-.44,0-.37,1.4-1.47,1.33s-1.48-1.77-1.46-2.33.84-1.27.91-1.51.74-1.13.74-1.32-.07-1.37,0-1.65a8.89,8.89,0,0,1,1.16-1.53s-1.05-.65-1.05-1.42-.23-1.49.21-1.72S9.45,12.05,9.45,12.05Z"/></g></g></svg>