<svg xmlns="http://www.w3.org/2000/svg" viewBox="0 0 51.9 51.9"><defs><style>.cls-1{fill:#9c9;}.cls-2{fill:#183319;}</style></defs><title>zebu</title><g id="Layer_2" data-name="Layer 2"><g id="zebu"><circle class="cls-1" cx="25.95" cy="25.95" r="25.95"/><path class="cls-2" d="M45.06,15.17a9,9,0,0,0-2.55.25c-.33,0-.25-.3-.25-.71s.84-1.3,1.55-2,.37-1,0-1a23.91,23.91,0,0,0-3.17,2.16,8.65,8.65,0,0,1-3,0c-.29-.16-3-1.95-3.34-1.75s.38,1,.38,1c-1.34-.5-2.5,1-2.88,1.3a15,15,0,0,1-3.5.75c-.37,0-5.67-.55-6.46-.8a61.68,61.68,0,0,0-6.59-1,12.28,12.28,0,0,0-3,.79,5.78,5.78,0,0,0-3.62,3C8,18.25,8.39,27.84,8,29.06a34.22,34.22,0,0,0-1,5.28v3.29a5.63,5.63,0,0,1,.41-1.78c.07.16-.09,2.46.26,1.91A13.28,13.28,0,0,0,8,34.34s.35.74.35.61-.13-3.43.35-3.17c.83.51,1.09,7.3,1.22,7.46s.38-.2.51,0,.13,1.28.57,1.4,1.48,0,1.41-.44-1.05-2.88-1.31-3.88a13.56,13.56,0,0,1,.26-4.51,18.93,18.93,0,0,1,1.95-3.58c0,.38-.86,2.78-.8,3.13s3.1,5.06,3.52,5.83.19,1.31.35,1.54.55,0,.55,0a1.7,1.7,0,0,0,1.76.83c.8-.13.48-.32-.29-1.38a16.66,16.66,0,0,1-2.88-6.27c0-.74,1.05-5.15,1.05-5.15,2.79.22,3.91,3.26,5.12,2.46s7-.13,7.27.32.8,6.69.89,7.55-.32,3-.19,3.2.29.23.29.35.09,1.57.51,1.73,1.5.35,1.79-.22-.51-1.63-.64-1.7a4.57,4.57,0,0,1-.33-3.77,19.72,19.72,0,0,0,1.25-5.09c.12-1,.29-.63,2-1.13s1.62-1.66,3.33-2.33,1.42-3.46,1.5-3.63.3.34,1,.25a5,5,0,0,0,1.76-.66c.58-.3.16-1.46.08-2.25a37.44,37.44,0,0,1,.37-4.72c.09-.29,1.3.05,1.59,0s2.12-1,2.08-1.25S45.75,15.37,45.06,15.17ZM9.93,27.59a5.51,5.51,0,0,1-.77,1.79,39.57,39.57,0,0,1,0-7.84C9.87,22.81,10,26.82,9.93,27.59Z"/></g></g></svg>