<svg xmlns="http://www.w3.org/2000/svg" viewBox="0 0 51.9 51.9"><defs><style>.cls-1{fill:#9c9;}.cls-2{fill:#183319;}</style></defs><title>zedonk</title><g id="Layer_2" data-name="Layer 2"><g id="zedonk"><circle class="cls-1" cx="25.95" cy="25.95" r="25.95"/><path class="cls-2" d="M44.6,30.82c-.6,0-1.24-1-1.24-1a9.71,9.71,0,0,1,.23,3.73A9.24,9.24,0,0,0,43.26,37c.13.84.64,3.73-1.47,4s-2.68.88-3,0a1.59,1.59,0,0,1,0-1.33c0-.25-1.61-2.84-1.54-4.16.06-.59-1.15-1.51-.62-2.71a9.11,9.11,0,0,0,.75-1.77,5,5,0,0,0-.13-1.41c-.1-.3-2.42-3.58-2.9-3.55S32.26,30,32.25,30.4s.68,3,0,4.85c-.27.64.4,4.92,1,5,0,0,.12.94-2.32.47S29.31,38,29.31,37.81a32.67,32.67,0,0,0,.26-4.41,8.21,8.21,0,0,1,.34-2.58,22.92,22.92,0,0,1-.67-3.53c.13-.43-3.15-1.26-5.66-.71s-5.92-2.37-5.92-2.37a.37.37,0,0,1-.4.39c-.44,0-2.61,5.49-2.51,6.48s.4,4.06,1.2,5.53,1.51,1.66,1.44,2.56c0,.55-2.51,0-2.51-.23s.24-.23.2-.54-.1-1.1-.36-1.07-.81,0-.84-.37S12,29.51,12.11,29.14s1.67-3.15,1.67-3.69-.5-3.38-.5-3.38S9.83,26.5,9.66,29.39c0,.88-.67.91-.67,1.28s-.06,5.32.27,5.94a2,2,0,0,1,.3,1.79c-.27.5-2.24,0-2.21-.31s.51-1,.44-1.23S7,36.2,7,35.89a48.05,48.05,0,0,0,.38-6.5c-.14-2.73-.17-2.23.6-3.71s.7-1.42.74-3.42.56-3.9.56-4.51S8.09,12,11.57,10.26c0,0,3.21-1.71,5.05-1.71S20.94,9.86,22.35,11s4.75,1.3,5.58,1.2a11.58,11.58,0,0,1,5.27.5s.93.3.93.45v.91l.63-.8.43,1,1-.37L36,15.53l.71-.72.13.81.55-.64L37,16.72l.91-.64-.39,1.09.93-.77,1,.81-1,.74,1.47-.29-.72.9,1.33-.43a3.56,3.56,0,0,1,.46,1c0,.24-1.08.5-1.08.5a4.12,4.12,0,0,1,1.48-.08s-.69.95-.51.92c1-.22,1.16.33,1.16.33l-.4.62.82.52-.82.58,1.35.13-.14.47s.29,1.3.76,1.3a1.4,1.4,0,0,1,1.11,1c0,.36.5,1.69.24,1.85s-.77-.07-.77-.07l.64,1.14h-.58l.55,1-.23.12.05.47h-.29S45,30.81,44.6,30.82Z"/></g></g></svg>