<svg xmlns="http://www.w3.org/2000/svg" viewBox="0 0 214.65 50.71"><defs><style>.cls-1{fill:#86c3b1;}</style></defs><title>backgroundboardwide</title><g id="Layer_2" data-name="Layer 2"><g id="Layer_1-2" data-name="Layer 1"><path class="cls-1" d="M19.53,38.86c-.65-.56-.8-1.08,0-1.8-.71-.08-1.39-.19-2.08-.22-2.11-.07-4.24-.06-6.34-.18-1.89-.11-3.89,0-5.55-.69-1-.38-1.12-1.24-.27-1.67.48-.24.46-.5.48-.84a5.1,5.1,0,0,1,.64-1.69c.14-.31.37-.61.52-.92,0-.07-.1-.19-.23-.24-.36-.14-.76-.27-1.15-.39-.66-.21-1-.8-.67-1.19a.26.26,0,0,0,0-.33c-.38-.49-.24-.8.59-1.09s1.62-.52,2.58-.83c-.8-.27-1.53-.47-2.13-.74s-1-.63-1.6-.92a2.49,2.49,0,0,0-.81-.26c-.69-.08-1.41-.09-2.09-.19-1.09-.16-1.86-1-1.16-1.49.15-.1.2-.24.34-.34.32-.22.28-.38-.07-.6-.63-.42-.23-.91.76-1,1.6-.15,3.22-.39,4.83-.4s3-.36,4.46-.48c1.34-.1,2.67-.27,4-.45s2.39-.38,3.58-.58l0-.11c-1-.17-2-.37-3-.51-.6-.09-1.25-.11-1.88-.15-1.68-.08-3.36-.17-5-.23a22.42,22.42,0,0,0-4,.43,12.24,12.24,0,0,1-2.09.14C.88,18.84.38,18.3.45,17.68c.15-1.23,1.25-2.4.93-3.67-.1-.4.53-.69,1.11-.85a20.52,20.52,0,0,1,2.15-.35A8.24,8.24,0,0,0,6,12.49a7.71,7.71,0,0,1,2.06-.22c1,0,2,0,3,0,.59,0,1.16-.1,1.92-.17a16.91,16.91,0,0,0-4.32-1c-2.23-.35-4.43-.76-6.6-1.19a2.69,2.69,0,0,1-1-.62,2.5,2.5,0,0,1-.6-.56C.16,8.27.33,8,1,7.77l1.24-.45c-.26-.21-.51-.39-.72-.59s-.1-.48.21-.67c.55-.35,1.16-.68,1.78-1-.4-.12-.89-.28-1.41-.4C1.08,4.36.3,4,.23,3.38a7,7,0,0,1,0-1.88c.1-.6,1.07-.82,2-.89C4,.48,5.74.43,7.5.36c2.63-.11,5.27-.22,7.92-.3,1.32,0,2.65,0,4,0,3,0,5.91,0,8.87,0,2.16,0,4.31.07,6.47.11L39.25.2c2.31,0,4.62,0,6.93.09,3.19.08,6.37.19,9.55.31,2.64.09,5.29.2,7.93.31,2.41.09,4.82.2,7.23.28,1.42.05,2.84,0,4.26.06l11.72.14c2.49,0,5,0,7.46.07,2.21,0,4.42.11,6.62.16l7.11.16c2.36.07,4.72.16,7.08.24.83,0,1.65.06,2.48.07,4.59.06,9.18.12,13.78.15,1.29,0,2.58-.11,3.87-.12s2.68,0,4,0,2.79,0,4.18,0c1.81,0,3.62.15,5.43.22.53,0,1.07,0,1.6,0l6.89.08c1.94,0,3.88.11,5.81.06,2.17-.06,4.33-.24,6.49-.36.76,0,1.52-.09,2.28-.1,2.05,0,4.1,0,6.14,0,2.46-.07,4.88.13,7.31.27,1.05.06,2.11.06,3.17.08l7.12.1c1.94,0,3.89,0,5.83.08,1.11,0,2.2.15,3.3.23a.67.67,0,0,1,.36.11c.69.68,2,.89,3.16,1.23a9.32,9.32,0,0,1,2,.73c.64.37,1,.88.69,1.37-.11.2-.74.34-1.16.48a5.21,5.21,0,0,1-.75.13l.17.34c.3.64-.22,1.25-1.35,1.54-.63.17-1.29.31-1.94.45-1.37.3-2.48.72-2.48,1.59l-1.95.28.75.26c1.18.38,2.4.74,3.54,1.15s1.61,1.46.31,2c-.11.05-.19.12-.35.21.47.16.9.32,1.35.46,1,.33,1.64.83,1.79,1.45.05.23-.17.56-.48.73a16.48,16.48,0,0,1-5,1.92.54.54,0,0,0-.39.26c-.16.74-.72,1.17-2.08,1.29-1.89.18-3.81.28-5.72.41a11.13,11.13,0,0,0-1.39.15c1.09.11,2.18.23,3.27.33,2.59.24,5.18.46,7.76.72a24.26,24.26,0,0,1,2.62.47c.57.12,1.06.82.81,1.13s-.15.33.18.46a1.06,1.06,0,0,1,.8.91c0,.34-.22.57-.73.74-.23.08-.46.15-.5.23,0,.42,0,.84,0,1.26,0,.08.07.17.15.24.82.68.26,1.06-.82,1.35-.84.21-1.8.29-2.69.45a1.39,1.39,0,0,0-.7.28c-.47.67-1.65.75-2.66,1A10.78,10.78,0,0,1,200,31a4.47,4.47,0,0,0,.41.69,1.18,1.18,0,0,0,.52.16c2,.32,4,.61,5.91,1a7.51,7.51,0,0,1,1.32.51c.39.15.8.29,1.2.43.75.26,1.52.54,1.61,1,.06.34-.17.68-.29,1.11.49.14,1.2.32,1.88.54.88.28.93,1,.1,1.29-.42.17-.89.29-1.39.45.21.23.54.45.63.7a4,4,0,0,0,.93,1.22c.47.45.35.79-.73,1.28l-.38.18a4.43,4.43,0,0,1,.55.45c.2.26-.38.87-1,1s-1.41.35-2.12.53c0,0,0,0,0,.07,1.18.72.89,1.38-.8,1.75-.75.16-1.55.26-2.51.41l4.15.71c.7.12,1.38.25,2,.4.24,0,.57.16.6.27.14.41.62.66,1.21.89.05,0,.05.08.11.09.4.1.76.2.64.49a6.06,6.06,0,0,0-.28.65.57.57,0,0,0,0,.27c-.23.25-.47.42-.53.61a1.11,1.11,0,0,1-1.07.57c-1.79,0-3.58,0-5.37,0-2.37,0-4.75-.14-7.13-.22-1.51,0-3-.09-4.54-.17s-3.08-.19-4.61-.28c-.76-.05-1.52-.06-2.28-.11s-1.45-.11-2.17-.16c-1.24-.07-2.49-.12-3.73-.18l-4.5-.27c-1-.06-2-.13-3.07-.17-2.22-.09-4.45-.19-6.67-.23-4-.08-7.94-.11-11.91-.17-1.78,0-3.57,0-5.35-.08-2.15-.06-4.3-.15-6.46-.23l-8.36-.32c-2.38-.09-4.77-.14-7.15-.24-3-.12-6-.26-9-.39-1.8-.08-3.6-.14-5.39-.24-2.18-.11-4.35-.26-6.52-.38-1.32-.07-2.65-.1-4-.17-2-.09-4-.2-6.06-.3L95,46.21c-2.55-.1-5.09-.25-7.64-.3s-5.23,0-7.84,0h-.22c-3.44,0-6.88,0-10.32.08-1.87,0-3.75.06-5.62.07q-3.06,0-6.11,0c-2.17,0-4.33,0-6.5-.06l-5.94-.15c-1.55,0-3.11-.07-4.67-.08-2.1,0-4.21,0-6.32,0-2.89,0-5.78.12-8.67.14-1.9,0-3.8-.05-5.7-.06-.83,0-1.66.11-2.49.12s-1.59-.07-2.38-.13c-1.91-.15-3.81-.3-5.7-.47-.91-.09-1.83-.19-2.7-.35-1.46-.28-1.87-.61-1.48-1.55a9.35,9.35,0,0,1,1.06-2A2.45,2.45,0,0,1,7,40.8c1.49-.27,3-.46,4.55-.67s2.8-.33,4.17-.53A18.25,18.25,0,0,0,19.53,38.86Z"/></g></g></svg>