<svg id="Layer_1" data-name="Layer 1" xmlns="http://www.w3.org/2000/svg" viewBox="0 0 113.72 50.71"><title>boardbutton</title><path d="M13.68,40.55a1.56,1.56,0,0,1,0-1.81c-.38-.07-.74-.18-1.1-.21-1.12-.07-2.25-.06-3.36-.18a5.76,5.76,0,0,1-3-.69A1.17,1.17,0,0,1,6.12,36a1,1,0,0,0,.26-.83,8.41,8.41,0,0,1,.33-1.69c.08-.31.2-.61.28-.92a.28.28,0,0,0-.12-.24,6.33,6.33,0,0,0-.61-.39,1,1,0,0,1-.35-1.19.47.47,0,0,0,0-.33.76.76,0,0,1,.31-1.09c.42-.27.86-.52,1.37-.83a10.08,10.08,0,0,1-1.13-.74c-.32-.27-.55-.63-.85-.93a1,1,0,0,0-.42-.25c-.37-.08-.75-.09-1.11-.19-.58-.16-1-1-.62-1.49.08-.1.11-.24.18-.34a.42.42,0,0,0,0-.61.59.59,0,0,1,.4-1,15,15,0,0,1,2.56-.4A15.42,15.42,0,0,0,8.94,22a17.43,17.43,0,0,0,2.12-.46c.63-.16,1.26-.38,1.89-.57V20.9c-.53-.18-1.06-.37-1.6-.51a5.51,5.51,0,0,0-1-.15c-.89-.08-1.79-.17-2.68-.23a6.58,6.58,0,0,0-2.14.43,3.53,3.53,0,0,1-1.11.14c-.62-.06-.89-.59-.85-1.21.08-1.24.66-2.4.49-3.67a.91.91,0,0,1,.59-.85,6.27,6.27,0,0,1,1.14-.35,2.75,2.75,0,0,0,.73-.32A2.43,2.43,0,0,1,7.62,14c.52,0,1,0,1.57,0a7.6,7.6,0,0,0,1-.17,5.75,5.75,0,0,0-2.28-1c-1.18-.35-2.35-.76-3.5-1.2-.22-.08-.37-.39-.53-.61a2.8,2.8,0,0,1-.32-.56.67.67,0,0,1,.29-.91L4.52,9c-.14-.21-.27-.39-.39-.59a.56.56,0,0,1,.11-.67c.3-.35.62-.69,1-1-.21-.12-.47-.28-.75-.41a1.43,1.43,0,0,1-1-1.23,14.59,14.59,0,0,1,0-1.87c.05-.6.57-.82,1.07-.89.93-.13,1.86-.18,2.79-.25,1.4-.11,2.8-.22,4.2-.3.7,0,1.41,0,2.11,0,1.57,0,3.13-.05,4.7,0,1.14,0,2.28.07,3.43.11l2.38.09c1.23,0,2.45,0,3.68.08,1.68.08,3.37.2,5.05.32,1.41.09,2.81.2,4.21.31s2.55.2,3.83.28c.75,0,1.5,0,2.25.06l6.21.14c1.32,0,2.64,0,4,.07,1.17,0,2.33.11,3.5.16l3.77.16c1.25.07,2.5.16,3.75.24.44,0,.88.06,1.31.07,2.44.05,4.87.12,7.3.15.69,0,1.37-.11,2.06-.12s1.42,0,2.13,0,1.47,0,2.21,0c1,0,1.91.15,2.87.22.29,0,.57,0,.85,0l3.66.07c1,0,2,.12,3.07.07s2.29-.24,3.44-.37c.4,0,.8-.08,1.21-.09,1.08,0,2.17,0,3.25-.06a24.93,24.93,0,0,1,3.87.28c.56.06,1.12.06,1.69.08,1.25,0,2.51.06,3.76.09,1,0,2.07,0,3.1.09.58,0,1.16.15,1.74.23a.29.29,0,0,1,.2.11c.36.68,1.06.89,1.67,1.23a4.05,4.05,0,0,1,1,.73,1.46,1.46,0,0,1,.36,1.37c-.05.2-.39.34-.62.48a1.48,1.48,0,0,1-.39.13l.09.34a1.31,1.31,0,0,1-.72,1.54c-.33.17-.68.3-1,.45-.73.3-1.32.72-1.32,1.59l-1,.28.4.26c.62.38,1.27.73,1.87,1.15a1.26,1.26,0,0,1,.17,2,2.2,2.2,0,0,0-.19.21c.25.16.48.32.72.46a1.88,1.88,0,0,1,.94,1.45,1,1,0,0,1-.25.73,7.08,7.08,0,0,1-2.66,1.92.38.38,0,0,0-.2.26,1.26,1.26,0,0,1-1.11,1.29c-1,.18-2,.28-3,.41A3.47,3.47,0,0,0,106,23l1.74.33c1.37.24,2.74.46,4.11.72a7.85,7.85,0,0,1,1.39.47,1.13,1.13,0,0,1,.43,1.13c-.09.2-.08.33.09.46a1.12,1.12,0,0,1,.43.9.76.76,0,0,1-.39.75c-.12.08-.25.15-.26.23,0,.42,0,.84,0,1.26a.44.44,0,0,0,.09.24c.43.68.14,1.06-.44,1.34a12.58,12.58,0,0,1-1.43.46.67.67,0,0,0-.37.28c-.24.67-.87.75-1.4,1a3.2,3.2,0,0,1-.7.12,5.54,5.54,0,0,0,.22.69c0,.08.17.13.27.16,1,.32,2.1.61,3.13,1a3.28,3.28,0,0,1,.7.51l.64.43c.39.26.8.54.85,1a5.5,5.5,0,0,1-.15,1.11c.26.14.63.32,1,.54a.78.78,0,0,1,0,1.29,8.31,8.31,0,0,1-.73.45,3.19,3.19,0,0,1,.33.7,4.42,4.42,0,0,0,.5,1.21c.24.46.18.8-.39,1.29l-.2.18a3.12,3.12,0,0,1,.29.45,1.11,1.11,0,0,1-.52,1c-.36.19-.74.35-1.12.53,0,0,0,0,0,.06a1,1,0,0,1-.42,1.76c-.4.16-.82.26-1.33.41l2.2.71c.37.12.73.25,1.09.4.12.05.29.16.31.27a1.41,1.41,0,0,0,.64.88s0,.09.06.1c.21.1.41.2.34.49s-.11.43-.15.65a1.13,1.13,0,0,0,0,.27,2.63,2.63,0,0,0-.28.61.64.64,0,0,1-.56.56c-1,0-1.9,0-2.85,0-1.26-.05-2.52-.14-3.78-.22-.8,0-1.61-.09-2.41-.17s-1.62-.19-2.44-.28c-.4-.05-.8-.06-1.21-.11s-.76-.12-1.15-.16l-2-.19L97.86,51c-.55-.06-1.09-.12-1.63-.16-1.18-.09-2.36-.19-3.54-.24-2.1-.07-4.2-.11-6.31-.16-.94,0-1.88,0-2.83-.08-1.14-.06-2.28-.15-3.42-.23l-4.43-.32c-1.26-.09-2.53-.15-3.79-.24l-4.78-.39c-.95-.08-1.91-.14-2.86-.24-1.15-.11-2.3-.26-3.45-.38-.7-.07-1.4-.11-2.1-.17l-3.22-.31-1.86-.16c-1.35-.11-2.7-.25-4-.3s-2.77,0-4.15,0h-.12l-5.46.09c-1,0-2,.06-3,.07s-2.16,0-3.24,0-2.3,0-3.44-.06l-3.15-.15c-.82,0-1.65-.07-2.47-.08-1.12,0-2.24,0-3.35,0-1.53,0-3.06.12-4.59.14-1,0-2-.06-3-.06-.44,0-.88.11-1.31.11A9,9,0,0,1,11,47.5c-1-.15-2-.3-3-.47a8.81,8.81,0,0,1-1.43-.36c-.77-.27-1-.6-.78-1.54a13.67,13.67,0,0,1,.56-2,1.28,1.28,0,0,1,.7-.65c.79-.27,1.6-.46,2.41-.67s1.48-.33,2.21-.53A5.91,5.91,0,0,0,13.68,40.55Z" transform="translate(-3.33 -1.69)"/></svg>