<svg id="Layer_1" data-name="Layer 1" xmlns="http://www.w3.org/2000/svg" viewBox="0 0 574.19 293.02"><defs><style>.cls-1{fill:#7b3122;}.cls-2{fill:#172f18;}</style></defs><title>LakeTobiasLogo</title><path class="cls-1" d="M50.93,126.48a27.37,27.37,0,0,1,2.88,0,33.55,33.55,0,0,0,5.67,0c3.29-.18,6.6-.1,9.88-.35,2.93-.23,5.81.22,8.72.26,1.38,0,2.76.2,4.14.19,1.58,0,3.16-.15,4.74-.27,2.7-.19,5.4-.44,8.11-.61,2.29-.15,4.58-.21,6.87-.33a1.48,1.48,0,0,1,1.58.82,2.18,2.18,0,0,1,.15,1.11,13.65,13.65,0,0,1-.34,1.64,2.67,2.67,0,0,0,.39,2.16,4.3,4.3,0,0,1,.7,3.74,2.24,2.24,0,0,0,1.09,2.82c.54.31.54.71.27,1.22-.38.7-.73,1.42-1.06,2.15a6,6,0,0,0-.42,1.23c-.18.8,0,1.09.83,1.25a10.18,10.18,0,0,1,1.55.32c-.67.07-1.33.17-2,.2s-1,.13-1.07.83-.54,1.2,0,1.95c.24.33.15,1,.42,1.51.42.74.92,1.2,1.84.9.09,0,.21.05.41.11a1.36,1.36,0,0,1-1.55.61c-1-.15-1.12,0-1.18,1a14.75,14.75,0,0,1-.88,4.54,2.17,2.17,0,0,0,0,1.38,1.23,1.23,0,0,1-.59,1.54,10.34,10.34,0,0,1-4.61,2.06c-2.92.4-5.8,1-8.7,1.55a2.43,2.43,0,0,1-.47.08c-3.54,0-7.08,0-10.62,0-2.27,0-4.55-.25-6.81-.21-2.55.05-5.1.32-7.64.45-2,.11-4.1.14-6.16.06-2.82-.11-5.65,0-8.48,0a9.18,9.18,0,0,0-1.38.07,8.45,8.45,0,0,0,4,.54c1.55-.12,3.09-.29,4.64-.35a23,23,0,0,1,3.1.13,26.81,26.81,0,0,0,5.94.06c1.44-.18,2.91-.12,4.36-.25a89,89,0,0,1,10.46,0c1.63.05,3.27,0,4.9,0,1,0,1.9,0,2.86,0a50,50,0,0,0,7.71-.78c1.25-.17,2.49-.43,3.74-.64a1.51,1.51,0,0,1,1.54.69l-3.35.61c-2.19.4-4.37.86-6.58,1.16a38.35,38.35,0,0,1-4.3.18c-1.76,0-3.52.08-5.28.08-1.11,0-2.22-.05-3.33-.09a99.91,99.91,0,0,0-10.38.24l-3.11.21a48.51,48.51,0,0,1-7.23-.18,19.25,19.25,0,0,0-4,.18,17.78,17.78,0,0,1-6.92-.41c-.15.18-.28.38-.44.54a1.19,1.19,0,0,1-1.87.06c-.62-.78-1.61-.63-2.33-1.12-.13-.1-.51.09-.74.22a3.94,3.94,0,0,0-.68.57l-.34-1a1.34,1.34,0,0,0-.35-.1,7.47,7.47,0,0,0-.95.12c-.41.08-1,.06-1.18.32s0,.8,0,1.21a8.62,8.62,0,0,1-.2,1.08l-.61-1.12-.6.46a7.27,7.27,0,0,0-.23-1.06,1.32,1.32,0,0,0-.47-.72c-.29-.16-.52.12-.79.31a11.4,11.4,0,0,1-2,.93c-.36.15-.75.22-1.22.36l-.53-1.06c-.3.94-.58,1.75-.81,2.58s-.42,1.73-.71,2.61a6.43,6.43,0,0,1-.31-2.69c.26-1.75.12-1.89-1.6-1.88H25.78l-.29-.76c-.53.41-1.17.67-1.4,1.14s-.86.58-1.28,1c-.07-.12-.19-.23-.21-.36-.1-.77-.63-.83-1.24-.75l-2.91.43c-.11-.47-.23-1-.33-1.46s-.11-1.15-.9-1.2c-.12,0-.26-.17-.36-.29a1.62,1.62,0,0,0-1.82-.47c-1.8.37-2.16.08-2.21-1.82s0-3.58-.1-5.36c-.19-2.75.38-5.47.21-8.2-.1-1.59-.28-3.18-.41-4.77s-.23-3.26-.35-4.89c-.15-2.1-.37-4.19-.45-6.29-.1-2.6-.08-5.2-.12-7.8,0-1.79-.08-3.58-.1-5.37,0-2.14,0-4.27-.07-6.4-.08-1.79-.33-3.56-.53-5.34-.16-1.49-.33-3-.52-4.48-.34-2.75-.72-5.49-1.05-8.24-.19-1.58-.35-3.16-.46-4.75q-.2-2.9-.26-5.81c0-1.91,0-3.82,0-5.73-.07-2.94-.21-5.88-.29-8.83-.06-2.3,0-4.6-.12-6.9,0-1.14-.27-2.27-.27-3.41,0-2.95.08-5.89.11-8.84,0-.83-.1-1.67-.1-2.5,0-2.5.11-5,0-7.49s-.37-5.25-.48-7.87c-.11-2.82-.1-5.65-.15-8.48,0-1.47-.07-2.93-.09-4.39,0-.64,0-1.27,0-2l1.25-.74,1.59.88L9.6,15l.86.22.08-1.32,1.17.29.7,3.7.21,0a1.7,1.7,0,0,0,.21-.65,2.3,2.3,0,0,1,.76-2.12c.35-.31.45-.89.68-1.34a4.57,4.57,0,0,1,.58-1c.53-.6.93-.49,1.29.24A5.17,5.17,0,0,0,17,14l.46-1.14c.73.24,1.59-.19,2,.82l.91-4.34c1.07.94,2.25.86,3.45,1.11.78-1.18,2.27-1,3.59-1.44l.26,1.32.2,0c.12-.51.27-1,.34-1.54s.08-1.09.62-1.17a1.62,1.62,0,0,1,1.73.53l.4.58c.32-.17.71-.59,1.05-.07.21.32.36.67.69,1.29L33.3,8c.5.17.87.92,1.44.33.38-.39.74-.8,1.18-1.28.84.63,1.75-.56,2.71,0,.46,1,.91,2,1.44,2.91.21.38.71.61.89,1a10.37,10.37,0,0,1,.29,1.39,40.84,40.84,0,0,1,2,11.81c0,1.82.45,3.63.65,5.44.18,1.62.39,3.25.44,4.88.11,3.39.13,6.78.19,10.18a1.45,1.45,0,0,0,0,.36,17.17,17.17,0,0,1,.25,3.21c0,1.07.06,2.15.09,3.23.1,3.3.18,6.61.31,9.92.12,3,.33,6,.45,9,.15,3.65.15,7.31.41,11a56,56,0,0,0,1,8.74A92.61,92.61,0,0,1,49,103a6.06,6.06,0,0,0,.75,2.59,7.27,7.27,0,0,1,.64,2.65,29.06,29.06,0,0,1,.34,6.53,45.05,45.05,0,0,0,0,4.65,4.46,4.46,0,0,0,.22.91c.1.41.33.81-.09,1.22-.13.13-.12.46-.11.69C50.74,123.55,50.83,124.89,50.93,126.48Zm-40-101.61h-.22L10.78,27h.11Zm0-4.92h0v.82h0Z" transform="translate(-7.25 -5.43)"/><path class="cls-1" d="M241.9,230.69c.11,2,1.78,3.2,2.1,5.1a1.37,1.37,0,0,1-1.56-.66,74.06,74.06,0,0,1-4.44-7.86,18.2,18.2,0,0,0-1.31-2c-.66-1-1.28-2.06-1.95-3.07a21.92,21.92,0,0,1-1.24-2.47,24.41,24.41,0,0,1-1-3.27c-.57-1.72-1-3.48-1.55-5.31a2.14,2.14,0,0,1-2.41-.13,46.75,46.75,0,0,1-.7-7.72c-.13-1.86-.38-3.71-.55-5.57-.11-1.23-.23-2.46-.26-3.7q-.13-6.47-.19-12.92a11.68,11.68,0,0,1,.25-2.12,1.42,1.42,0,0,1,.37-.86c.74-.54.68-1.29.71-2,.08-2.33.2-4.67.26-7,0-.79-.14-1.59-.13-2.38,0-1.51,0-3,.18-4.53.26-2.85.61-5.69.93-8.54,0-.16.11-.32.08-.46-.51-2,.3-3.66,1-5.39.87-2.14,1.68-4.31,2.63-6.41a21.49,21.49,0,0,1,3.44-5.59c.16-.17.3-.43.5-.49,1.38-.4,2.09-1.56,3-2.52a10.55,10.55,0,0,1,3.89-2.91,1.94,1.94,0,0,1,.68-.22c1.24.06,2.18-.65,3.21-1.17,1.52-.77,3.07-1.5,4.63-2.2.23-.11.57,0,.9,0-.22.54-.87.68-.79,1.31a81.29,81.29,0,0,1,9.7-3,24.13,24.13,0,0,1,4.48-.6c2.3-.12,4.61-.11,6.92-.07a12.64,12.64,0,0,1,2.57.42c1.5.35,3.11.28,4.45,1.22,1.4-.23,2.48.73,3.72,1.08a16.43,16.43,0,0,1,3.18,1.62,28.68,28.68,0,0,1,6.83,5.73c.85.88,1.59,1.87,2.36,2.83a41.3,41.3,0,0,1,4.16,6.24,37.84,37.84,0,0,1,2.14,5.66c.21.59.4,1.19.59,1.79a4.67,4.67,0,0,1,.48,1.59,3.93,3.93,0,0,0,.88,2.36,5.47,5.47,0,0,1,.79,2.35,19.11,19.11,0,0,0,.49,2.82,10.51,10.51,0,0,1,.06,4.83,15,15,0,0,0-.11,2.93c0,1.46.08,2.92.11,4.38.07,3.66.15,7.32.2,11,0,3,0,6.05.09,9.08,0,1.79.28,3.57.34,5.36,0,1.37,0,2.75-.06,4.13,0,.59,0,1.18-.05,1.77,0,1.66,0,3.32-.09,5,0,.61.17,1.31-.49,1.75.17.9-.55,1.25-1.06,1.75a1.82,1.82,0,0,0-.32.75c-.51,1.75-1,3.52-1.55,5.25a52.91,52.91,0,0,1-2.3,5.87,37.76,37.76,0,0,1-3.07,5.2,13.68,13.68,0,0,1-2.37,2.17,3.53,3.53,0,0,0-.6.55c-.92,1.41-2.37,2.21-3.57,3.3a43.22,43.22,0,0,1-5.25,3.7,35.23,35.23,0,0,1-3.8,2c-.86.42-1.8.68-2.62,1.16a15.58,15.58,0,0,1-4.27,1.48,31.47,31.47,0,0,1-8.75.87,23.48,23.48,0,0,1-10.14-2.37,54.71,54.71,0,0,1-9.27-5.68,33,33,0,0,1-2.81-2.74c-.65-.65-1.3-1.31-2-1.94A6.76,6.76,0,0,0,241.9,230.69ZM269,153.38c-.77,1.62-1.66,2.94-2.32,4.42a22.75,22.75,0,0,0-1.87,8.42,5.46,5.46,0,0,0,.48,3.46,1.1,1.1,0,0,1,.11.58c0,2.57,0,5.15.12,7.73a1.91,1.91,0,0,1-.6,1.41c-.17.19-.43.41-.44.64a14.46,14.46,0,0,0,.06,2c.11,1.66.26,3.32.35,5a18.07,18.07,0,0,0,.11,3.69,44.56,44.56,0,0,1,.6,4.69c.27,1.77,0,3.66,1,5.29.11.17,0,.47.07.7.13,1.27.23,2.53.41,3.79.09.63.34,1.23.49,1.84.31,1.22.6,2.43.91,3.71a8.82,8.82,0,0,0,3.73-6.07c.43-2.9.55-5.84.81-8.77.15-1.7-.1-3.46.6-5.08a5.89,5.89,0,0,0,.39-2.58c-.07-1.82-.13-3.65-.22-5.48-.24-4.58-.48-9.16-.75-13.74a13.57,13.57,0,0,0-.31-2.47q-1.14-4.87-2.39-9.71A8.43,8.43,0,0,0,269,153.38Zm-37,13.16a1.9,1.9,0,0,0-.57,1.68c-.07,1-.2,2.06-.27,3.09-.05.85,0,1.71-.05,2.56a3.67,3.67,0,0,1,0,1,12.64,12.64,0,0,0-.49,4.1c-.06,2.21,0,4.43,0,6.65a2.8,2.8,0,0,1-.4,1.45,1.94,1.94,0,0,0-.24,1.8,3.62,3.62,0,0,1,.21.92c.07,1.47.11,2.94.16,4.41,0,.56,0,1.12.09,1.67.26,2,.53,4,.84,6a1.82,1.82,0,0,0,.56,1.34c0-.34.05-.53,0-.72-.12-2-.34-4.05-.33-6.08a30.85,30.85,0,0,1,.54-4c.84-.73.62-1.75.61-2.65,0-2.86-.22-5.72-.3-8.58-.11-3.86-.18-7.71-.27-11.57C232,168.67,232,167.7,232,166.54Zm32.76-13-.26-.16c-.37.39-.75.78-1.11,1.18a2.13,2.13,0,0,0-.81,1.64c0,.43-.3.67-.66.9-.75.47-.81.73-.53,1.55a1.94,1.94,0,0,1,.11.68,30,30,0,0,0-.06,3.55c.16,2.73.17,5.46.28,8.19a9.51,9.51,0,0,0,.32,1.57l.3,0c0-1.19,0-2.37,0-3.56.05-1.58.09-3.17.23-4.75a19.22,19.22,0,0,1,.49-2.06c.39-1.94.75-3.88,1.13-5.82C264.37,155.42,264.56,154.46,264.75,153.5Zm-2,44.91c0,1,0,1.94,0,2.84s-.1,1.75.73,2.34c-.35.52-.92.77-.63,1.51.52,1.32.85,2.72,1.37,4.05a16.43,16.43,0,0,0,1.19,2.17l.24-.09c-.07-.75-.09-1.5-.22-2.23-.35-1.87-.76-3.72-1.13-5.59a16,16,0,0,1-.52-2.8A3.05,3.05,0,0,0,262.76,198.41Z" transform="translate(-7.25 -5.43)"/><path class="cls-1" d="M332.43,124.92c2.91-1.38,5.94-.94,8.94-.6,2,.23,4,.56,6,.89,1.17.2,2.33.47,3.49.77,1.65.42,3.29.89,4.93,1.34a1.28,1.28,0,0,1,.35.09c2.43,1.27,5.07,2.1,7.37,3.65.92.62,2,1,2.86,1.71,1.81,1.49,3.55,3.08,5.25,4.69a12.06,12.06,0,0,1,1.09,1.7,22.77,22.77,0,0,1,3.3,7,15.33,15.33,0,0,0,1.17,2.46,12.78,12.78,0,0,1,1.46,3,11.55,11.55,0,0,0,.82,2.18,3.05,3.05,0,0,1,.17,1.17,53.08,53.08,0,0,1-.21,7.24,5.75,5.75,0,0,1-.14.94c-1.52,4.1-2.87,8.29-5.33,12-.84,1.26-1.81,2.43-2.74,3.63-.24.31-.5.6-.78.92l.49.56c-.94,0-.94,0-1.42,1.17.8.41,1.61.81,2.4,1.26a25.49,25.49,0,0,1,9.28,9.14,38.08,38.08,0,0,1,1.86,3.86c.56,1.23,1.08,2.48,1.61,3.72.92,2.16,1,4.51,1.45,6.77a35,35,0,0,1,.45,8.61,19.49,19.49,0,0,1-2.28,8.13c-.31.6-.58,1.22-.87,1.83a46.88,46.88,0,0,1-4.15,6.86c-.5.72-.91,1.49-1.43,2.19a14.73,14.73,0,0,1-4,3.2c-2.22,1.43-4.41,2.9-6.66,4.28a10.17,10.17,0,0,1-3.7,1.58,15.34,15.34,0,0,0-2.32.55,14.36,14.36,0,0,1-4.59.65c-1.11,0-2.22-.15-3.32-.2a15.22,15.22,0,0,0-3.09,0,35.2,35.2,0,0,1-6.57.09c-1.7-.07-3.41-.11-5.09-.3a12.66,12.66,0,0,1-4-.93.42.42,0,0,0-.23-.06c-1.24.14-2.19-.66-3.24-1.07a26.5,26.5,0,0,0-7.18-2,1.86,1.86,0,0,0-1.14.14,1.88,1.88,0,0,1-2,.09c-.95-.41-.95-.41-1.69.5-.88-1-2.16-1.64-2.36-3.24-.14-1.14-1.25-1.3-2-.42a3.47,3.47,0,0,1-.29.38.59.59,0,0,1-1-.08,1.3,1.3,0,0,1-.14-.32c-.68-2.72-1.77-5.32-2-8.15a130.61,130.61,0,0,1-.67-14.79c.07-2.35.22-4.69.29-7,0-1.59,0-3.19,0-4.78.06-2.79,0-5.58.27-8.34.33-3.47-.08-6.92-.07-10.37,0-1.26.1-2.51.15-3.76s0-2.78,0-4.17c0-3.11,0-6.22-.13-9.33-.05-1.75-.26-3.49-.4-5.24,0-.51-.06-1-.05-1.55a21.65,21.65,0,0,0-.43-4.75A18.86,18.86,0,0,1,310,152c-.29-3.45-.76-6.89-.73-10.36,0-.31,0-.63,0-1l1.56-.57.94,1.95c.06-.86,1-1.36.94-2.36a.45.45,0,0,1,.09-.34,2.77,2.77,0,0,1,.77-.79c.1,0,.46.39.72.63,0-.31.07-.68.11-1.13l.64.24c.61-.45,1.42-.75,1.45-1.78,0-.19.34-.41.56-.56.46-.31.95-.58,1.42-.86a1.77,1.77,0,0,0,0-.24c-.22-1.68-.22-1.68,1.32-2.64.77-.48.77-.48.43-1.39a1.79,1.79,0,0,1,1.07-2.25,21.74,21.74,0,0,1,3.35-1.58,45.66,45.66,0,0,1,4.51-1.11,2.18,2.18,0,0,1,.81.15,5.69,5.69,0,0,0,.91.2C332.22,126.24,332.25,126.2,332.43,124.92ZM354,128.71l2.06.61c-.62-.48-1.24-1-2.06-.61-.09-.14-.14-.39-.26-.43-1.15-.36-2.25-1.16-3.66-.28l.26-.53c-.64,0-1.36.2-1.85,0-.74-.36-1.76-.06-2.26-1,0-.08-.4-.07-.55,0s0,.37-.37.32c-2.51-.32-5-.64-7.56-.86A7.19,7.19,0,0,0,333,127.3c-.09.06-.1.24-.21.56.73-.18,1.29-.38,1.86-.46a40.53,40.53,0,0,1,11.43.12c1.83.29,3.64.75,5.46,1.13.22,0,.58.17.66.07C352.82,128,353.41,128.56,354,128.71Zm-10.13,67c-1.1,0-2.06,0-3,0a4.06,4.06,0,0,0-1.37.34,1.14,1.14,0,0,0-.59.69,10.94,10.94,0,0,0-.06,2.14c.14,2,.41,4,.49,5.94.09,2.46,0,4.92.08,7.38s.27,4.68.4,7c0,.84,0,1,.94,1a43.89,43.89,0,0,0,5.12.18c2.7-.14,5.39-.47,8.08-.7a21.8,21.8,0,0,0,6.62-1.39A4.37,4.37,0,0,0,363.1,216a11.54,11.54,0,0,0,.81-4.32,9.81,9.81,0,0,0-1.06-5.69,16.27,16.27,0,0,0-5-5.73c-.63-.41-1.19-.94-1.83-1.35a13.6,13.6,0,0,0-2.8-1.57,38.89,38.89,0,0,0-5.44-1.33A31.67,31.67,0,0,0,343.88,195.75Zm-5-20.86c.66,0,1.25,0,1.83,0a46.94,46.94,0,0,0,9.7-1.84,37.92,37.92,0,0,0,7.93-3.57,6.08,6.08,0,0,0,2.26-2.07,20.83,20.83,0,0,1,1.39-1.95,1,1,0,0,0,.18-1.19c-.5-.9-1-1.83-1.5-2.7a16.3,16.3,0,0,0-4.13-4.43,31,31,0,0,0-10.08-4.81c-2.66-.76-5.38-1.35-8.08-2a9.74,9.74,0,0,0-3-.25c.52,2.78.94,5.5,1.55,8.17a79.7,79.7,0,0,1,1.11,8.27C338.34,169.27,338.6,172,338.9,174.89Zm-.54-49.21v-.22l-.71.09Z" transform="translate(-7.25 -5.43)"/><path class="cls-1" d="M179.57,89.55a45.73,45.73,0,0,0-.76,9.85,55.35,55.35,0,0,1,.12,5.61c-.12,2.27-.45,4.52-.69,6.77a1.69,1.69,0,0,1-.2.68c-1.15,1.71-1.35,3.72-1.93,5.62-.37,1.17-.4,2.51-1.39,3.49-.12-.1-.26-.16-.29-.25-.25-.84-.69-1.41-1.69-1.27-.13,0-.3-.11-.4-.22-.45-.44-.88-.9-1.39-1.43l.35-1c-.19-.11-.39-.32-.5-.28a4.73,4.73,0,0,0-1.5.66,4.06,4.06,0,0,0-.76,1.18l-.83,1.41c-.15-.14-.19-.16-.21-.19-.31-.41-.53-1-.93-1.16s-1,.21-1.43.42a1.25,1.25,0,0,1-1.24-.17,5.61,5.61,0,0,0-3.54-.73,3.52,3.52,0,0,1-.8-.18c-.26-.06-.59-.19-.8-.1-.84.38-1.26-.13-1.68-.69a1.13,1.13,0,0,1-.12-.21,2.71,2.71,0,0,0-2.51-1.71c-1.81-.24-2.23-.77-2.34-2.61-.05-.95-.09-1.9-.22-2.84a18.88,18.88,0,0,0-.47-1.94l-.3,0-.6,1.55h-.18l-.27-2-.63-5.33a35.91,35.91,0,0,1-.29-8.79c.12-1,0-2.07,0-3.1,0-.33-.56-.14-.46-.58a6.67,6.67,0,0,0,.08-1.19c0-.35,0-.7,0-1.05s0-.8,0-1.2-.1-.79-.14-1.19-.09-.79-.1-1.19,0-.72,0-1.08,0-.8,0-1.2c.06-3,.13-6,.18-9,0-1.46.05-2.92,0-4.38,0-.75-.19-1.49-.25-2.24-.19-2.33-.35-4.67-.53-7-.11-1.33-.28-2.67-.34-4-.07-1.86,0-3.73-.09-5.59,0-1.44-.13-2.87-.21-4.3-.1-1.75-.21-3.5-.34-5.24-.15-2.13-.44-4.26-.48-6.39,0-1.89-.42-3.77,0-5.67a16.69,16.69,0,0,0,.2-2.13,1.12,1.12,0,0,1,.06-.46c.71-1.25.26-2.44-.05-3.71a8.93,8.93,0,0,1,.28-3.9,9.14,9.14,0,0,0,.16-1.17,6.09,6.09,0,0,1,0-1.54c.12-.36.59-.62.87-.89l2.46.57a11,11,0,0,1,1.18-4.08,2.27,2.27,0,0,1,.33.27c.37.41.73.43.84-.15.14-.8.63-.92,1.3-.89a6.08,6.08,0,0,0,2.54-1c.68.28.77,1.66,2,1.08l-.08-1.39a3.8,3.8,0,0,1,3.06-1l.12-1.54c1,.23.83,1.07,1,1.83a1.37,1.37,0,0,1,1.86,0,3.23,3.23,0,0,0,2.64.12,4.2,4.2,0,0,0,1.27-.54,2.91,2.91,0,0,0,.61-.85,4,4,0,0,1,2.13,1.78,3.5,3.5,0,0,1,.82,1.53c0,.29.43.53.62.75.34-.09.67-.28.92-.2s.25.44.21.8a13,13,0,0,0,.59,6.52c0,.11.13.24.1.33-.27.79.22,1.46.31,2.19.1.91.17,1.82.27,2.72.18,1.62.37,3.25.56,4.87.22,1.82.43,3.64.68,5.45.28,2,.6,4.07.94,6.37a7.36,7.36,0,0,0,1.13-.87c1.83-2.25,3.56-4.59,5.46-6.78,3.19-3.65,5.32-7.93,7.57-12.15.66-1.22,1.47-2.37,2.19-3.57,1-1.59,1.88-3.2,2.83-4.79.25-.41.54-.79.86-1.26.4,0,.93.64,1.31-.3l1,1.84c1.18-1.26,1.3-2.85,2-4.25a2.74,2.74,0,0,0,2.1.12,6.62,6.62,0,0,1,1.88-.26c.59,0,1.24,0,1.56.62s.78.25,1.17.37c1.05.34,2.05.35,2.5-1a4.65,4.65,0,0,1,4.83,3.22c.19-.16.41-.26.49-.42a2.11,2.11,0,0,1,2-1.09c.77-.09,1.61.1,2-1l.23.24a16.16,16.16,0,0,1,.3,1.69c.18,2,.44,4.05.45,6.07a20.59,20.59,0,0,1-.5,4.63c-.43,2-.74,3.91-1.06,5.88A25.89,25.89,0,0,1,218.55,31a74.67,74.67,0,0,1-2.94,7.44,42.82,42.82,0,0,1-3.6,5.78c-2.11,3-4.38,5.87-6.51,8.85-1.55,2.17-2.95,4.44-4.48,6.62-1.38,1.95-2.86,3.84-4.29,5.75L195.64,67c.64.69,1.21,1.35,1.84,2,1.92,1.84,3.63,3.87,5.4,5.85a114.29,114.29,0,0,1,9,12c2,3,4,6,6.19,8.94,1,1.33,1.78,2.83,2.69,4.23s1.86,2.88,2.9,4.23a13.72,13.72,0,0,0,1.95,1.76c.17.16.47.34.47.49,0,.85.6,1,1.15,1.33s1.35.8,2.21,1.32a11.64,11.64,0,0,1-4.13,1.22c-.31,0-.66-.24-1-.37-1-.4-2-.7-3,.25-.27.27-.89.18-1.53.29.35.41.63.76.93,1.1.13.15.39.25.42.4a1.53,1.53,0,0,1,0,.9.55.55,0,0,1-.79.29,1.6,1.6,0,0,0-.81-.09c-1.2.23-1.57.79-1.35,2l-1.53.1c-1,.08-1.67.89-2.55,1.26s-1.57.91-2.41,1.21a2.62,2.62,0,0,1-1.51-.08,15.45,15.45,0,0,1-7.39-4.44c-1.69-1.85-3.42-3.67-5.14-5.49-.07-.08-.2-.1-.48-.24a3.57,3.57,0,0,0,.33.85c1.39,1.79,2.68,3.66,4.23,5.29a32.91,32.91,0,0,0,4,3.14c.41.31,1,.49.85,1.16a1.39,1.39,0,0,1-1.43.86,5,5,0,0,1-3.4-1.59c-2.14-2.08-4.18-4.25-6.32-6.34a21.8,21.8,0,0,1-3.3-4.06c-.55-.88-1-1.83-1.53-2.7s-1.17-1.49-1.69-2.28-.78-1.48-1.21-2.19a10.09,10.09,0,0,0-2.13-2.82,3,3,0,0,1-.52-.8c-.48-.78-.93-1.57-1.46-2.31a7.29,7.29,0,0,0-1-.85c-.68-.66-1.35-1.34-2-2C180.26,90.4,180,90.06,179.57,89.55Zm2.86-3.09,1.28,1.43c.56-.94-.38-1.15-.45-1.66Zm3.25,4.19.29-.23-1-1.26-.25.19Z" transform="translate(-7.25 -5.43)"/><path class="cls-1" d="M141.52,117.61c-1.34-.11-2.68-.21-4-.34a4.52,4.52,0,0,1-1-.28,12.47,12.47,0,0,0-1.45-.51,2.09,2.09,0,0,0-2.51,1.13c-.7,1.12-.7,1.12-2,.68a40.22,40.22,0,0,0-4.77-1.56c-1.37-.29-2.72-.91-4.21-.48a1.6,1.6,0,0,1-1.73-.84,3.1,3.1,0,0,0-2.33-1.45,4.31,4.31,0,0,1-3.3-3c-.54-1.7-1.14-3.38-1.71-5.06a1.92,1.92,0,0,0-.14-.33c-1.58-2.44-1.88-5.29-2.53-8-.42-1.78-.87-3.56-1.3-5.34q-.89-3.64-1.78-7.31c0-.23-.14-.45-.23-.75l-5,1,.53.3a25.28,25.28,0,0,1-5.87.78l2,.28v.24L92,87.23c-.09.68-.15,1.25-.26,1.81-.62,3.52-1.28,7-1.87,10.54-.19,1.14-.23,2.3-.34,3.45-.35,3.43-.93,6.79-2.86,9.76a40.41,40.41,0,0,1-4.32,5.86,16,16,0,0,0-1.61,2.45c-.88-.32-1.87-.32-2.49-1.3-1,.66-1.6-.56-2.54-.37l.22-3.26c-.24-.07-.6-.3-.85-.21-.42.15-1,.44-1.1.79-.24.87-1.07.59-1.54,1-.11.08-.59-.11-.71-.3-.38-.59-1.12-1-1.14-1.81,0-.16-.18-.31-.29-.49a1.39,1.39,0,0,0-.34.23c-.75.94-.89,1-1.78.27-.42-.34-.71-.83-1.12-1.2s-1-.74-1.62-1.22l0-.78-.87.59c-.66.46-1.06.41-1.47-.27a3.3,3.3,0,0,1-.52-1.19A2.14,2.14,0,0,0,61,109.65c-1.36-.41-2.31-1.06-2.25-2.72l-1.11.31c0-.06-.15-.1-.15-.16a3.24,3.24,0,0,1,0-1.07c.5-1.79.31-3.64.55-5.46a1.06,1.06,0,0,0,.05-.35c-.44-2,.3-4,.4-6a19.12,19.12,0,0,0,.08-2.62,7.19,7.19,0,0,1,.69-3.22A22.46,22.46,0,0,0,60,84.87c.15-.7.2-1.41.41-2.09A9.61,9.61,0,0,0,61,80.11a13.64,13.64,0,0,1,.47-2.57c.22-1,.49-2,.72-3,.34-1.43.69-2.85,1-4.29.42-1.91.93-3.81,1.17-5.74.26-2.18,1-4.24,1.43-6.37a3,3,0,0,0,.13-.71,16,16,0,0,1,.31-2.76,31,31,0,0,1,1.43-6.86,21.08,21.08,0,0,0,.72-3.5c.37-2.06.67-4.13,1.11-6.18a2.69,2.69,0,0,1,1-1.78c.55-.4.73-1.36.94-2.12.47-1.65.84-3.32,1.27-5,.11-.4,0-1,.8-.92.07,0,.22-.38.29-.6,1-3.19,1.92-6.38,3.15-9.48,0,0,0-.07,0-.11.14-.6.08-1.42.9-1.5a1.86,1.86,0,0,1,2.27,1.22c.43-1,.78-1.64,1.07-2.36s.46-1.42.68-2.12c1,.09,1.83.23,2.7.23a3.09,3.09,0,0,0,1.21-.4c.47-.23.89-.62,1.35,0,.07.1.31,0,.45.11.61.27.91-.43,1.39-.44s.91.21,1.36.2c.22,0,.47-.28.64-.49s.31-.58.5-.85a10.29,10.29,0,0,1,.73-.83,5.79,5.79,0,0,0,.11.7c0,.23.13.45.21.72l2.91.42c.05.17.13.38.2.6.22.7.5,1,1.21.79s1.44,0,2-.59a2.24,2.24,0,0,1,1.82-.42c.22,0,.44-.19.79-.35l1.14,1.49c.63-1.24.7-2.51,2.18-2.73,0-.45-.07-.9-.12-1.36s-.1-.92-.17-1.46l2,.53.49-1.08c1.06.41,2.33-.1,3.39.94L111,7.63l1.56-.86V5.43a5,5,0,0,1,2,2.1,5.9,5.9,0,0,0,2.94,2.22l.44-1.24a4.76,4.76,0,0,1,.74,2.57,3.19,3.19,0,0,0,.16,1.05c.45,1.66.86,3.32,1.37,5,.85,2.73,1.77,5.43,2.65,8.16.77,2.38,1.51,4.78,2.27,7.17.57,1.82,1.18,3.63,1.72,5.46.63,2.13,1.21,4.27,1.82,6.41.21.73.49,1.43.69,2.16.95,3.37,2,6.73,2.8,10.13.58,2.35,1,4.75,1.33,7.15.31,2.13.48,4.27.68,6.41.26,2.82.37,5.65.76,8.45a62.42,62.42,0,0,0,1.78,8.72c1,3.33,1.59,6.75,2.49,10.09a24.45,24.45,0,0,1,.7,8.41,27.73,27.73,0,0,0,.47,7,23.88,23.88,0,0,0,1.13,3.51A1.41,1.41,0,0,1,141.52,117.61ZM94.83,62.2a40.91,40.91,0,0,0,9.07-.07,4.46,4.46,0,0,0-.14-.89c-.8-2.41-1.67-4.8-2.42-7.23a29.67,29.67,0,0,0-2.17-5.79c-.19-.34-.44-.65-.69-1C97.91,48.11,94.81,61,94.83,62.2Zm3.83,23.35v-.12H95.5v.12Z" transform="translate(-7.25 -5.43)"/><path class="cls-1" d="M226.42,126.47a5.36,5.36,0,0,0,3.7,2.6c-.8,1.88-.69,3.5.85,4.81-.56.75-.55,1.85-1.69,2.15.17.34.23.71.45.86.84.58.67,1.34.51,2.14-.06.3-.08.61-.12,1l1.06.26c0,.1,0,.2,0,.21l-1.92.6a12.45,12.45,0,0,0-1.33.49.71.71,0,0,0-.42,1,2.24,2.24,0,0,1-.06,2l1,.77a11.26,11.26,0,0,1-.7,1.74,10.35,10.35,0,0,1-1.21,1.33c-2.62.13-5.29.18-8,.42-1.13.1-2.22.64-3.36.85-2.11.38-4.23.66-6,.92,2.66.54,5.62-.17,8.6-.8a10.46,10.46,0,0,1,5.79.14,8.68,8.68,0,0,1,1,.4,2.41,2.41,0,0,1,1.08,2.48c-.09.28-.39.48-.63.76l.35.71a9.05,9.05,0,0,0-.57,1.89,1.4,1.4,0,0,1-.79,1.37l.86.7a3,3,0,0,1-.88.39c-1.91.08-3.83.16-5.75.19-2.44,0-4.88,0-7.32,0-1,0-2,.27-3,.2-5-.33-10.06.37-15.1.27-.27,0-.54,0-1,.07.06,1,.1,1.85.17,2.74.1,1.08.22,2.15.32,3.22s.18,1.9.23,2.86c.11,2.19.18,4.38.29,6.57.17,3.42.39,6.85.53,10.27.06,1.43-.09,2.87,0,4.3.16,3.74.43,7.48.57,11.23.11,3,.1,6,.14,9v.24c.06,3.35.11,6.7.2,10.05.12,4.55.28,9.09.44,13.64.07,2.16.19,4.31.29,6.47s.16,4.31.33,6.46c.13,1.7.38,3.4.64,5.09a7.3,7.3,0,0,1-.24,2.83c-.15,0-.28.12-.37.09a4.82,4.82,0,0,0-2.69-.57c-.57-.52-1.15-1-1.7-1.59a11.85,11.85,0,0,1-.84-1,23,23,0,0,0-2.11,1.08,2.35,2.35,0,0,0-1.14,1.48,1.15,1.15,0,0,1-1.23.92,1.41,1.41,0,0,1-1.37-.78,8.06,8.06,0,0,0-.74-1.15c-.64.11-.88.36-.67.92a1.77,1.77,0,0,1,.17.57c0,.26-.06.69-.19.73-.3.09-.87.14-1,0-.65-1-1.48-.45-2.26-.33a3.75,3.75,0,0,0-1,.23,7.16,7.16,0,0,0-1,.64,4.21,4.21,0,0,0-1.94-.86,2.84,2.84,0,0,1-1.79-1.2,7.39,7.39,0,0,1-.71-2.11,10.06,10.06,0,0,0-.55-1.54c-.35-.66-.41-.64-1.19-.08l-.6-1.52c-.51.38-.57.73-.23,1a.73.73,0,0,1,.09,1.22,3.64,3.64,0,0,0-.95,2.88,1,1,0,0,1-1.33-.68c-.31-.87-.57-1.74-.85-2.61-1.47-4.59-2-9.35-2.9-14.06-.16-.9-.09-1.83-.16-2.75-.25-3.39-.48-6.78-.78-10.16a129.09,129.09,0,0,1-.66-13.76,77.32,77.32,0,0,0-.89-11.57,64.92,64.92,0,0,1-.64-8.92c0-3-.06-6.06-.18-9.09-.07-1.86-.32-3.71-.47-5.57-.17-2-.31-4-.48-6.08-.18-2.27-.39-4.54-.59-6.8-.06-.67-.15-1.34-.23-2.11-1,0-1.93.13-2.87.15l-22.8.31-2.87.05c-.54,0-1,0-1.22-.7,0-.22-.34-.42-.57-.55s-.81-.33-1.19-.55a5.3,5.3,0,0,1-.69-.58c.24-.23.44-.56.72-.69a16.68,16.68,0,0,1,6.29-1.09,33.69,33.69,0,0,0,4.14-.37c-1.27,0-2.55,0-3.82,0-2,.07-4,.22-6,.29a6,6,0,0,1-1.35-.27c.75-.44,1.32-.82,1.93-1.12a1.2,1.2,0,0,0,.72-1.11,2.42,2.42,0,0,0-2-.26c-.36.1-.75.3-.95-.08s0-.64.09-1.08c-.09-.11-.29-.31-.47-.51a2.35,2.35,0,0,1-.21-2.73.78.78,0,0,0-.2-1.11.84.84,0,0,1-.34-.56,2.65,2.65,0,0,0-.64-1.87c-.11-.12-.08-.38-.08-.57a17.19,17.19,0,0,1,.11-3.3c.22-1-.09-2.32,1.12-3.11a2.63,2.63,0,0,1-.87-2.47c.08-.55-.36-1.14.21-1.67.86-.78,1.52-1.71,2.88-1.82,2.57-.22,5.12-.62,7.88-1a3.46,3.46,0,0,0-2.27-.91c-.93-.06-1.88.19-2.83.21-1.43,0-2.86,0-4.29-.08a1.77,1.77,0,0,1-1.51-.76,1.05,1.05,0,0,1,1.22-.65,38.74,38.74,0,0,0,7.13-.72c1.42-.18,2.85-.33,4.28-.44,2.26-.17,4.52-.38,6.79-.43,6.14-.14,12.29-.19,18.43-.33,2.07,0,4.14-.33,6.2-.43,1.36-.07,2.72,0,4.08,0,2.66-.06,5.32-.16,8-.21,2.11,0,4.23,0,6.34,0,3.27-.08,6.55-.15,9.82-.35a73.26,73.26,0,0,1,11.85.26,37.26,37.26,0,0,0,7.54,0c1.78-.18,3.59-.1,5.38-.13a2.89,2.89,0,0,1,.59.08ZM136,155.94v.23c1.22.09,2.43.21,3.65.26s2.62.13,3.93.07c2.5-.12,5-.53,7.5-.47s5.07-1,7.67-1q-6,0-12,.23C143.18,155.44,139.61,155.71,136,155.94Z" transform="translate(-7.25 -5.43)"/><path class="cls-1" d="M504.49,236.93a2.54,2.54,0,0,0-2.4.73,1,1,0,0,1-.69.33,1.86,1.86,0,0,0-1.78,1c-.61.85-.88.9-1.57.57a.83.83,0,0,1-.59-.92,4.29,4.29,0,0,0-.07-.63c-.77.2-.78.94-1.22,1.33-.58.09-1.23-.84-1.69,0l-1.94-.5a12.18,12.18,0,0,1-.34-1.43,3.61,3.61,0,0,0-2.15-2.74,6.24,6.24,0,0,0-3-.59,4.78,4.78,0,0,1-1.28-.52l-.84.34c-.24-.58-1-.63-1.13-1.41a5.18,5.18,0,0,0-1.26-2.54c-.32.21-.59.5-.9.54a.91.91,0,0,1-.8-.35,9.84,9.84,0,0,0-1.77-2.37,34.6,34.6,0,0,1-3.48-6.12,47.74,47.74,0,0,1-3.06-8.16c-.93-3.29-1.9-6.57-2.9-10-1.14.1-2.25.13-3.33.3-2.44.37-4.86.82-7.3,1.22-.62.1-1.26.13-2.05.21-.15.74-.35,1.5-.47,2.27-.42,2.84-.77,5.69-1.24,8.52-.28,1.65-.82,3.25-1.1,4.9-.76,4.44-1.93,8.78-3,13.15a33,33,0,0,1-1.32,4,5.19,5.19,0,0,1-.92,1.2,25,25,0,0,0-2.25,2.92,3.55,3.55,0,0,1-1.62,1.63,7.84,7.84,0,0,1-4,1,1.23,1.23,0,0,0-1.36.65,7.68,7.68,0,0,0-3.53-.49,3.27,3.27,0,0,1-3.43-2.28c-.07-.49.15-1,.05-1.51-.27-1.28-.65-2.53-1-3.71h-3.72c-.57-.75-.94-1.53-1.91-1.88-.24.52-.46,1-.71,1.56-.42-.11-.95.07-1-.65,0-.08-.42-.1-.64-.18-.68-.23-.92-.67-.56-1.28,1.1-1.87,1.27-4,1.74-6.05s.83-4.28,1.24-6.42l1.44-7.6c.45-2.39,1-4.77,1.33-7.16.71-4.57,1.79-9.06,2.84-13.56.55-2.32,1.26-4.61,1.71-6.95s.61-4.49.9-6.74c.35-2.64.68-5.28,1.06-7.91.26-1.78.54-3.55.9-5.31.45-2.18,1-4.33,1.51-6.51s.83-4.21,1.24-6.32.92-4.45,1.3-6.68c.3-1.72.42-3.47.7-5.19a40.82,40.82,0,0,1,2.06-8.92,5.2,5.2,0,0,1,1.44-2.49c.19-.15.22-.5.39-.9l1.59.51a1.85,1.85,0,0,0,1.46-.85c.22-.49.22-.49.83-.59-.11.56-.22,1.12-.32,1.67.29-.38.25-1,.93-1s.31.72.6,1.18a5.37,5.37,0,0,1,.34-.68,6.25,6.25,0,0,1,.9-1.24.73.73,0,0,1,1.15,0,4.09,4.09,0,0,0,1.11.56l-.1,1.61c.79-.16.7-.85.94-1.28l1.6-.4.59.88c.65-.25,1.37-.1,1.93-.74.29-.33.93-.23,1.46,0a4.87,4.87,0,0,0,3.22.15,4.07,4.07,0,0,1,.7,0L465,130l-.53-2.37,1,.94c.09-.63.13-1.1.23-1.55.13-.64.35-.79,1-.59s1.21.48,1.86.75a2.34,2.34,0,0,1,0-.87,3.87,3.87,0,0,1,.67-.86c.68.42,1.21,1.21,2.21.63v-1.74l2.73-.56c.75-1.5,1.3-1.58,3.09-.39l1-.32,1,1.14.16-.09-.52-1.26c.35-.38.6-.3.9,0a10.81,10.81,0,0,1,2.15,3.26c.8,2,1.73,3.85,2.54,5.79.51,1.21.88,2.47,1.34,3.71.95,2.57,1.92,5.14,2.89,7.71a86.83,86.83,0,0,1,3.39,10.58,15.81,15.81,0,0,1,.52,2.08,30.33,30.33,0,0,1,.17,4.15,6.44,6.44,0,0,0,.5,2.79,10.93,10.93,0,0,1,.7,2.14c.45,2.46.81,4.94,1.25,7.41a25.71,25.71,0,0,0,.73,3,49.5,49.5,0,0,1,1.13,6.82,4.37,4.37,0,0,0,.12.83c.69,1.78.63,3.67.86,5.53.33,2.64.43,5.3.93,7.94.34,1.83.6,3.69,1.1,5.49.42,1.52,1.12,3,1.39,4.53a50.89,50.89,0,0,0,1.61,5.22c.41,1.42.76,2.85,1.25,4.24s.93,2.57,1.27,3.91a11.34,11.34,0,0,0,.8,2,12.81,12.81,0,0,1,1.38,6.82,41.82,41.82,0,0,1-1.39,5.53c-.06.22-.2.51-.38.58A3,3,0,0,0,504.49,236.93Zm-33.2-61.39c-.11-.55-.18-1-.28-1.39-.36-1.43-.74-2.85-1.1-4.28-1-3.9-1.94-7.81-3-11.71a23.43,23.43,0,0,0-1-2.8.69.69,0,0,0-.52-.38c-.17,0-.4.25-.47.44a16.75,16.75,0,0,0-.61,2.06q-.88,3.9-1.72,7.82a87.39,87.39,0,0,1-2.51,10.21,3.24,3.24,0,0,0,0,.85C463.85,176.19,467.49,175.76,471.29,175.54Zm2.12,27.58-1.25.16c.16.6.29,1.09.43,1.58,1,3.36,2,6.73,3.06,10.07.56,1.75,1.23,3.46,1.88,5.17a17.21,17.21,0,0,0,.8,1.61l.07-.05C476.75,215.53,475.1,209.41,473.41,203.12Z" transform="translate(-7.25 -5.43)"/><path class="cls-1" d="M512,193.12c1.32,1.83,1.77,4.07,3.43,5.87.64-2.11.23-4-.21-6.08l2.65,1.24c.33-1.05.63-2,.93-2.92a5.58,5.58,0,0,0,.31-1c.08-.49.07-1,.11-1.56.67-.38,1.14,0,1.47.51h3l-.29-.2c.53-.35,1.05-.73,1.59-1.05,1-.57,1.58-.25,1.72.87.34,2.61.61,5.24,1.06,7.83a44,44,0,0,0,1.25,4.49c.26.88.57,1.75.81,2.63.73,2.62,1.4,5.25,2.17,7.85a10.17,10.17,0,0,0,3.4,5.26,12.82,12.82,0,0,0,6.1,2.64,21.13,21.13,0,0,0,4.42.2,6.18,6.18,0,0,0,4.11-2.23,11.47,11.47,0,0,0,2.79-7.35,5.7,5.7,0,0,0-.72-3.12,25.31,25.31,0,0,0-5.32-6.88c-4-3.59-7.76-7.39-11.6-11.12-3.36-3.26-6.68-6.55-10-9.83-2.22-2.19-4.49-4.33-6.65-6.57-3.25-3.37-6.61-6.63-9.19-10.58a17.88,17.88,0,0,0-2.44-2.79,10.84,10.84,0,0,1-3.25-6.77c-.17-1.66-.49-3.31-.62-5a17.19,17.19,0,0,1,1.78-8.57c.65-1.45,1.45-2.83,2.17-4.24a12.18,12.18,0,0,1,4.66-4.86c1.5-.92,3-1.79,4.6-2.57s3.45-1.65,5.23-2.34a34.26,34.26,0,0,1,13.7-2.37,21.28,21.28,0,0,1,6.16.7c1.28.43,2.53.93,3.81,1.36,2,.67,4,1.31,6,2a2.08,2.08,0,0,0,.51,0,3.43,3.43,0,0,0-2-1.33c-.68-.26-1.18-1-2-1a3.43,3.43,0,0,1,.85,0,50.76,50.76,0,0,1,7.54,2.94,22.29,22.29,0,0,1,7,5.6,30.18,30.18,0,0,1,5,7.3c.54,1.13,1,2.31,1.51,3.46l-.24.14c-.37-.49-.79-.95-1.11-1.47a43.92,43.92,0,0,0-5.11-6.93,26.61,26.61,0,0,0-5.61-4.42,1.72,1.72,0,0,0-1-.23c.42.37.81.79,1.26,1.12a37,37,0,0,1,7.79,7.91,17.94,17.94,0,0,1,1.19,2.21c.55,1,.09,1.91-.19,2.83-.06.19-.53.31-.82.35-.53.07-1.08.05-1.91.08l1.09,1a1.41,1.41,0,0,0-.31,2.26c-.69-.2-1.19-.11-1.25.45a1.65,1.65,0,0,1-1.09,1.38c-1.29.6-1.48,1.68-1.39,2.9a2.88,2.88,0,0,1-.14,1.51,1,1,0,0,0,0,.68c.5,1.63-.45,2.39-1.44,3.24a11,11,0,0,0-1,.8c-.59.62-.81.7-1.65.37a2.5,2.5,0,0,0-1.49-.11,5.29,5.29,0,0,1-1.8-.21,39.61,39.61,0,0,0-6.8-11.06,9.6,9.6,0,0,0-1.76-1.61c-1.36-.91-2.75-1.79-4.19-2.56a8.23,8.23,0,0,0-2.4-.72,10.62,10.62,0,0,0-5.1.22c-2.48.79-2.6,3.14-1.9,4.76a5.47,5.47,0,0,0,1.25,1.73c4.26,4,8.53,8,12.85,11.89,1.51,1.37,3.23,2.49,4.76,3.84,2.39,2.11,4.71,4.32,7,6.49.7.65,1.36,1.36,2.11,1.94a45.34,45.34,0,0,1,7.14,7.05c1.42,1.73,2.89,3.41,4.34,5.12a26.27,26.27,0,0,1,4,6.62,9.78,9.78,0,0,0,.77,1.47,22.34,22.34,0,0,1,2.68,6.37c.3,1.06.68,2.1.9,3.2a32.11,32.11,0,0,1,.55,9.63,11.5,11.5,0,0,0-.26,3.79,1.5,1.5,0,0,1-.13.7,55.36,55.36,0,0,1-1.88,5.67,22.87,22.87,0,0,1-6.44,9.05c-2.35,1.84-4.68,3.72-7,5.53-1.11.85-2.32,1.56-3.47,2.35a10.23,10.23,0,0,1-3.81,1.35c-2.46.52-4.91,1-7.38,1.49a25,25,0,0,1-2.61.21,30.68,30.68,0,0,1-9.37-.57c-2.43-.6-4.82-1.39-7.2-2.17a54,54,0,0,1-9.15-4.11,15.55,15.55,0,0,1-4.1-3.62c-1.07-1.24-2.07-2.53-3.11-3.8a28.27,28.27,0,0,1-4.53-8.25,48.47,48.47,0,0,1-2.29-6.93,24.79,24.79,0,0,1-.47-2.95c-.13-1.48-.16-3-.28-4.43a3,3,0,0,1,.91-2.5,3.73,3.73,0,0,0,.82-1.56,10.19,10.19,0,0,1,.94-1.75,3.37,3.37,0,0,0,.32-1.58c.09-1.73.14-3.53,1.22-5A13.43,13.43,0,0,1,512,193.12Z" transform="translate(-7.25 -5.43)"/><path class="cls-1" d="M234.62,14.09a4.74,4.74,0,0,1,1.84,4.1c.18-2.38-.39-4.79.63-6.93h1.64l.26-.92c.32-.07.71,0,.83-.2.6-.82,1.29-.52,2-.25.44.51.2,1.38,1,1.74l.79-.65.81.81c.29-.83.58-1.66.86-2.5a2.06,2.06,0,0,0,.15-.8c-.08-.65.05-1.06.81-1.1.18,0,.34-.28.53-.46.38.28.64.84,1.28.49V6.32l.16-.06.58,1.06a9.64,9.64,0,0,0,3.8-.26,5.49,5.49,0,0,0,2.51-.63.54.54,0,0,1,.46,0c1.77.79,3.61.38,5.4.25a31.33,31.33,0,0,1,7.62.14,22.55,22.55,0,0,0,3.59.19c3.23,0,6.46,0,9.7,0,1.91,0,3.82.15,5.73.13a27.38,27.38,0,0,0,3-.34c.65-.06,1.34-.29,2,.33l-.59,1.25a57.72,57.72,0,0,0-8,1.21,9.34,9.34,0,0,0,1.29.1c3.86-.16,7.73-.39,11.59-.49,1.15,0,2.45,0,3.1,1.33.11.22.45.31.66.49a8.63,8.63,0,0,1,1.31,1.25c.26.35-.07.63-.43.82a15.49,15.49,0,0,0-1.62,1,3.83,3.83,0,0,0-.62.76l2.23,1.31a4,4,0,0,1-2.24,2.83,2.89,2.89,0,0,0-1.48,1.66,1,1,0,0,0-.05.65,3.77,3.77,0,0,1-.21,3,10,10,0,0,0-.32,2.82,2.61,2.61,0,0,0-1.41,1.44c-.07.22-.57.39-.88.42a3.06,3.06,0,0,0-2.05.84l.89,1.47c-1.23-.53-2.29.07-3.4.23a21.38,21.38,0,0,1-3.1.12c-2.43,0-4.86-.09-7.29-.18a90.63,90.63,0,0,1-13.46-1.11,13.67,13.67,0,0,0-4.94.08c-.27.65-.11,1,.54,1.05.48,0,1,0,1.44.05,1.06.13,2.11.33,3.16.45,1.31.14,2.62.22,3.93.34a2,2,0,0,1,.77.26c-2.66.15-5.34-.06-7.67.54,1.14.1,2.55.11,3.92.36a69.32,69.32,0,0,0,10.48.74c1.95,0,3.9.08,5.85.15a15.54,15.54,0,0,0,4.5-.58,3.42,3.42,0,0,1,1.16-.11,18.84,18.84,0,0,1-3.89,1.13,74.48,74.48,0,0,1-10.77.16c-2.1,0-4.19-.23-6.29-.4-1.19-.1-2.36-.35-3.55-.42a9.43,9.43,0,0,0-2.11.2c-.74.13-.94.38-.89,1.15a16.72,16.72,0,0,0,.36,3.09,28.34,28.34,0,0,1,.43,4.94l.25,3.08c.47,0,.89.11,1.32.12,2.91.06,5.82.14,8.73.15,1.88,0,3.75-.14,5.63-.18.83,0,1.67.11,2.5.12a19.63,19.63,0,0,1,5.82.44l-.64.39c0,.21,0,.44-.06.67-.07.54.18.81.7.92s.89.26,1.26.37c-.29,1.45-.61,2.74-.81,4.06-.27,1.79-.74,2.32-2.55,2.6-1.09.17-1.16.24-1.27,1.54l1.47.49a9,9,0,0,0-.88,6.48,2.38,2.38,0,0,0,0,3.4c-.94.76-1,.78-6.1,1.3a2.44,2.44,0,0,0,.05.39,5.3,5.3,0,0,0,.19.55l-1.33.25a2.07,2.07,0,0,0-1.07.36c.55.06,1.09.15,1.64.16s1.1-.07,1.65-.11l.05.23a3.89,3.89,0,0,1-.66.21,39.34,39.34,0,0,1-7.28,0,16.63,16.63,0,0,0-4.5.4c-.88.22-1.79.34-2.73.51v2.76c0,.87-.07,1.76,0,2.63a23.08,23.08,0,0,0,.89,4.57,14.12,14.12,0,0,1,.28,3.2c0,.74,0,1.49,0,2.27,1,.09,1.9.18,2.77.24,1.91.13,3.82.27,5.73.38s3.66.07,5.48.22c3.3.28,6.62-.25,9.91.34,1.06.2,2.12.41,3.18.57s1.25,1.06,1.87,1.58c.05,0-.21.43-.34.69,1,.25,2.2.51,3.36.82.33.09.78.22.92.47a2.67,2.67,0,0,0,1.7,1.2,2,2,0,0,1,1,.73h-.66c-.07.55-.12,1.09-.2,1.63s-.24,1.32-.36,2-.19,1.1-.33,1.64a2,2,0,0,1-1.34,1.42,4.57,4.57,0,0,0-.87.4c-.78.49-.74,1.08.08,1.52l.92.5s0,.15,0,.29c-.38.3-.8.07-1.21,0-.78-.11-1.09.1-1.18.79s.24,1,.92,1.1c.23,0,.46.1.69.15,0,0,0,.07.09.13l-1,1.52a.79.79,0,0,0,.11,1.06,17.85,17.85,0,0,1,1.07,1.78c-.76.54-1.4,1-2.09,1.47a1.77,1.77,0,0,1-.81.12c-.51,0-1,0-1.67,0l.34,1.17c-.69,0-1.27,0-1.85,0-1.46-.11-2.92-.35-4.38-.36s-2.69.29-4,.32a54.48,54.48,0,0,1-7.77-.13c-2.05-.25-4.14-.19-6.2-.37a19.43,19.43,0,0,0-4.88.09,2.39,2.39,0,0,0-.86.33,21.79,21.79,0,0,1,6.58.7,5.69,5.69,0,0,0-.83-.06c-1.59.08-3.18.14-4.77.26-1.36.1-2.7.33-4.05.39a30.53,30.53,0,0,0-5.78.84,10.43,10.43,0,0,1-4.21.43c-.79-.13-1.65.09-2.53,0l.61-.36c-1.91-1.28-4.15-1.13-6.28-1.35-.59-.07-1-.16-1.22-.7a2.07,2.07,0,0,0-.44-.71,2.27,2.27,0,0,1-.51-2.43c.52-1.7.11-3.34-.17-5.15l-.59.74.16-2.12c-.72.24-.71.86-.81,1.37-.15.75-.22,1.5-.31,2.25-.07.59,0,1.22-.76,1.45-.1,0-.15.34-.19.52-.06.39-.1.77-.14,1.15-1.33-.12-1.6-.35-1.6-1.49,0-1.52,0-3,.12-4.55a50.82,50.82,0,0,0-.16-6.41c-.16-2.65-.19-5.32-.17-8,0-4.83.16-9.65.22-14.48,0-2.16,0-4.31,0-6.47s-.15-4.43-.22-6.65c-.12-3.41-.24-6.82-.34-10.23-.08-2.86-.21-5.73-.17-8.59a64.87,64.87,0,0,0-1.06-11.21c-.3-1.84-.44-3.72-.59-5.58-.2-2.62-.37-5.25-.5-7.87a18.26,18.26,0,0,1,.09-3.47c.07-.49.61-.94,1-1.34A2.27,2.27,0,0,1,234.62,14.09Zm50.44,76.77h-7.27C280.46,91.46,283.85,91.47,285.06,90.86ZM260,8.83l0,.27,3.68-.2,0-.28C262.35,8.12,261.16,8.68,260,8.83ZM255,115c-1.26-.61-2.13-.46-2.69.34Zm34.8-23.61,0-.23-4-.25v.15Zm-53.11-67h.05V23.18h-.05Zm45.68,43.67v.16h1v-.16Z" transform="translate(-7.25 -5.43)"/><path class="cls-1" d="M418.37,125.19l.55.84.93-.81a2.24,2.24,0,0,1,.82,1.63c.31,2.25-.24,4.53.34,6.75a2.47,2.47,0,0,1,0,.72l-.15,18.35c0,2.44-.07,4.88-.05,7.31,0,2,.15,4,.19,6,0,1-.06,2.08-.09,3.11,0,.68,0,1.36,0,2-.05,1.23-.16,2.46-.19,3.7,0,.59.14,1.18.13,1.77,0,1.76-.13,3.51-.11,5.27,0,2,0,4,.24,6a37.77,37.77,0,0,1-.18,6.81,6.2,6.2,0,0,0-.12.71c.15,3-.57,6-.3,9,.25,2.74.19,5.51.29,8.27,0,.95.2,1.91.17,2.86,0,1.19-.22,2.38-.34,3.57-.05.52-.15,1-.17,1.55-.07,3.27-.09,6.55-.2,9.82-.12,3.51-.32,7-.48,10.56l-.66-.14a35.6,35.6,0,0,1,0-5.06c.13-2,.21-4,.29-6a3.47,3.47,0,0,0-.22-.79,6.38,6.38,0,0,0-.28.89,13.29,13.29,0,0,0,0,1.67,33.31,33.31,0,0,1-.61,6.54c-.16,1.22-.18,2.47-.36,3.69-.15,1-.73,1.2-1.59.66-.19-.12-.4-.23-.72-.41a6.52,6.52,0,0,0,.69-1.21,3.72,3.72,0,0,0,.1-1.16c0-1.34,0-2.67,0-4H416c-.18,1.47-.41,2.93-.54,4.39a4.49,4.49,0,0,1-1.31,3.2,1.79,1.79,0,0,0-.25.41c-1.63.24-3.26.44-4.9.63-.43-.66-.5-.68-1.12-.33l-2.09,1.15-.31-1.22-.92-.37-.8,1.76c-1.19-.66-2.24-.29-3.39.23.2-.74.37-1.33.51-1.93s-.31-1.13-1-1c-.35.07-.71.1-1.22.18l-.91,1.53c-1-.5-1-.5-2,0l-1.21-1.41c-1.13.18-1.75-.19-1.86-1.4a2,2,0,0,0-1.12-1.81,1.61,1.61,0,0,1-.85-1.59q0-4.73,0-9.47c0-2-.14-4-.19-6a9.72,9.72,0,0,1,0-1.79,26.74,26.74,0,0,0,0-4.9c-.09-2.52-.07-5,0-7.55s.14-5,.17-7.55,0-5,0-7.55q0-1.14,0-2.28c-.06-2.6-.33-5.21-.16-7.79.36-5.2.06-10.39.07-15.58,0-3.88.07-7.76.07-11.63,0-2.72-.05-5.44-.07-8.15,0-1.88,0-3.75,0-5.63,0-1.24-.11-2.47-.1-3.71,0-1.63.11-3.27.12-4.9,0-1-.12-2-.18-3.08a9.63,9.63,0,0,1,0-1.42c.05-.67.28-.83.95-.64a4.49,4.49,0,0,1,1.06.51c.77.43,1.11.28,1.22-.55.14-1.17.14-1.17,1.13-2.19l.83.39c.23-.19.47-.39.69-.59.41-.38.72-.53.82.24,0,.2.27.37.34.47a3.69,3.69,0,0,0,1-.35c.22-.15.31-.47.51-.8l.68.78c.24-.47.46-.91.78-1.52.69,0,1.51-.06,2.32-.11a19.27,19.27,0,0,0,2.15-.17c.65-.1,1.27-.22,1.72.4a10.23,10.23,0,0,0,.94-.47c.56-.37,1.09-.69,1.72-.12a.88.88,0,0,0,.57.07c.71-.1,1.41-.2,2.11-.35a4.58,4.58,0,0,1,1.95.19c.82.15,1.48.86,2.38.61.07,0,.2,0,.22.06.44.87,1,.38,1.61.21A1.5,1.5,0,0,1,418.37,125.19Z" transform="translate(-7.25 -5.43)"/><path class="cls-2" d="M206.39,255.58h10.87c.54,4.83,1.07,9.67,1.62,14.5s1.11,9.6,1.87,14.41q2-14.39,3.91-28.77a71.79,71.79,0,0,1,10.18-.11q2.1,14.26,4.23,28.61a8.48,8.48,0,0,0,.59-3c.17-1.06.21-2.15.32-3.22s.22-2.15.33-3.22.23-2.15.34-3.22.19-2.07.29-3.1.23-2.15.34-3.22.23-2.15.33-3.22.19-2.15.31-3.23.24-2.12.37-3.2h10.83l-7.29,42.63a101.37,101.37,0,0,1-12.34.05q-1.8-14-3.63-28h-.21c-1.21,9.34-2.43,18.68-3.65,28.09H213.7Q210.06,277,206.39,255.58Z" transform="translate(-7.25 -5.43)"/><path class="cls-2" d="M299.1,255.53h1c5.28,0,10.56,0,15.83,0a18.59,18.59,0,0,1,3.56.41,10.17,10.17,0,0,1,7.33,6,18,18,0,0,1,1.64,6.23,104.48,104.48,0,0,1,0,17.6,17.68,17.68,0,0,1-1.63,6.22,10.36,10.36,0,0,1-9,6.24c-2.43.2-4.87.18-7.31.2-3.35,0-6.71,0-10.07,0H299.1Zm11.21,34.89c1.38-.11,2.61-.18,3.83-.32a2.42,2.42,0,0,0,2.12-1.71,12.19,12.19,0,0,0,.7-2.89,111.06,111.06,0,0,0,0-17.11,12.23,12.23,0,0,0-.66-2.78,2.54,2.54,0,0,0-2.28-1.86c-1.21-.12-2.44,0-3.71,0Z" transform="translate(-7.25 -5.43)"/><path class="cls-2" d="M545.39,298.35h-11.8a4.79,4.79,0,0,1-.81-2.58c-.16-1.87-.24-3.75-.32-5.62-.08-1.72-.1-3.44-.16-5.16a5.83,5.83,0,0,0-.08-.83c-.37-2.07-1.32-2.89-3.42-3-.92,0-1.83,0-2.9,0v17.13h-11c-.26-.88-.37-40.45-.12-42.73a8.8,8.8,0,0,1,.91-.08c5.76,0,11.52-.05,17.27,0a16,16,0,0,1,4.23.69,8.72,8.72,0,0,1,6.3,6.76,16.25,16.25,0,0,1,0,7.72c-.75,3.16-2.53,5.39-5.81,6.18a4.58,4.58,0,0,0-.66.3l1.61.39a5.51,5.51,0,0,1,4.07,3.71,15.41,15.41,0,0,1,.79,3.73c.15,2,.07,4.08.11,6.12,0,1.15.08,2.31.14,3.47a3.75,3.75,0,0,0,1.37,2.94,1.26,1.26,0,0,1,.27.38C545.45,298,545.41,298.11,545.39,298.35Zm-19.45-24.79c1,0,1.86,0,2.73,0a3.93,3.93,0,0,0,3.83-3.18,8.09,8.09,0,0,0,0-4,3.22,3.22,0,0,0-2.46-2.5,14.89,14.89,0,0,0-4.07-.18Z" transform="translate(-7.25 -5.43)"/><path class="cls-2" d="M548.72,298.42V255.61h11.12v15.87l.27.08c1.43-2.59,2.69-5.28,4-7.91s2.69-5.35,4.06-8.06h11.9c-.24.45-.43.82-.64,1.19-3.15,5.46-6.29,10.94-9.48,16.38a2,2,0,0,0-.07,2.19q5.51,10.83,10.93,21.72c.2.38.36.77.59,1.27H568.72l-6.52-14.83c-.77,1.19-1.47,2.2-2.09,3.26a2.43,2.43,0,0,0-.2,1.15c0,3,0,6,0,9v1.45C556.16,298.48,552.51,298.39,548.72,298.42Z" transform="translate(-7.25 -5.43)"/><path class="cls-2" d="M488.31,255.58h14.13c3.47,14.25,6.94,28.46,10.42,42.77H500.93c-.38-2.49-.76-4.93-1.13-7.35a57.56,57.56,0,0,0-8.83-.09c-.38,2.44-.77,4.91-1.16,7.44H478.08C481.47,284.05,484.9,269.83,488.31,255.58Zm4,26.76h6.15c-1-5.9-2-11.73-3-17.55h-.23C494.28,270.61,493.29,276.44,492.3,282.34Z" transform="translate(-7.25 -5.43)"/><path class="cls-2" d="M431.63,289.2v9.14H406a.35.35,0,0,1-.11-.08.27.27,0,0,1-.06-.1c0-.28-.07-.56-.07-.83V255.72c.89-.24,23.75-.3,25.37-.08v9c-1.54,0-3.08,0-4.62,0h-9.32a29.25,29.25,0,0,0-.06,7.27h13.08v8.78H417.13a48,48,0,0,0-.09,8.48c1.59,0,3.21,0,4.83,0h9.76Z" transform="translate(-7.25 -5.43)"/><path class="cls-2" d="M462.11,282.11V298.2a80.28,80.28,0,0,1-11.13.08V255.6a4.34,4.34,0,0,1,.58-.07c5.68,0,11.37-.1,17,0,4.58.12,8.17,2.12,10.13,6.43a15.5,15.5,0,0,1,1.12,4,19,19,0,0,1-.23,6.92c-1.12,5-4.34,7.78-9.23,8.71a43.75,43.75,0,0,1-5.25.46C464.19,282.16,463.24,282.11,462.11,282.11Zm.08-8.15a24.9,24.9,0,0,0,2.6,0,3.62,3.62,0,0,0,3.45-3.12,8.94,8.94,0,0,0-.08-4.39,3.44,3.44,0,0,0-2.63-2.68,8.92,8.92,0,0,0-3.34,0Z" transform="translate(-7.25 -5.43)"/><path class="cls-2" d="M377,255.56h25.15a54.88,54.88,0,0,1,.07,9.05h-14v7.3h13.2v8.78H388.12v17.66H377Z" transform="translate(-7.25 -5.43)"/><path class="cls-2" d="M333.58,255.59h11.1V289.2h13.7v9.14h-24.8Z" transform="translate(-7.25 -5.43)"/><path class="cls-2" d="M271.39,298.31v-42.7h11.1v33.56h13.78c.05,3.12,0,6.09,0,9C295.32,298.46,273.42,298.55,271.39,298.31Z" transform="translate(-7.25 -5.43)"/><path class="cls-2" d="M361,298.33V255.6h11.1v42.73Z" transform="translate(-7.25 -5.43)"/><path class="cls-2" d="M255.38,255.57h11.07v42.76H255.38Z" transform="translate(-7.25 -5.43)"/><path class="cls-1" d="M340.56,197c1.26,0,2.53-.07,3.78,0,1.71.14,3.41.38,5.11.62a12.22,12.22,0,0,1,6.54,2.68c1.27,1.09,2.78,1.89,3.78,3.29a1,1,0,0,1,.23.61,7,7,0,0,1-1-.69,20.6,20.6,0,0,0-10.76-5.12l-6.85-1c-.29,0-.56-.15-.84-.22Z" transform="translate(-7.25 -5.43)"/></svg>